{"glyphs":{"0":{"ha":894,"x_min":69,"x_max":825,"o":"m 446 1083 q 594 1040 525 1083 q 715 922 664 997 q 795 747 765 847 q 825 529 825 646 q 796 315 825 414 q 715 142 767 215 q 595 28 664 69 q 446 -14 526 -14 q 298 28 367 -14 q 178 142 229 69 q 99 315 128 215 q 69 529 69 414 q 99 747 69 646 q 178 923 128 849 q 298 1040 229 997 q 446 1083 367 1083 m 446 1000 q 389 979 413 1000 q 351 905 365 958 q 330 760 336 851 q 324 531 324 669 q 330 301 324 390 q 351 160 336 211 q 389 89 365 108 q 446 69 413 69 q 503 89 479 69 q 542 160 528 108 q 564 301 557 211 q 571 531 571 390 q 564 760 571 669 q 542 905 557 851 q 503 979 528 958 q 446 1000 479 1000 z "},"1":{"ha":632,"x_min":57,"x_max":618,"o":"m 443 1072 l 443 86 l 618 50 l 618 0 l 57 0 l 57 50 l 228 86 l 228 854 l 57 854 l 57 914 q 227 972 151 931 q 379 1083 303 1013 l 443 1072 z "},"2":{"ha":829,"x_min":43,"x_max":771,"o":"m 56 0 l 43 81 q 260 301 171 203 q 404 478 349 399 q 485 626 460 558 q 510 754 510 693 q 466 897 510 843 q 349 950 422 950 q 284 938 317 950 q 222 905 251 926 q 166 853 192 883 q 122 789 140 824 l 65 818 q 208 1013 114 943 q 422 1083 303 1083 q 550 1060 490 1083 q 653 997 610 1038 q 721 901 696 956 q 746 782 746 846 q 722 654 746 718 q 644 519 699 590 q 501 366 590 449 q 282 182 413 283 l 611 182 q 658 241 635 206 q 708 324 682 276 l 771 313 l 656 -46 l 611 -46 l 582 0 l 56 0 z "},"3":{"ha":793,"x_min":47,"x_max":731,"o":"m 207 567 q 308 618 263 589 q 384 682 353 647 q 432 755 415 717 q 449 833 449 793 q 417 921 449 889 q 333 953 386 953 q 222 917 275 953 q 142 821 169 881 l 92 840 q 133 940 104 894 q 202 1017 161 985 q 296 1066 243 1049 q 408 1083 349 1083 q 513 1067 465 1083 q 594 1023 560 1051 q 647 955 628 994 q 665 867 665 915 q 649 789 665 825 q 607 724 633 753 q 544 674 581 694 q 469 643 508 653 l 469 638 q 576 610 528 632 q 659 550 625 588 q 712 463 693 513 q 731 354 731 414 q 699 210 731 278 q 615 93 668 143 q 488 15 561 43 q 332 -14 415 -14 q 220 1 272 -14 q 130 42 168 15 q 69 103 92 68 q 47 178 47 138 q 74 252 47 224 q 146 281 101 281 q 197 265 178 281 q 228 227 215 250 q 250 178 240 204 q 274 128 260 151 q 309 90 288 106 q 367 75 331 75 q 469 128 432 75 q 506 272 506 181 q 451 449 506 385 q 304 513 397 513 q 266 510 288 513 q 229 506 244 508 l 207 567 z "},"4":{"ha":832,"x_min":13,"x_max":771,"o":"m 426 267 l 38 267 l 13 347 l 531 1083 l 642 1069 l 642 403 l 771 403 l 771 267 l 642 267 l 642 83 l 765 51 l 765 0 l 260 0 l 260 51 l 426 83 l 426 267 m 426 772 l 421 772 l 161 408 l 163 403 l 426 403 l 426 772 z "},"5":{"ha":775,"x_min":38,"x_max":717,"o":"m 249 681 q 303 693 276 692 q 358 694 331 694 q 505 672 439 694 q 618 606 571 649 q 691 505 665 564 q 717 374 717 446 q 686 219 717 290 q 601 97 656 149 q 473 15 547 44 q 313 -14 399 -14 q 203 0 253 -14 q 116 38 153 14 q 58 94 79 61 q 38 167 38 128 q 65 240 38 211 q 136 269 92 269 q 185 255 167 269 q 214 219 203 240 q 233 172 225 197 q 256 126 242 147 q 292 90 269 104 q 353 75 314 75 q 424 90 392 75 q 481 134 457 106 q 517 201 504 163 q 531 285 531 239 q 515 369 531 331 q 472 437 500 408 q 406 481 444 465 q 321 496 367 496 q 247 485 283 496 q 182 456 211 475 l 125 456 l 207 1051 l 585 1051 q 603 1077 594 1063 q 628 1121 613 1092 l 678 1097 l 617 861 l 272 861 l 249 681 z "},"6":{"ha":839,"x_min":64,"x_max":797,"o":"m 428 -14 q 276 13 343 -14 q 161 91 208 40 q 89 214 114 142 q 64 378 64 286 q 103 601 64 493 q 215 800 143 708 q 388 963 286 892 q 615 1079 490 1035 l 647 1024 q 533 940 589 992 q 432 828 478 889 q 356 703 386 768 q 318 583 325 639 q 388 637 343 618 q 490 656 432 656 q 613 631 557 656 q 710 562 669 606 q 774 458 751 518 q 797 328 797 399 q 770 189 797 251 q 694 81 743 126 q 578 11 646 36 q 428 -14 510 -14 m 439 69 q 535 133 500 69 q 569 304 569 196 q 532 485 569 418 q 429 551 494 551 q 363 532 393 551 q 315 476 333 513 q 303 407 307 444 q 299 329 299 369 q 336 139 299 208 q 439 69 374 69 z "},"7":{"ha":732,"x_min":24,"x_max":729,"o":"m 707 1051 l 729 1013 q 650 838 683 913 q 590 699 617 763 q 539 575 563 635 q 490 445 515 515 q 433 288 464 375 q 361 81 403 200 q 251 -14 328 -14 q 177 8 204 -14 q 150 71 150 31 q 206 228 150 124 l 543 861 l 156 861 q 116 814 135 840 q 76 747 97 788 l 24 771 l 146 1115 l 197 1104 q 199 1077 197 1093 q 206 1051 201 1061 l 707 1051 z "},"8":{"ha":864,"x_min":67,"x_max":799,"o":"m 569 614 q 744 475 690 547 q 799 310 799 403 q 771 179 799 239 q 693 77 743 119 q 574 10 643 35 q 424 -14 506 -14 q 272 8 338 -14 q 160 67 206 29 q 90 158 114 106 q 67 272 67 210 q 117 416 67 354 q 271 525 167 478 q 107 801 107 636 q 131 917 107 865 q 197 1006 154 969 q 301 1063 240 1043 q 436 1083 361 1083 q 565 1066 507 1083 q 663 1017 622 1049 q 727 941 704 985 q 750 843 750 897 q 704 710 750 768 q 569 614 658 653 m 486 651 q 576 843 576 735 q 537 958 576 917 q 426 1000 497 1000 q 324 964 361 1000 q 286 865 286 928 q 333 753 286 803 q 486 651 379 703 m 346 485 q 283 406 306 457 q 261 286 261 356 q 308 126 261 182 q 440 69 354 69 q 563 113 517 69 q 610 231 610 157 q 547 366 610 306 q 346 485 485 426 z "},"9":{"ha":838,"x_min":40,"x_max":774,"o":"m 410 1079 q 562 1052 494 1079 q 676 974 629 1025 q 749 851 724 924 q 774 688 774 779 q 734 465 774 572 q 623 265 694 357 q 449 101 551 174 q 222 -14 347 29 l 190 42 q 304 127 249 74 q 406 243 360 181 q 482 372 451 306 q 519 496 513 438 q 450 442 494 461 q 347 424 406 424 q 224 447 281 424 q 127 513 168 471 q 63 612 86 554 q 40 738 40 669 q 67 876 40 814 q 143 984 94 939 q 260 1054 192 1029 q 410 1079 328 1079 m 399 996 q 303 933 338 996 q 268 761 268 869 q 306 590 268 653 q 408 528 343 528 q 474 547 444 528 q 522 603 504 567 q 535 665 531 631 q 539 736 539 700 q 501 926 539 857 q 399 996 464 996 z "}," ":{"ha":351,"x_min":0,"x_max":0,"o":""},"Á":{"ha":1085,"x_min":-28,"x_max":1118,"o":"m 614 308 l 301 308 l 261 203 q 246 138 246 161 q 281 83 246 101 q 403 51 315 64 l 403 0 l -28 0 l -28 51 q 51 69 21 60 q 101 94 81 78 q 135 138 121 111 q 165 206 149 164 l 428 875 l 364 1018 l 571 1097 l 968 136 q 988 97 978 113 q 1015 72 999 82 q 1056 58 1031 63 q 1118 51 1081 54 l 1118 0 l 546 0 l 546 51 q 652 65 622 54 q 682 103 682 75 q 669 158 682 125 l 614 308 m 458 717 l 332 388 l 585 388 l 464 717 l 458 717 m 322 1174 l 496 1304 q 541 1330 519 1322 q 581 1338 563 1338 q 637 1315 617 1338 q 657 1263 657 1292 q 638 1212 657 1236 q 575 1179 619 1188 l 346 1135 l 322 1174 z "},"Ă":{"ha":1085,"x_min":-28,"x_max":1118,"o":"m 614 308 l 301 308 l 261 203 q 246 138 246 161 q 281 83 246 101 q 403 51 315 64 l 403 0 l -28 0 l -28 51 q 51 69 21 60 q 101 94 81 78 q 135 138 121 111 q 165 206 149 164 l 428 875 l 364 1018 l 571 1097 l 968 136 q 988 97 978 113 q 1015 72 999 82 q 1056 58 1031 63 q 1118 51 1081 54 l 1118 0 l 546 0 l 546 51 q 652 65 622 54 q 682 103 682 75 q 669 158 682 125 l 614 308 m 458 717 l 332 388 l 585 388 l 464 717 l 458 717 m 349 1340 q 404 1306 365 1317 q 489 1296 443 1296 q 572 1306 533 1296 q 633 1340 610 1317 l 701 1340 q 656 1239 683 1276 q 599 1182 629 1201 q 538 1157 568 1163 q 483 1151 507 1151 q 417 1161 451 1151 q 355 1193 383 1171 q 306 1251 326 1215 q 279 1340 285 1288 l 349 1340 z "},"Â":{"ha":1085,"x_min":-28,"x_max":1118,"o":"m 614 308 l 301 308 l 261 203 q 246 138 246 161 q 281 83 246 101 q 403 51 315 64 l 403 0 l -28 0 l -28 51 q 51 69 21 60 q 101 94 81 78 q 135 138 121 111 q 165 206 149 164 l 428 875 l 364 1018 l 571 1097 l 968 136 q 988 97 978 113 q 1015 72 999 82 q 1056 58 1031 63 q 1118 51 1081 54 l 1118 0 l 546 0 l 546 51 q 652 65 622 54 q 682 103 682 75 q 669 158 682 125 l 614 308 m 458 717 l 332 388 l 585 388 l 464 717 l 458 717 m 489 1333 q 534 1322 513 1333 q 583 1288 556 1311 l 728 1171 l 706 1140 l 488 1197 l 269 1140 l 247 1171 l 389 1288 q 439 1322 417 1311 q 489 1333 461 1333 z "},"Ä":{"ha":1085,"x_min":-28,"x_max":1118,"o":"m 614 308 l 301 308 l 261 203 q 246 138 246 161 q 281 83 246 101 q 403 51 315 64 l 403 0 l -28 0 l -28 51 q 51 69 21 60 q 101 94 81 78 q 135 138 121 111 q 165 206 149 164 l 428 875 l 364 1018 l 571 1097 l 968 136 q 988 97 978 113 q 1015 72 999 82 q 1056 58 1031 63 q 1118 51 1081 54 l 1118 0 l 546 0 l 546 51 q 652 65 622 54 q 682 103 682 75 q 669 158 682 125 l 614 308 m 458 717 l 332 388 l 585 388 l 464 717 l 458 717 m 258 1244 q 284 1311 258 1282 q 357 1340 310 1340 q 431 1311 404 1340 q 458 1244 458 1282 q 433 1181 458 1211 q 357 1151 407 1151 q 283 1181 308 1151 q 258 1244 258 1211 m 546 1244 q 572 1311 546 1282 q 644 1340 597 1340 q 719 1311 692 1340 q 746 1244 746 1282 q 721 1181 746 1211 q 644 1151 696 1151 q 571 1181 596 1151 q 546 1244 546 1211 z "},"À":{"ha":1085,"x_min":-28,"x_max":1118,"o":"m 614 308 l 301 308 l 261 203 q 246 138 246 161 q 281 83 246 101 q 403 51 315 64 l 403 0 l -28 0 l -28 51 q 51 69 21 60 q 101 94 81 78 q 135 138 121 111 q 165 206 149 164 l 428 875 l 364 1018 l 571 1097 l 968 136 q 988 97 978 113 q 1015 72 999 82 q 1056 58 1031 63 q 1118 51 1081 54 l 1118 0 l 546 0 l 546 51 q 652 65 622 54 q 682 103 682 75 q 669 158 682 125 l 614 308 m 458 717 l 332 388 l 585 388 l 464 717 l 458 717 m 618 1135 l 389 1179 q 326 1212 344 1188 q 307 1263 307 1236 q 327 1315 307 1292 q 383 1338 347 1338 q 423 1330 401 1338 q 468 1304 444 1322 l 642 1174 l 618 1135 z "},"Ā":{"ha":1085,"x_min":-28,"x_max":1118,"o":"m 614 308 l 301 308 l 261 203 q 246 138 246 161 q 281 83 246 101 q 403 51 315 64 l 403 0 l -28 0 l -28 51 q 51 69 21 60 q 101 94 81 78 q 135 138 121 111 q 165 206 149 164 l 428 875 l 364 1018 l 571 1097 l 968 136 q 988 97 978 113 q 1015 72 999 82 q 1056 58 1031 63 q 1118 51 1081 54 l 1118 0 l 546 0 l 546 51 q 652 65 622 54 q 682 103 682 75 q 669 158 682 125 l 614 308 m 458 717 l 332 388 l 585 388 l 464 717 l 458 717 m 285 1200 l 285 1333 l 711 1333 l 711 1200 l 285 1200 z "},"Ą":{"ha":1085,"x_min":-28,"x_max":1118,"o":"m 1028 -281 q 847 -356 951 -356 q 744 -323 782 -356 q 706 -233 706 -290 q 747 -118 706 -179 q 864 0 789 -57 l 546 0 l 546 51 q 652 65 622 54 q 682 103 682 75 q 669 158 682 125 l 614 308 l 301 308 l 261 203 q 246 138 246 161 q 281 83 246 101 q 403 51 315 64 l 403 0 l -28 0 l -28 51 q 51 69 21 60 q 101 94 81 78 q 135 138 121 111 q 165 206 149 164 l 428 875 l 364 1018 l 571 1097 l 968 136 q 988 97 978 113 q 1015 72 999 82 q 1056 58 1031 63 q 1118 51 1081 54 l 1118 0 l 950 0 q 863 -172 863 -96 q 929 -251 863 -251 q 966 -244 949 -251 q 1007 -222 983 -237 l 1028 -281 m 458 717 l 332 388 l 585 388 l 464 717 l 458 717 z "},"Å":{"ha":1085,"x_min":-28,"x_max":1118,"o":"m 614 308 l 301 308 l 261 203 q 246 138 246 161 q 281 83 246 101 q 403 51 315 64 l 403 0 l -28 0 l -28 51 q 51 69 21 60 q 101 94 81 78 q 135 138 121 111 q 165 206 149 164 l 428 875 l 364 1018 l 571 1097 l 968 136 q 988 97 978 113 q 1015 72 999 82 q 1056 58 1031 63 q 1118 51 1081 54 l 1118 0 l 546 0 l 546 51 q 652 65 622 54 q 682 103 682 75 q 669 158 682 125 l 614 308 m 458 717 l 332 388 l 585 388 l 464 717 l 458 717 m 471 1153 q 400 1181 426 1153 q 374 1250 374 1208 q 401 1319 374 1292 q 471 1347 429 1347 q 540 1319 513 1347 q 568 1250 568 1292 q 540 1181 568 1208 q 471 1153 513 1153 m 443 1250 q 471 1222 443 1222 q 499 1250 499 1222 q 471 1278 499 1278 q 443 1250 443 1278 z "},"Ǻ":{"ha":1085,"x_min":-28,"x_max":1118,"o":"m 317 1175 l 376 1219 q 372 1250 372 1233 q 400 1319 372 1292 q 469 1347 428 1347 q 526 1331 501 1347 q 551 1342 539 1338 q 578 1346 563 1346 q 619 1334 599 1346 q 639 1297 639 1322 q 625 1258 639 1276 q 564 1225 611 1239 q 531 1173 556 1193 q 469 1153 506 1153 q 411 1169 433 1153 l 332 1146 l 317 1175 m 469 1222 q 497 1250 497 1222 q 469 1278 497 1278 q 442 1250 442 1278 q 469 1222 442 1222 m 614 308 l 301 308 l 261 203 q 246 138 246 161 q 281 83 246 101 q 403 51 315 64 l 403 0 l -28 0 l -28 51 q 51 69 21 60 q 101 94 81 78 q 135 138 121 111 q 165 206 149 164 l 428 875 l 364 1018 l 571 1097 l 968 136 q 988 97 978 113 q 1015 72 999 82 q 1056 58 1031 63 q 1118 51 1081 54 l 1118 0 l 546 0 l 546 51 q 652 65 622 54 q 682 103 682 75 q 669 158 682 125 l 614 308 m 458 717 l 332 388 l 585 388 l 464 717 l 458 717 z "},"Ã":{"ha":1085,"x_min":-28,"x_max":1118,"o":"m 614 308 l 301 308 l 261 203 q 246 138 246 161 q 281 83 246 101 q 403 51 315 64 l 403 0 l -28 0 l -28 51 q 51 69 21 60 q 101 94 81 78 q 135 138 121 111 q 165 206 149 164 l 428 875 l 364 1018 l 571 1097 l 968 136 q 988 97 978 113 q 1015 72 999 82 q 1056 58 1031 63 q 1118 51 1081 54 l 1118 0 l 546 0 l 546 51 q 652 65 622 54 q 682 103 682 75 q 669 158 682 125 l 614 308 m 458 717 l 332 388 l 585 388 l 464 717 l 458 717 m 276 1140 q 318 1288 276 1239 q 425 1338 360 1338 q 472 1330 451 1338 q 512 1313 493 1322 q 550 1295 531 1303 q 593 1288 569 1288 q 676 1340 663 1288 l 731 1340 q 695 1192 731 1244 q 589 1139 660 1139 q 539 1147 560 1139 q 499 1166 518 1156 q 461 1185 481 1176 q 415 1193 442 1193 q 357 1178 379 1193 q 331 1140 335 1164 l 276 1140 z "},"B":{"ha":1043,"x_min":58,"x_max":985,"o":"m 526 1069 q 701 1056 632 1069 q 818 1013 771 1042 q 902 925 872 978 q 932 810 932 872 q 865 667 932 725 q 674 586 799 608 l 674 581 q 801 549 744 574 q 899 486 858 525 q 963 396 940 447 q 985 283 985 344 q 958 164 985 219 q 882 72 931 108 q 753 17 829 33 q 551 0 676 0 l 58 0 l 58 51 l 176 82 l 176 989 l 58 1018 l 58 1069 l 526 1069 m 415 607 l 431 607 q 473 608 456 607 q 504 611 490 608 q 633 669 588 619 q 678 804 678 718 q 619 947 678 900 q 440 994 560 994 l 415 994 l 415 607 m 415 532 l 415 157 q 438 91 415 108 q 522 74 461 74 q 675 127 626 74 q 724 296 724 181 q 661 475 724 418 q 467 532 599 532 l 415 532 z "},"C":{"ha":1129,"x_min":63,"x_max":1046,"o":"m 63 528 q 103 752 63 650 q 216 928 143 854 q 389 1042 289 1001 q 610 1083 489 1083 q 783 1061 697 1083 q 938 999 868 1039 l 943 999 l 1004 1069 l 1046 1069 l 1046 729 l 979 729 q 951 797 965 765 q 918 856 936 829 q 803 966 869 931 q 649 1001 736 1001 q 325 542 325 1001 q 406 190 325 310 q 643 69 488 69 q 798 106 729 69 q 914 211 867 143 q 956 290 938 247 q 983 385 974 333 l 1046 385 l 1046 0 l 994 0 l 938 92 q 776 11 856 36 q 606 -14 697 -14 q 385 26 485 -14 q 213 136 285 65 q 102 307 142 207 q 63 528 63 407 z "},"Æ":{"ha":1518,"x_min":-37,"x_max":1463,"o":"m -37 51 q 51 69 15 60 q 112 97 86 79 q 157 140 138 114 q 197 206 176 165 l 619 1007 l 533 1032 l 533 1069 l 1411 1069 l 1438 764 l 1379 764 q 1335 878 1363 819 q 1272 990 1308 936 l 918 990 l 918 603 l 1093 603 q 1153 760 1139 679 l 1211 760 l 1211 371 l 1153 371 q 1093 528 1139 451 l 918 528 l 918 79 l 1264 79 q 1338 199 1308 142 q 1390 325 1367 257 l 1463 325 l 1404 0 l 561 0 l 561 51 l 679 78 l 679 400 l 400 400 l 299 203 q 278 158 286 178 q 271 122 271 138 q 296 76 271 93 q 378 51 321 60 l 378 0 l -37 0 l -37 51 m 679 475 l 679 926 l 674 926 l 439 475 l 679 475 z "},"Ć":{"ha":1129,"x_min":63,"x_max":1046,"o":"m 63 528 q 103 752 63 650 q 216 928 143 854 q 389 1042 289 1001 q 610 1083 489 1083 q 783 1061 697 1083 q 938 999 868 1039 l 943 999 l 1004 1069 l 1046 1069 l 1046 729 l 979 729 q 951 797 965 765 q 918 856 936 829 q 803 966 869 931 q 649 1001 736 1001 q 325 542 325 1001 q 406 190 325 310 q 643 69 488 69 q 798 106 729 69 q 914 211 867 143 q 956 290 938 247 q 983 385 974 333 l 1046 385 l 1046 0 l 994 0 l 938 92 q 776 11 856 36 q 606 -14 697 -14 q 385 26 485 -14 q 213 136 285 65 q 102 307 142 207 q 63 528 63 407 m 447 1174 l 621 1304 q 666 1330 644 1322 q 706 1338 688 1338 q 762 1315 742 1338 q 782 1263 782 1292 q 763 1212 782 1236 q 700 1179 744 1188 l 471 1135 l 447 1174 z "},"Č":{"ha":1129,"x_min":63,"x_max":1046,"o":"m 63 528 q 103 752 63 650 q 216 928 143 854 q 389 1042 289 1001 q 610 1083 489 1083 q 783 1061 697 1083 q 938 999 868 1039 l 943 999 l 1004 1069 l 1046 1069 l 1046 729 l 979 729 q 951 797 965 765 q 918 856 936 829 q 803 966 869 931 q 649 1001 736 1001 q 325 542 325 1001 q 406 190 325 310 q 643 69 488 69 q 798 106 729 69 q 914 211 867 143 q 956 290 938 247 q 983 385 974 333 l 1046 385 l 1046 0 l 994 0 l 938 92 q 776 11 856 36 q 606 -14 697 -14 q 385 26 485 -14 q 213 136 285 65 q 102 307 142 207 q 63 528 63 407 m 636 1154 q 586 1165 608 1154 q 536 1200 564 1176 l 394 1317 l 417 1347 l 635 1290 l 853 1347 l 875 1317 l 731 1200 q 681 1165 703 1176 q 636 1154 660 1154 z "},"Ç":{"ha":1129,"x_min":63,"x_max":1046,"o":"m 482 -261 q 557 -281 519 -281 q 609 -265 589 -281 q 629 -229 629 -249 q 615 -199 629 -210 q 576 -187 600 -187 q 544 -190 563 -187 q 513 -199 526 -193 l 493 -186 l 561 -12 q 358 37 450 -6 q 200 149 265 79 q 99 316 135 219 q 63 528 63 413 q 103 752 63 650 q 216 928 143 854 q 389 1042 289 1001 q 610 1083 489 1083 q 783 1061 697 1083 q 938 999 868 1039 l 943 999 l 1004 1069 l 1046 1069 l 1046 729 l 979 729 q 951 797 965 765 q 918 856 936 829 q 803 966 869 931 q 649 1001 736 1001 q 325 542 325 1001 q 406 190 325 310 q 643 69 488 69 q 798 106 729 69 q 914 211 867 143 q 956 290 938 247 q 983 385 974 333 l 1046 385 l 1046 0 l 994 0 l 938 92 q 792 17 863 42 q 640 -12 721 -8 l 615 -81 q 733 -119 690 -81 q 775 -217 775 -158 q 726 -317 775 -278 q 592 -357 676 -357 q 515 -348 551 -357 q 456 -324 478 -339 l 482 -261 z "},"Ĉ":{"ha":1129,"x_min":63,"x_max":1046,"o":"m 63 528 q 103 752 63 650 q 216 928 143 854 q 389 1042 289 1001 q 610 1083 489 1083 q 783 1061 697 1083 q 938 999 868 1039 l 943 999 l 1004 1069 l 1046 1069 l 1046 729 l 979 729 q 951 797 965 765 q 918 856 936 829 q 803 966 869 931 q 649 1001 736 1001 q 325 542 325 1001 q 406 190 325 310 q 643 69 488 69 q 798 106 729 69 q 914 211 867 143 q 956 290 938 247 q 983 385 974 333 l 1046 385 l 1046 0 l 994 0 l 938 92 q 776 11 856 36 q 606 -14 697 -14 q 385 26 485 -14 q 213 136 285 65 q 102 307 142 207 q 63 528 63 407 m 619 1333 q 665 1322 643 1333 q 714 1288 686 1311 l 858 1171 l 836 1140 l 618 1197 l 400 1140 l 378 1171 l 519 1288 q 569 1322 547 1311 q 619 1333 592 1333 z "},"Ċ":{"ha":1129,"x_min":63,"x_max":1046,"o":"m 63 528 q 103 752 63 650 q 216 928 143 854 q 389 1042 289 1001 q 610 1083 489 1083 q 783 1061 697 1083 q 938 999 868 1039 l 943 999 l 1004 1069 l 1046 1069 l 1046 729 l 979 729 q 951 797 965 765 q 918 856 936 829 q 803 966 869 931 q 649 1001 736 1001 q 325 542 325 1001 q 406 190 325 310 q 643 69 488 69 q 798 106 729 69 q 914 211 867 143 q 956 290 938 247 q 983 385 974 333 l 1046 385 l 1046 0 l 994 0 l 938 92 q 776 11 856 36 q 606 -14 697 -14 q 385 26 485 -14 q 213 136 285 65 q 102 307 142 207 q 63 528 63 407 m 524 1247 q 549 1313 524 1283 q 622 1342 575 1342 q 697 1313 669 1342 q 724 1247 724 1283 q 698 1182 724 1211 q 622 1153 672 1153 q 549 1182 574 1153 q 524 1247 524 1211 z "},"D":{"ha":1219,"x_min":57,"x_max":1156,"o":"m 57 0 l 57 53 l 176 79 l 176 992 l 57 1018 l 57 1069 l 436 1069 q 600 1064 526 1069 q 733 1047 674 1058 q 842 1015 793 1035 q 933 968 892 996 q 1096 790 1036 900 q 1156 536 1156 679 q 1092 269 1156 389 q 922 82 1029 150 q 851 44 888 60 q 772 19 814 29 q 680 5 729 10 q 572 0 631 0 l 57 0 m 557 75 q 799 168 719 75 q 867 315 846 224 q 889 536 889 406 q 867 749 889 664 q 799 892 846 835 q 540 992 717 992 l 415 992 l 415 158 q 448 94 415 114 q 557 75 481 75 z "},"Ď":{"ha":1219,"x_min":57,"x_max":1156,"o":"m 57 0 l 57 53 l 176 79 l 176 992 l 57 1018 l 57 1069 l 436 1069 q 600 1064 526 1069 q 733 1047 674 1058 q 842 1015 793 1035 q 933 968 892 996 q 1096 790 1036 900 q 1156 536 1156 679 q 1092 269 1156 389 q 922 82 1029 150 q 851 44 888 60 q 772 19 814 29 q 680 5 729 10 q 572 0 631 0 l 57 0 m 557 75 q 799 168 719 75 q 867 315 846 224 q 889 536 889 406 q 867 749 889 664 q 799 892 846 835 q 540 992 717 992 l 415 992 l 415 158 q 448 94 415 114 q 557 75 481 75 m 589 1140 q 539 1151 561 1140 q 489 1186 517 1163 l 347 1303 l 369 1333 l 588 1276 l 806 1333 l 828 1303 l 683 1186 q 634 1151 656 1163 q 589 1140 613 1140 z "},"Đ":{"ha":1219,"x_min":57,"x_max":1156,"o":"m 57 0 l 57 53 l 176 79 l 176 492 l 72 492 l 72 610 l 176 610 l 176 992 l 57 1018 l 57 1069 l 436 1069 q 600 1064 526 1069 q 733 1047 674 1058 q 842 1015 793 1035 q 933 968 892 996 q 1096 790 1036 900 q 1156 536 1156 679 q 1092 269 1156 389 q 922 82 1029 150 q 851 44 888 60 q 772 19 814 29 q 680 5 729 10 q 572 0 631 0 l 57 0 m 557 75 q 799 168 719 75 q 867 315 846 224 q 889 536 889 406 q 867 749 889 664 q 799 892 846 835 q 540 992 717 992 l 415 992 l 415 610 l 610 610 l 610 492 l 415 492 l 415 158 q 448 94 415 114 q 557 75 481 75 z "},"Ḍ":{"ha":1219,"x_min":57,"x_max":1156,"o":"m 57 0 l 57 53 l 176 79 l 176 992 l 57 1018 l 57 1069 l 436 1069 q 600 1064 526 1069 q 733 1047 674 1058 q 842 1015 793 1035 q 933 968 892 996 q 1096 790 1036 900 q 1156 536 1156 679 q 1092 269 1156 389 q 922 82 1029 150 q 851 44 888 60 q 772 19 814 29 q 680 5 729 10 q 572 0 631 0 l 57 0 m 557 75 q 799 168 719 75 q 867 315 846 224 q 889 536 889 406 q 867 749 889 664 q 799 892 846 835 q 540 992 717 992 l 415 992 l 415 158 q 448 94 415 114 q 557 75 481 75 m 456 -247 q 487 -167 456 -201 q 575 -132 518 -132 q 666 -167 633 -132 q 699 -247 699 -201 q 667 -326 699 -290 q 575 -361 636 -361 q 486 -326 517 -361 q 456 -247 456 -290 z "},"E":{"ha":1015,"x_min":58,"x_max":960,"o":"m 415 990 l 415 603 l 590 603 q 628 681 614 642 q 650 760 642 721 l 708 760 l 708 371 l 650 371 q 627 449 642 410 q 590 528 613 489 l 415 528 l 415 79 l 761 79 q 834 202 806 142 q 888 325 863 263 l 960 325 l 901 0 l 58 0 l 58 51 l 176 78 l 176 992 l 58 1018 l 58 1069 l 908 1069 l 935 764 l 876 764 q 831 877 857 818 q 769 990 806 936 l 415 990 z "},"É":{"ha":1015,"x_min":58,"x_max":960,"o":"m 415 990 l 415 603 l 590 603 q 628 681 614 642 q 650 760 642 721 l 708 760 l 708 371 l 650 371 q 627 449 642 410 q 590 528 613 489 l 415 528 l 415 79 l 761 79 q 834 202 806 142 q 888 325 863 263 l 960 325 l 901 0 l 58 0 l 58 51 l 176 78 l 176 992 l 58 1018 l 58 1069 l 908 1069 l 935 764 l 876 764 q 831 877 857 818 q 769 990 806 936 l 415 990 m 371 1174 l 544 1304 q 590 1330 568 1322 q 629 1338 611 1338 q 685 1315 665 1338 q 706 1263 706 1292 q 687 1212 706 1236 q 624 1179 668 1188 l 394 1135 l 371 1174 z "},"Ĕ":{"ha":1015,"x_min":58,"x_max":960,"o":"m 415 990 l 415 603 l 590 603 q 628 681 614 642 q 650 760 642 721 l 708 760 l 708 371 l 650 371 q 627 449 642 410 q 590 528 613 489 l 415 528 l 415 79 l 761 79 q 834 202 806 142 q 888 325 863 263 l 960 325 l 901 0 l 58 0 l 58 51 l 176 78 l 176 992 l 58 1018 l 58 1069 l 908 1069 l 935 764 l 876 764 q 831 877 857 818 q 769 990 806 936 l 415 990 m 382 1340 q 438 1306 399 1317 q 522 1296 476 1296 q 605 1306 567 1296 q 667 1340 643 1317 l 735 1340 q 690 1239 717 1276 q 632 1182 663 1201 q 571 1157 601 1163 q 517 1151 540 1151 q 451 1161 485 1151 q 388 1193 417 1171 q 339 1251 360 1215 q 313 1340 318 1288 l 382 1340 z "},"Ě":{"ha":1015,"x_min":58,"x_max":960,"o":"m 415 990 l 415 603 l 590 603 q 628 681 614 642 q 650 760 642 721 l 708 760 l 708 371 l 650 371 q 627 449 642 410 q 590 528 613 489 l 415 528 l 415 79 l 761 79 q 834 202 806 142 q 888 325 863 263 l 960 325 l 901 0 l 58 0 l 58 51 l 176 78 l 176 992 l 58 1018 l 58 1069 l 908 1069 l 935 764 l 876 764 q 831 877 857 818 q 769 990 806 936 l 415 990 m 531 1140 q 481 1151 503 1140 q 431 1186 458 1163 l 289 1303 l 311 1333 l 529 1276 l 747 1333 l 769 1303 l 625 1186 q 576 1151 597 1163 q 531 1140 554 1140 z "},"Ê":{"ha":1015,"x_min":58,"x_max":960,"o":"m 415 990 l 415 603 l 590 603 q 628 681 614 642 q 650 760 642 721 l 708 760 l 708 371 l 650 371 q 627 449 642 410 q 590 528 613 489 l 415 528 l 415 79 l 761 79 q 834 202 806 142 q 888 325 863 263 l 960 325 l 901 0 l 58 0 l 58 51 l 176 78 l 176 992 l 58 1018 l 58 1069 l 908 1069 l 935 764 l 876 764 q 831 877 857 818 q 769 990 806 936 l 415 990 m 528 1333 q 573 1322 551 1333 q 622 1288 594 1311 l 767 1171 l 744 1140 l 526 1197 l 308 1140 l 286 1171 l 428 1288 q 478 1322 456 1311 q 528 1333 500 1333 z "},"Ë":{"ha":1015,"x_min":58,"x_max":960,"o":"m 415 990 l 415 603 l 590 603 q 628 681 614 642 q 650 760 642 721 l 708 760 l 708 371 l 650 371 q 627 449 642 410 q 590 528 613 489 l 415 528 l 415 79 l 761 79 q 834 202 806 142 q 888 325 863 263 l 960 325 l 901 0 l 58 0 l 58 51 l 176 78 l 176 992 l 58 1018 l 58 1069 l 908 1069 l 935 764 l 876 764 q 831 877 857 818 q 769 990 806 936 l 415 990 m 271 1246 q 297 1313 271 1283 q 369 1342 322 1342 q 444 1313 417 1342 q 471 1246 471 1283 q 445 1183 471 1213 q 369 1153 419 1153 q 296 1183 321 1153 q 271 1246 271 1213 m 558 1246 q 584 1313 558 1283 q 657 1342 610 1342 q 731 1313 704 1342 q 758 1246 758 1283 q 733 1183 758 1213 q 657 1153 708 1153 q 583 1183 608 1153 q 558 1246 558 1213 z "},"Ė":{"ha":1015,"x_min":58,"x_max":960,"o":"m 415 990 l 415 603 l 590 603 q 628 681 614 642 q 650 760 642 721 l 708 760 l 708 371 l 650 371 q 627 449 642 410 q 590 528 613 489 l 415 528 l 415 79 l 761 79 q 834 202 806 142 q 888 325 863 263 l 960 325 l 901 0 l 58 0 l 58 51 l 176 78 l 176 992 l 58 1018 l 58 1069 l 908 1069 l 935 764 l 876 764 q 831 877 857 818 q 769 990 806 936 l 415 990 m 431 1247 q 456 1313 431 1283 q 529 1342 482 1342 q 603 1313 576 1342 q 631 1247 631 1283 q 605 1182 631 1211 q 529 1153 579 1153 q 456 1182 481 1153 q 431 1247 431 1211 z "},"Ẹ":{"ha":1015,"x_min":58,"x_max":960,"o":"m 415 990 l 415 603 l 590 603 q 628 681 614 642 q 650 760 642 721 l 708 760 l 708 371 l 650 371 q 627 449 642 410 q 590 528 613 489 l 415 528 l 415 79 l 761 79 q 834 202 806 142 q 888 325 863 263 l 960 325 l 901 0 l 58 0 l 58 51 l 176 78 l 176 992 l 58 1018 l 58 1069 l 908 1069 l 935 764 l 876 764 q 831 877 857 818 q 769 990 806 936 l 415 990 m 413 -247 q 444 -167 413 -201 q 532 -132 475 -132 q 623 -167 590 -132 q 656 -247 656 -201 q 624 -326 656 -290 q 532 -361 593 -361 q 443 -326 474 -361 q 413 -247 413 -290 z "},"È":{"ha":1015,"x_min":58,"x_max":960,"o":"m 415 990 l 415 603 l 590 603 q 628 681 614 642 q 650 760 642 721 l 708 760 l 708 371 l 650 371 q 627 449 642 410 q 590 528 613 489 l 415 528 l 415 79 l 761 79 q 834 202 806 142 q 888 325 863 263 l 960 325 l 901 0 l 58 0 l 58 51 l 176 78 l 176 992 l 58 1018 l 58 1069 l 908 1069 l 935 764 l 876 764 q 831 877 857 818 q 769 990 806 936 l 415 990 m 639 1135 l 410 1179 q 347 1212 365 1188 q 328 1263 328 1236 q 348 1315 328 1292 q 404 1338 368 1338 q 444 1330 422 1338 q 489 1304 465 1322 l 663 1174 l 639 1135 z "},"Ē":{"ha":1015,"x_min":58,"x_max":960,"o":"m 415 990 l 415 603 l 590 603 q 628 681 614 642 q 650 760 642 721 l 708 760 l 708 371 l 650 371 q 627 449 642 410 q 590 528 613 489 l 415 528 l 415 79 l 761 79 q 834 202 806 142 q 888 325 863 263 l 960 325 l 901 0 l 58 0 l 58 51 l 176 78 l 176 992 l 58 1018 l 58 1069 l 908 1069 l 935 764 l 876 764 q 831 877 857 818 q 769 990 806 936 l 415 990 m 315 1200 l 315 1333 l 742 1333 l 742 1200 l 315 1200 z "},"Ŋ":{"ha":1218,"x_min":54,"x_max":1176,"o":"m 1053 194 q 1051 39 1053 100 q 1045 -62 1050 -22 q 1031 -129 1040 -103 q 1006 -182 1021 -156 q 942 -260 979 -226 q 860 -317 904 -294 q 767 -350 817 -339 q 669 -361 718 -361 q 496 -321 557 -361 q 435 -212 435 -281 q 464 -133 435 -160 q 535 -107 493 -107 q 599 -131 576 -107 q 636 -193 622 -156 q 669 -261 651 -240 q 714 -282 688 -282 q 785 -227 756 -282 q 814 -60 814 -172 l 814 167 l 274 847 l 274 78 l 396 51 l 396 0 l 54 0 l 54 51 l 178 78 l 178 992 l 56 1018 l 56 1069 l 432 1069 l 957 410 l 957 992 l 835 1018 l 835 1069 l 1176 1069 l 1176 1018 l 1053 992 l 1053 194 z "},"Ę":{"ha":1015,"x_min":58,"x_max":960,"o":"m 892 -281 q 711 -356 815 -356 q 608 -323 646 -356 q 569 -233 569 -290 q 611 -118 569 -179 q 728 0 653 -57 l 58 0 l 58 51 l 176 78 l 176 992 l 58 1018 l 58 1069 l 908 1069 l 935 764 l 876 764 q 831 877 857 818 q 769 990 806 936 l 415 990 l 415 603 l 590 603 q 628 681 614 642 q 650 760 642 721 l 708 760 l 708 371 l 650 371 q 627 449 642 410 q 590 528 613 489 l 415 528 l 415 79 l 761 79 q 834 202 806 142 q 888 325 863 263 l 960 325 l 901 0 l 814 0 q 726 -172 726 -96 q 793 -251 726 -251 q 830 -244 813 -251 q 871 -222 847 -237 l 892 -281 z "},"Ð":{"ha":1219,"x_min":57,"x_max":1156,"o":"m 57 0 l 57 53 l 176 79 l 176 492 l 72 492 l 72 610 l 176 610 l 176 992 l 57 1018 l 57 1069 l 436 1069 q 600 1064 526 1069 q 733 1047 674 1058 q 842 1015 793 1035 q 933 968 892 996 q 1096 790 1036 900 q 1156 536 1156 679 q 1092 269 1156 389 q 922 82 1029 150 q 851 44 888 60 q 772 19 814 29 q 680 5 729 10 q 572 0 631 0 l 57 0 m 557 75 q 799 168 719 75 q 867 315 846 224 q 889 536 889 406 q 867 749 889 664 q 799 892 846 835 q 540 992 717 992 l 415 992 l 415 610 l 610 610 l 610 492 l 415 492 l 415 158 q 448 94 415 114 q 557 75 481 75 z "},"Ẽ":{"ha":1015,"x_min":58,"x_max":960,"o":"m 415 990 l 415 603 l 590 603 q 628 681 614 642 q 650 760 642 721 l 708 760 l 708 371 l 650 371 q 627 449 642 410 q 590 528 613 489 l 415 528 l 415 79 l 761 79 q 834 202 806 142 q 888 325 863 263 l 960 325 l 901 0 l 58 0 l 58 51 l 176 78 l 176 992 l 58 1018 l 58 1069 l 908 1069 l 935 764 l 876 764 q 831 877 857 818 q 769 990 806 936 l 415 990 m 297 1140 q 339 1288 297 1239 q 446 1338 381 1338 q 493 1330 472 1338 q 533 1313 514 1322 q 571 1295 551 1303 q 614 1288 590 1288 q 697 1340 683 1288 l 751 1340 q 716 1192 751 1244 q 610 1139 681 1139 q 560 1147 581 1139 q 520 1166 539 1156 q 482 1185 501 1176 q 436 1193 463 1193 q 378 1178 400 1193 q 351 1140 356 1164 l 297 1140 z "},"€":{"ha":893,"x_min":47,"x_max":817,"o":"m 411 403 q 424 243 415 307 q 449 140 433 179 q 485 85 464 101 q 536 68 507 68 q 580 79 563 68 q 610 108 597 90 q 630 149 622 126 q 643 193 638 171 q 651 222 646 206 q 667 252 657 238 q 695 277 678 267 q 740 288 713 288 q 817 201 817 288 q 795 117 817 156 q 736 49 774 78 q 649 3 699 19 q 543 -14 599 -14 q 404 16 468 -14 q 292 101 340 46 q 210 233 243 156 q 164 403 178 310 l 47 403 l 61 492 l 156 492 l 156 529 q 156 550 156 540 q 157 571 156 560 l 75 571 l 89 660 l 165 660 q 213 832 179 754 q 296 966 246 910 q 410 1053 346 1022 q 549 1083 474 1083 q 652 1067 603 1083 q 738 1024 701 1051 q 795 958 774 996 q 817 879 817 921 q 797 817 817 839 q 742 794 776 794 q 703 803 718 794 q 677 826 688 813 q 660 856 667 839 q 650 889 654 872 q 617 971 638 942 q 551 1000 596 1000 q 497 984 521 1000 q 456 930 474 968 q 428 826 439 892 q 413 660 417 760 l 688 660 l 674 571 l 410 571 l 410 492 l 660 492 l 646 403 l 411 403 z "},"F":{"ha":950,"x_min":58,"x_max":932,"o":"m 414 990 l 414 603 l 601 603 q 633 681 621 643 q 653 760 646 719 l 707 760 l 707 371 l 653 371 q 601 529 638 453 l 414 529 l 414 78 l 572 51 l 572 0 l 58 0 l 58 51 l 176 78 l 176 992 l 58 1018 l 58 1069 l 908 1069 l 932 764 l 878 764 q 837 877 861 818 q 778 990 813 936 l 414 990 z "},"G":{"ha":1188,"x_min":63,"x_max":1164,"o":"m 1040 113 q 958 62 1007 85 q 849 22 908 39 q 726 -4 790 6 q 603 -14 663 -14 q 381 24 481 -14 q 211 132 282 63 q 101 300 140 201 q 63 518 63 399 q 103 747 63 643 q 219 925 144 850 q 395 1042 293 1000 q 619 1083 497 1083 q 794 1061 713 1083 q 926 999 875 1039 l 932 999 l 993 1069 l 1038 1069 l 1038 729 l 975 729 q 903 856 939 804 q 829 939 868 907 q 745 985 790 971 q 644 1000 700 1000 q 329 524 329 1000 q 346 317 329 404 q 396 175 363 231 q 481 93 429 119 q 603 67 532 67 q 713 88 664 67 q 786 146 761 110 q 799 175 796 160 q 801 224 801 190 l 801 458 l 676 485 l 676 536 l 1164 536 l 1164 485 l 1040 458 l 1040 113 z "},"Ğ":{"ha":1188,"x_min":63,"x_max":1164,"o":"m 1040 113 q 958 62 1007 85 q 849 22 908 39 q 726 -4 790 6 q 603 -14 663 -14 q 381 24 481 -14 q 211 132 282 63 q 101 300 140 201 q 63 518 63 399 q 103 747 63 643 q 219 925 144 850 q 395 1042 293 1000 q 619 1083 497 1083 q 794 1061 713 1083 q 926 999 875 1039 l 932 999 l 993 1069 l 1038 1069 l 1038 729 l 975 729 q 903 856 939 804 q 829 939 868 907 q 745 985 790 971 q 644 1000 700 1000 q 329 524 329 1000 q 346 317 329 404 q 396 175 363 231 q 481 93 429 119 q 603 67 532 67 q 713 88 664 67 q 786 146 761 110 q 799 175 796 160 q 801 224 801 190 l 801 458 l 676 485 l 676 536 l 1164 536 l 1164 485 l 1040 458 l 1040 113 m 481 1340 q 536 1306 497 1317 q 621 1296 575 1296 q 703 1306 665 1296 q 765 1340 742 1317 l 833 1340 q 788 1239 815 1276 q 731 1182 761 1201 q 669 1157 700 1163 q 615 1151 639 1151 q 549 1161 583 1151 q 487 1193 515 1171 q 438 1251 458 1215 q 411 1340 417 1288 l 481 1340 z "},"Ĝ":{"ha":1188,"x_min":63,"x_max":1164,"o":"m 1040 113 q 958 62 1007 85 q 849 22 908 39 q 726 -4 790 6 q 603 -14 663 -14 q 381 24 481 -14 q 211 132 282 63 q 101 300 140 201 q 63 518 63 399 q 103 747 63 643 q 219 925 144 850 q 395 1042 293 1000 q 619 1083 497 1083 q 794 1061 713 1083 q 926 999 875 1039 l 932 999 l 993 1069 l 1038 1069 l 1038 729 l 975 729 q 903 856 939 804 q 829 939 868 907 q 745 985 790 971 q 644 1000 700 1000 q 329 524 329 1000 q 346 317 329 404 q 396 175 363 231 q 481 93 429 119 q 603 67 532 67 q 713 88 664 67 q 786 146 761 110 q 799 175 796 160 q 801 224 801 190 l 801 458 l 676 485 l 676 536 l 1164 536 l 1164 485 l 1040 458 l 1040 113 m 621 1333 q 666 1322 644 1333 q 715 1288 688 1311 l 860 1171 l 838 1140 l 619 1197 l 401 1140 l 379 1171 l 521 1288 q 571 1322 549 1311 q 621 1333 593 1333 z "},"Ģ":{"ha":1188,"x_min":63,"x_max":1164,"o":"m 1040 113 q 958 62 1007 85 q 849 22 908 39 q 726 -4 790 6 q 603 -14 663 -14 q 381 24 481 -14 q 211 132 282 63 q 101 300 140 201 q 63 518 63 399 q 103 747 63 643 q 219 925 144 850 q 395 1042 293 1000 q 619 1083 497 1083 q 794 1061 713 1083 q 926 999 875 1039 l 932 999 l 993 1069 l 1038 1069 l 1038 729 l 975 729 q 903 856 939 804 q 829 939 868 907 q 745 985 790 971 q 644 1000 700 1000 q 329 524 329 1000 q 346 317 329 404 q 396 175 363 231 q 481 93 429 119 q 603 67 532 67 q 713 88 664 67 q 786 146 761 110 q 799 175 796 160 q 801 224 801 190 l 801 458 l 676 485 l 676 536 l 1164 536 l 1164 485 l 1040 458 l 1040 113 m 522 -328 q 556 -285 543 -308 q 569 -247 569 -262 q 559 -223 569 -232 q 537 -204 549 -214 q 515 -181 525 -194 q 504 -146 504 -168 q 531 -93 504 -114 q 597 -72 557 -72 q 667 -101 642 -72 q 692 -181 692 -131 q 656 -286 692 -239 q 554 -361 621 -333 l 522 -328 z "},"Ġ":{"ha":1188,"x_min":63,"x_max":1164,"o":"m 1040 113 q 958 62 1007 85 q 849 22 908 39 q 726 -4 790 6 q 603 -14 663 -14 q 381 24 481 -14 q 211 132 282 63 q 101 300 140 201 q 63 518 63 399 q 103 747 63 643 q 219 925 144 850 q 395 1042 293 1000 q 619 1083 497 1083 q 794 1061 713 1083 q 926 999 875 1039 l 932 999 l 993 1069 l 1038 1069 l 1038 729 l 975 729 q 903 856 939 804 q 829 939 868 907 q 745 985 790 971 q 644 1000 700 1000 q 329 524 329 1000 q 346 317 329 404 q 396 175 363 231 q 481 93 429 119 q 603 67 532 67 q 713 88 664 67 q 786 146 761 110 q 799 175 796 160 q 801 224 801 190 l 801 458 l 676 485 l 676 536 l 1164 536 l 1164 485 l 1040 458 l 1040 113 m 526 1247 q 552 1313 526 1283 q 625 1342 578 1342 q 699 1313 672 1342 q 726 1247 726 1283 q 701 1182 726 1211 q 625 1153 675 1153 q 551 1182 576 1153 q 526 1247 526 1211 z "},"H":{"ha":1282,"x_min":58,"x_max":1224,"o":"m 868 525 l 415 525 l 415 81 l 532 51 l 532 0 l 58 0 l 58 51 l 176 81 l 176 990 l 58 1018 l 58 1069 l 532 1069 l 532 1018 l 415 990 l 415 604 l 868 604 l 868 990 l 750 1018 l 750 1069 l 1224 1069 l 1224 1018 l 1107 990 l 1107 81 l 1224 51 l 1224 0 l 750 0 l 750 51 l 868 81 l 868 525 z "},"Ħ":{"ha":1285,"x_min":60,"x_max":1225,"o":"m 178 746 l 74 746 l 74 850 l 178 850 l 178 990 l 60 1018 l 60 1069 l 533 1069 l 533 1018 l 417 990 l 417 850 l 869 850 l 869 990 l 751 1018 l 751 1069 l 1225 1069 l 1225 1018 l 1108 990 l 1108 850 l 1215 850 l 1215 746 l 1108 746 l 1108 81 l 1225 51 l 1225 0 l 751 0 l 751 51 l 869 81 l 869 525 l 417 525 l 417 81 l 533 51 l 533 0 l 60 0 l 60 51 l 178 81 l 178 746 m 417 604 l 869 604 l 869 746 l 417 746 l 417 604 z "},"Ĥ":{"ha":1282,"x_min":58,"x_max":1224,"o":"m 868 525 l 415 525 l 415 81 l 532 51 l 532 0 l 58 0 l 58 51 l 176 81 l 176 990 l 58 1018 l 58 1069 l 532 1069 l 532 1018 l 415 990 l 415 604 l 868 604 l 868 990 l 750 1018 l 750 1069 l 1224 1069 l 1224 1018 l 1107 990 l 1107 81 l 1224 51 l 1224 0 l 750 0 l 750 51 l 868 81 l 868 525 m 640 1333 q 685 1322 664 1333 q 735 1288 707 1311 l 879 1171 l 857 1140 l 639 1197 l 421 1140 l 399 1171 l 540 1288 q 590 1322 568 1311 q 640 1333 613 1333 z "},"Ḥ":{"ha":1282,"x_min":58,"x_max":1224,"o":"m 868 525 l 415 525 l 415 81 l 532 51 l 532 0 l 58 0 l 58 51 l 176 81 l 176 990 l 58 1018 l 58 1069 l 532 1069 l 532 1018 l 415 990 l 415 604 l 868 604 l 868 990 l 750 1018 l 750 1069 l 1224 1069 l 1224 1018 l 1107 990 l 1107 81 l 1224 51 l 1224 0 l 750 0 l 750 51 l 868 81 l 868 525 m 521 -247 q 552 -167 521 -201 q 640 -132 583 -132 q 731 -167 699 -132 q 764 -247 764 -201 q 733 -326 764 -290 q 640 -361 701 -361 q 551 -326 582 -361 q 521 -247 521 -290 z "},"I":{"ha":590,"x_min":58,"x_max":532,"o":"m 176 990 l 58 1018 l 58 1069 l 532 1069 l 532 1018 l 415 990 l 415 81 l 532 51 l 532 0 l 58 0 l 58 51 l 176 81 l 176 990 z "},"Ĳ":{"ha":1158,"x_min":58,"x_max":1111,"o":"m 176 990 l 58 1018 l 58 1069 l 532 1069 l 532 1018 l 415 990 l 415 81 l 532 51 l 532 0 l 58 0 l 58 51 l 176 81 l 176 990 m 994 215 q 993 49 994 113 q 986 -58 992 -15 q 972 -127 981 -100 q 947 -182 963 -154 q 801 -315 892 -269 q 611 -361 710 -361 q 438 -321 499 -361 q 376 -212 376 -281 q 406 -133 376 -160 q 476 -107 435 -107 q 542 -131 519 -107 q 578 -193 564 -156 q 612 -261 593 -240 q 656 -282 631 -282 q 726 -227 697 -282 q 756 -60 756 -172 l 756 990 l 638 1018 l 638 1069 l 1111 1069 l 1111 1018 l 994 990 l 994 215 z "},"Í":{"ha":590,"x_min":58,"x_max":532,"o":"m 176 990 l 58 1018 l 58 1069 l 532 1069 l 532 1018 l 415 990 l 415 81 l 532 51 l 532 0 l 58 0 l 58 51 l 176 81 l 176 990 m 135 1176 l 308 1307 q 353 1333 332 1325 q 393 1340 375 1340 q 449 1317 429 1340 q 469 1265 469 1294 q 451 1215 469 1239 q 388 1182 432 1190 l 158 1138 l 135 1176 z "},"Ĭ":{"ha":590,"x_min":58,"x_max":532,"o":"m 176 990 l 58 1018 l 58 1069 l 532 1069 l 532 1018 l 415 990 l 415 81 l 532 51 l 532 0 l 58 0 l 58 51 l 176 81 l 176 990 m 161 1340 q 217 1306 178 1317 q 301 1296 256 1296 q 384 1306 346 1296 q 446 1340 422 1317 l 514 1340 q 469 1239 496 1276 q 411 1182 442 1201 q 350 1157 381 1163 q 296 1151 319 1151 q 230 1161 264 1151 q 167 1193 196 1171 q 118 1251 139 1215 q 92 1340 97 1288 l 161 1340 z "},"Î":{"ha":590,"x_min":58,"x_max":540,"o":"m 176 990 l 58 1018 l 58 1069 l 532 1069 l 532 1018 l 415 990 l 415 81 l 532 51 l 532 0 l 58 0 l 58 51 l 176 81 l 176 990 m 301 1335 q 347 1324 325 1335 q 396 1289 368 1313 l 540 1172 l 518 1142 l 300 1199 l 82 1142 l 60 1172 l 201 1289 q 251 1324 229 1313 q 301 1335 274 1335 z "},"Ï":{"ha":590,"x_min":51,"x_max":539,"o":"m 176 990 l 58 1018 l 58 1069 l 532 1069 l 532 1018 l 415 990 l 415 81 l 532 51 l 532 0 l 58 0 l 58 51 l 176 81 l 176 990 m 51 1244 q 77 1311 51 1282 q 150 1340 103 1340 q 224 1311 197 1340 q 251 1244 251 1282 q 226 1181 251 1211 q 150 1151 200 1151 q 76 1181 101 1151 q 51 1244 51 1211 m 339 1244 q 365 1311 339 1282 q 438 1340 390 1340 q 512 1311 485 1340 q 539 1244 539 1282 q 514 1181 539 1211 q 438 1151 489 1151 q 364 1181 389 1151 q 339 1244 339 1211 z "},"İ":{"ha":590,"x_min":58,"x_max":532,"o":"m 176 990 l 58 1018 l 58 1069 l 532 1069 l 532 1018 l 415 990 l 415 81 l 532 51 l 532 0 l 58 0 l 58 51 l 176 81 l 176 990 m 199 1247 q 224 1313 199 1283 q 297 1342 250 1342 q 372 1313 344 1342 q 399 1247 399 1283 q 373 1182 399 1211 q 297 1153 347 1153 q 224 1182 249 1153 q 199 1247 199 1211 z "},"Ị":{"ha":590,"x_min":58,"x_max":532,"o":"m 176 990 l 58 1018 l 58 1069 l 532 1069 l 532 1018 l 415 990 l 415 81 l 532 51 l 532 0 l 58 0 l 58 51 l 176 81 l 176 990 m 176 -247 q 208 -167 176 -201 q 296 -132 239 -132 q 387 -167 354 -132 q 419 -247 419 -201 q 388 -326 419 -290 q 296 -361 357 -361 q 207 -326 238 -361 q 176 -247 176 -290 z "},"Ì":{"ha":590,"x_min":58,"x_max":532,"o":"m 176 990 l 58 1018 l 58 1069 l 532 1069 l 532 1018 l 415 990 l 415 81 l 532 51 l 532 0 l 58 0 l 58 51 l 176 81 l 176 990 m 444 1135 l 215 1179 q 152 1212 171 1188 q 133 1263 133 1236 q 153 1315 133 1292 q 210 1338 174 1338 q 249 1330 228 1338 q 294 1304 271 1322 l 468 1174 l 444 1135 z "},"Ī":{"ha":590,"x_min":58,"x_max":532,"o":"m 176 990 l 58 1018 l 58 1069 l 532 1069 l 532 1018 l 415 990 l 415 81 l 532 51 l 532 0 l 58 0 l 58 51 l 176 81 l 176 990 m 83 1200 l 83 1333 l 510 1333 l 510 1200 l 83 1200 z "},"Į":{"ha":590,"x_min":58,"x_max":532,"o":"m 414 -281 q 233 -356 338 -356 q 130 -323 168 -356 q 92 -233 92 -290 q 133 -118 92 -179 q 250 0 175 -57 l 58 0 l 58 51 l 176 81 l 176 990 l 58 1018 l 58 1069 l 532 1069 l 532 1018 l 415 990 l 415 81 l 532 51 l 532 0 l 336 0 q 249 -172 249 -96 q 315 -251 249 -251 q 352 -244 335 -251 q 393 -222 369 -237 l 414 -281 z "},"Ĩ":{"ha":590,"x_min":58,"x_max":532,"o":"m 176 990 l 58 1018 l 58 1069 l 532 1069 l 532 1018 l 415 990 l 415 81 l 532 51 l 532 0 l 58 0 l 58 51 l 176 81 l 176 990 m 72 1140 q 114 1288 72 1239 q 221 1338 156 1338 q 268 1330 247 1338 q 308 1313 289 1322 q 346 1295 326 1303 q 389 1288 365 1288 q 472 1340 458 1288 l 526 1340 q 491 1192 526 1244 q 385 1139 456 1139 q 335 1147 356 1139 q 295 1166 314 1156 q 257 1185 276 1176 q 211 1193 238 1193 q 153 1178 175 1193 q 126 1140 131 1164 l 72 1140 z "},"J":{"ha":568,"x_min":-214,"x_max":521,"o":"m 404 215 q 403 49 404 113 q 396 -58 401 -15 q 381 -127 390 -100 q 357 -182 372 -154 q 210 -315 301 -269 q 21 -361 119 -361 q -153 -321 -92 -361 q -214 -212 -214 -281 q -185 -133 -214 -160 q -114 -107 -156 -107 q -49 -131 -71 -107 q -12 -193 -26 -156 q 22 -261 3 -240 q 65 -282 40 -282 q 136 -227 107 -282 q 165 -60 165 -172 l 165 990 l 47 1018 l 47 1069 l 521 1069 l 521 1018 l 404 990 l 404 215 z "},"Ĵ":{"ha":568,"x_min":-214,"x_max":529,"o":"m 404 215 q 403 49 404 113 q 396 -58 401 -15 q 381 -127 390 -100 q 357 -182 372 -154 q 210 -315 301 -269 q 21 -361 119 -361 q -153 -321 -92 -361 q -214 -212 -214 -281 q -185 -133 -214 -160 q -114 -107 -156 -107 q -49 -131 -71 -107 q -12 -193 -26 -156 q 22 -261 3 -240 q 65 -282 40 -282 q 136 -227 107 -282 q 165 -60 165 -172 l 165 990 l 47 1018 l 47 1069 l 521 1069 l 521 1018 l 404 990 l 404 215 m 290 1333 q 335 1322 314 1333 q 385 1288 357 1311 l 529 1171 l 507 1140 l 289 1197 l 71 1140 l 49 1171 l 190 1288 q 240 1322 218 1311 q 290 1333 263 1333 z "},"K":{"ha":1121,"x_min":58,"x_max":1158,"o":"m 58 51 l 176 81 l 176 990 l 58 1018 l 58 1069 l 532 1069 l 532 1018 l 415 990 l 415 578 l 749 936 q 764 959 760 947 q 768 979 768 971 q 661 1019 768 1015 l 661 1069 l 1060 1069 l 1060 1018 q 979 1003 1011 1010 q 925 986 947 996 q 887 963 903 976 q 854 932 871 950 l 610 665 l 1032 78 l 1158 51 l 1158 0 l 788 0 l 446 488 l 415 456 l 415 81 l 532 51 l 532 0 l 58 0 l 58 51 z "},"Ķ":{"ha":1121,"x_min":58,"x_max":1158,"o":"m 58 51 l 176 81 l 176 990 l 58 1018 l 58 1069 l 532 1069 l 532 1018 l 415 990 l 415 578 l 749 936 q 764 959 760 947 q 768 979 768 971 q 661 1019 768 1015 l 661 1069 l 1060 1069 l 1060 1018 q 979 1003 1011 1010 q 925 986 947 996 q 887 963 903 976 q 854 932 871 950 l 610 665 l 1032 78 l 1158 51 l 1158 0 l 788 0 l 446 488 l 415 456 l 415 81 l 532 51 l 532 0 l 58 0 l 58 51 m 535 -328 q 569 -285 556 -308 q 582 -247 582 -262 q 572 -223 582 -232 q 549 -204 561 -214 q 527 -181 538 -194 q 517 -146 517 -168 q 543 -93 517 -114 q 610 -72 569 -72 q 679 -101 654 -72 q 704 -181 704 -131 q 669 -286 704 -239 q 567 -361 633 -333 l 535 -328 z "},"L":{"ha":971,"x_min":58,"x_max":960,"o":"m 415 990 l 415 79 l 761 79 q 834 202 806 142 q 888 325 863 263 l 960 325 l 901 0 l 58 0 l 58 51 l 176 78 l 176 992 l 58 1018 l 58 1069 l 546 1069 l 546 1018 l 415 990 z "},"Ĺ":{"ha":971,"x_min":58,"x_max":960,"o":"m 415 990 l 415 79 l 761 79 q 834 202 806 142 q 888 325 863 263 l 960 325 l 901 0 l 58 0 l 58 51 l 176 78 l 176 992 l 58 1018 l 58 1069 l 546 1069 l 546 1018 l 415 990 m 140 1174 l 314 1304 q 359 1330 338 1322 q 399 1338 381 1338 q 455 1315 435 1338 q 475 1263 475 1292 q 456 1212 475 1236 q 393 1179 438 1188 l 164 1135 l 140 1174 z "},"Ľ":{"ha":971,"x_min":58,"x_max":960,"o":"m 415 990 l 415 79 l 761 79 q 834 202 806 142 q 888 325 863 263 l 960 325 l 901 0 l 58 0 l 58 51 l 176 78 l 176 992 l 58 1018 l 58 1069 l 546 1069 l 546 1018 l 415 990 m 303 1154 q 253 1165 275 1154 q 203 1200 231 1176 l 61 1317 l 83 1347 l 301 1290 l 519 1347 l 542 1317 l 397 1200 q 348 1165 369 1176 q 303 1154 326 1154 z "},"Ļ":{"ha":971,"x_min":58,"x_max":960,"o":"m 415 990 l 415 79 l 761 79 q 834 202 806 142 q 888 325 863 263 l 960 325 l 901 0 l 58 0 l 58 51 l 176 78 l 176 992 l 58 1018 l 58 1069 l 546 1069 l 546 1018 l 415 990 m 449 -328 q 483 -285 469 -308 q 496 -247 496 -262 q 485 -223 496 -232 q 463 -204 475 -214 q 441 -181 451 -194 q 431 -146 431 -168 q 457 -93 431 -114 q 524 -72 483 -72 q 593 -101 568 -72 q 618 -181 618 -131 q 583 -286 618 -239 q 481 -361 547 -333 l 449 -328 z "},"Ŀ":{"ha":971,"x_min":58,"x_max":960,"o":"m 415 990 l 415 79 l 761 79 q 834 202 806 142 q 888 325 863 263 l 960 325 l 901 0 l 58 0 l 58 51 l 176 78 l 176 992 l 58 1018 l 58 1069 l 546 1069 l 546 1018 l 415 990 m 531 440 q 565 528 531 493 q 653 563 599 563 q 744 528 708 563 q 781 440 781 493 q 745 354 781 388 q 654 321 710 321 q 565 354 599 321 q 531 440 531 388 z "},"Ł":{"ha":972,"x_min":60,"x_max":961,"o":"m 417 990 l 417 692 l 518 746 l 518 614 l 417 560 l 417 79 l 763 79 q 835 202 807 142 q 889 325 864 263 l 961 325 l 903 0 l 60 0 l 60 51 l 178 78 l 178 432 l 85 383 l 85 515 l 178 564 l 178 992 l 60 1018 l 60 1069 l 547 1069 l 547 1018 l 417 990 z "},"M":{"ha":1490,"x_min":54,"x_max":1432,"o":"m 178 992 l 56 1018 l 56 1069 l 476 1069 l 765 353 l 774 353 l 1075 1069 l 1432 1069 l 1432 1018 l 1315 990 l 1315 81 l 1432 51 l 1432 0 l 958 0 l 958 51 l 1076 81 l 1076 825 l 1071 825 l 722 -14 l 656 -14 l 279 863 l 274 863 l 274 78 l 396 51 l 396 0 l 54 0 l 54 51 l 178 78 l 178 992 z "},"N":{"ha":1219,"x_min":54,"x_max":1176,"o":"m 1053 -14 l 957 -14 l 274 847 l 274 78 l 396 51 l 396 0 l 54 0 l 54 51 l 178 78 l 178 992 l 56 1018 l 56 1069 l 432 1069 l 957 410 l 957 992 l 835 1018 l 835 1069 l 1176 1069 l 1176 1018 l 1053 992 l 1053 -14 z "},"A":{"ha":1085,"x_min":-28,"x_max":1118,"o":"m 614 308 l 301 308 l 261 203 q 246 138 246 161 q 281 83 246 101 q 403 51 315 64 l 403 0 l -28 0 l -28 51 q 51 69 21 60 q 101 94 81 78 q 135 138 121 111 q 165 206 149 164 l 428 875 l 364 1018 l 571 1097 l 968 136 q 988 97 978 113 q 1015 72 999 82 q 1056 58 1031 63 q 1118 51 1081 54 l 1118 0 l 546 0 l 546 51 q 652 65 622 54 q 682 103 682 75 q 669 158 682 125 l 614 308 m 458 717 l 332 388 l 585 388 l 464 717 l 458 717 z "},"Ń":{"ha":1219,"x_min":54,"x_max":1176,"o":"m 1053 -14 l 957 -14 l 274 847 l 274 78 l 396 51 l 396 0 l 54 0 l 54 51 l 178 78 l 178 992 l 56 1018 l 56 1069 l 432 1069 l 957 410 l 957 992 l 835 1018 l 835 1069 l 1176 1069 l 1176 1018 l 1053 992 l 1053 -14 m 503 1174 l 676 1304 q 722 1330 700 1322 q 761 1338 743 1338 q 817 1315 797 1338 q 838 1263 838 1292 q 819 1212 838 1236 q 756 1179 800 1188 l 526 1135 l 503 1174 z "},"Ň":{"ha":1219,"x_min":54,"x_max":1176,"o":"m 1053 -14 l 957 -14 l 274 847 l 274 78 l 396 51 l 396 0 l 54 0 l 54 51 l 178 78 l 178 992 l 56 1018 l 56 1069 l 432 1069 l 957 410 l 957 992 l 835 1018 l 835 1069 l 1176 1069 l 1176 1018 l 1053 992 l 1053 -14 m 678 1154 q 628 1165 650 1154 q 578 1200 606 1176 l 436 1317 l 458 1347 l 676 1290 l 894 1347 l 917 1317 l 772 1200 q 723 1165 744 1176 q 678 1154 701 1154 z "},"Ņ":{"ha":1219,"x_min":54,"x_max":1176,"o":"m 1053 -14 l 957 -14 l 274 847 l 274 78 l 396 51 l 396 0 l 54 0 l 54 51 l 178 78 l 178 992 l 56 1018 l 56 1069 l 432 1069 l 957 410 l 957 992 l 835 1018 l 835 1069 l 1176 1069 l 1176 1018 l 1053 992 l 1053 -14 m 567 -328 q 601 -285 588 -308 q 614 -247 614 -262 q 603 -223 614 -232 q 581 -204 593 -214 q 559 -181 569 -194 q 549 -146 549 -168 q 575 -93 549 -114 q 642 -72 601 -72 q 711 -101 686 -72 q 736 -181 736 -131 q 701 -286 736 -239 q 599 -361 665 -333 l 567 -328 z "},"Ṅ":{"ha":1219,"x_min":54,"x_max":1176,"o":"m 1053 -14 l 957 -14 l 274 847 l 274 78 l 396 51 l 396 0 l 54 0 l 54 51 l 178 78 l 178 992 l 56 1018 l 56 1069 l 432 1069 l 957 410 l 957 992 l 835 1018 l 835 1069 l 1176 1069 l 1176 1018 l 1053 992 l 1053 -14 m 569 1247 q 595 1313 569 1283 q 668 1342 621 1342 q 742 1313 715 1342 q 769 1247 769 1283 q 744 1182 769 1211 q 668 1153 718 1153 q 594 1182 619 1153 q 569 1247 569 1211 z "},"Ñ":{"ha":1219,"x_min":54,"x_max":1176,"o":"m 1053 -14 l 957 -14 l 274 847 l 274 78 l 396 51 l 396 0 l 54 0 l 54 51 l 178 78 l 178 992 l 56 1018 l 56 1069 l 432 1069 l 957 410 l 957 992 l 835 1018 l 835 1069 l 1176 1069 l 1176 1018 l 1053 992 l 1053 -14 m 435 1140 q 476 1288 435 1239 q 583 1338 518 1338 q 631 1330 610 1338 q 670 1313 651 1322 q 708 1295 689 1303 q 751 1288 728 1288 q 835 1340 821 1288 l 889 1340 q 853 1192 889 1244 q 747 1139 818 1139 q 697 1147 718 1139 q 658 1166 676 1156 q 619 1185 639 1176 q 574 1193 600 1193 q 515 1178 538 1193 q 489 1140 493 1164 l 435 1140 z "},"O":{"ha":1207,"x_min":63,"x_max":1144,"o":"m 603 1083 q 835 1040 733 1083 q 1005 922 936 997 q 1109 747 1074 847 q 1144 535 1144 647 q 1109 322 1144 422 q 1005 147 1074 222 q 835 29 936 72 q 603 -14 733 -14 q 372 29 472 -14 q 202 147 271 72 q 98 322 133 222 q 63 535 63 422 q 98 747 63 647 q 202 922 133 847 q 372 1040 271 997 q 603 1083 472 1083 m 336 535 q 347 381 336 463 q 386 228 357 299 q 467 113 415 158 q 603 67 519 67 q 740 113 688 67 q 821 228 792 158 q 860 381 850 299 q 871 535 871 463 q 861 688 871 607 q 822 839 851 769 q 740 954 793 908 q 603 1000 688 1000 q 467 954 519 1000 q 386 839 415 908 q 347 688 357 769 q 336 535 336 607 z "},"Œ":{"ha":1628,"x_min":63,"x_max":1572,"o":"m 1028 990 l 1028 603 l 1203 603 q 1240 681 1226 642 q 1263 760 1254 721 l 1321 760 l 1321 371 l 1263 371 q 1240 449 1254 410 q 1203 528 1225 489 l 1028 528 l 1028 79 l 1374 79 q 1447 202 1418 142 q 1500 325 1475 263 l 1572 325 l 1514 0 l 739 0 q 673 -10 707 -7 q 603 -14 639 -14 q 372 29 472 -14 q 202 147 271 72 q 98 322 133 222 q 63 535 63 422 q 98 747 63 647 q 202 922 133 847 q 372 1040 271 997 q 603 1083 472 1083 q 674 1080 639 1083 q 742 1069 710 1076 l 1521 1069 l 1547 764 l 1489 764 q 1444 877 1469 818 q 1382 990 1418 936 l 1028 990 m 603 67 q 713 88 667 67 q 789 143 758 108 l 789 921 q 713 978 758 957 q 603 1000 668 1000 q 467 954 519 1000 q 386 839 415 908 q 347 688 357 769 q 336 535 336 607 q 347 381 336 463 q 386 228 357 299 q 467 113 415 158 q 603 67 519 67 z "},"Ó":{"ha":1207,"x_min":63,"x_max":1144,"o":"m 603 1083 q 835 1040 733 1083 q 1005 922 936 997 q 1109 747 1074 847 q 1144 535 1144 647 q 1109 322 1144 422 q 1005 147 1074 222 q 835 29 936 72 q 603 -14 733 -14 q 372 29 472 -14 q 202 147 271 72 q 98 322 133 222 q 63 535 63 422 q 98 747 63 647 q 202 922 133 847 q 372 1040 271 997 q 603 1083 472 1083 m 336 535 q 347 381 336 463 q 386 228 357 299 q 467 113 415 158 q 603 67 519 67 q 740 113 688 67 q 821 228 792 158 q 860 381 850 299 q 871 535 871 463 q 861 688 871 607 q 822 839 851 769 q 740 954 793 908 q 603 1000 688 1000 q 467 954 519 1000 q 386 839 415 908 q 347 688 357 769 q 336 535 336 607 m 460 1174 l 633 1304 q 678 1330 657 1322 q 718 1338 700 1338 q 774 1315 754 1338 q 794 1263 794 1292 q 776 1212 794 1236 q 713 1179 757 1188 l 483 1135 l 460 1174 z "},"Ŏ":{"ha":1207,"x_min":63,"x_max":1144,"o":"m 603 1083 q 835 1040 733 1083 q 1005 922 936 997 q 1109 747 1074 847 q 1144 535 1144 647 q 1109 322 1144 422 q 1005 147 1074 222 q 835 29 936 72 q 603 -14 733 -14 q 372 29 472 -14 q 202 147 271 72 q 98 322 133 222 q 63 535 63 422 q 98 747 63 647 q 202 922 133 847 q 372 1040 271 997 q 603 1083 472 1083 m 336 535 q 347 381 336 463 q 386 228 357 299 q 467 113 415 158 q 603 67 519 67 q 740 113 688 67 q 821 228 792 158 q 860 381 850 299 q 871 535 871 463 q 861 688 871 607 q 822 839 851 769 q 740 954 793 908 q 603 1000 688 1000 q 467 954 519 1000 q 386 839 415 908 q 347 688 357 769 q 336 535 336 607 m 476 1340 q 532 1306 493 1317 q 617 1296 571 1296 q 699 1306 661 1296 q 761 1340 738 1317 l 829 1340 q 784 1239 811 1276 q 726 1182 757 1201 q 665 1157 696 1163 q 611 1151 635 1151 q 545 1161 579 1151 q 483 1193 511 1171 q 433 1251 454 1215 q 407 1340 413 1288 l 476 1340 z "},"Ô":{"ha":1207,"x_min":63,"x_max":1144,"o":"m 603 1083 q 835 1040 733 1083 q 1005 922 936 997 q 1109 747 1074 847 q 1144 535 1144 647 q 1109 322 1144 422 q 1005 147 1074 222 q 835 29 936 72 q 603 -14 733 -14 q 372 29 472 -14 q 202 147 271 72 q 98 322 133 222 q 63 535 63 422 q 98 747 63 647 q 202 922 133 847 q 372 1040 271 997 q 603 1083 472 1083 m 336 535 q 347 381 336 463 q 386 228 357 299 q 467 113 415 158 q 603 67 519 67 q 740 113 688 67 q 821 228 792 158 q 860 381 850 299 q 871 535 871 463 q 861 688 871 607 q 822 839 851 769 q 740 954 793 908 q 603 1000 688 1000 q 467 954 519 1000 q 386 839 415 908 q 347 688 357 769 q 336 535 336 607 m 617 1333 q 662 1322 640 1333 q 711 1288 683 1311 l 856 1171 l 833 1140 l 615 1197 l 397 1140 l 375 1171 l 517 1288 q 567 1322 544 1311 q 617 1333 589 1333 z "},"Ö":{"ha":1207,"x_min":63,"x_max":1144,"o":"m 603 1083 q 835 1040 733 1083 q 1005 922 936 997 q 1109 747 1074 847 q 1144 535 1144 647 q 1109 322 1144 422 q 1005 147 1074 222 q 835 29 936 72 q 603 -14 733 -14 q 372 29 472 -14 q 202 147 271 72 q 98 322 133 222 q 63 535 63 422 q 98 747 63 647 q 202 922 133 847 q 372 1040 271 997 q 603 1083 472 1083 m 336 535 q 347 381 336 463 q 386 228 357 299 q 467 113 415 158 q 603 67 519 67 q 740 113 688 67 q 821 228 792 158 q 860 381 850 299 q 871 535 871 463 q 861 688 871 607 q 822 839 851 769 q 740 954 793 908 q 603 1000 688 1000 q 467 954 519 1000 q 386 839 415 908 q 347 688 357 769 q 336 535 336 607 m 374 1246 q 399 1313 374 1283 q 472 1342 425 1342 q 547 1313 519 1342 q 574 1246 574 1283 q 548 1183 574 1213 q 472 1153 522 1153 q 399 1183 424 1153 q 374 1246 374 1213 m 661 1246 q 687 1313 661 1283 q 760 1342 713 1342 q 834 1313 807 1342 q 861 1246 861 1283 q 836 1183 861 1213 q 760 1153 811 1153 q 686 1183 711 1153 q 661 1246 661 1213 z "},"Ọ":{"ha":1207,"x_min":63,"x_max":1144,"o":"m 603 1083 q 835 1040 733 1083 q 1005 922 936 997 q 1109 747 1074 847 q 1144 535 1144 647 q 1109 322 1144 422 q 1005 147 1074 222 q 835 29 936 72 q 603 -14 733 -14 q 372 29 472 -14 q 202 147 271 72 q 98 322 133 222 q 63 535 63 422 q 98 747 63 647 q 202 922 133 847 q 372 1040 271 997 q 603 1083 472 1083 m 336 535 q 347 381 336 463 q 386 228 357 299 q 467 113 415 158 q 603 67 519 67 q 740 113 688 67 q 821 228 792 158 q 860 381 850 299 q 871 535 871 463 q 861 688 871 607 q 822 839 851 769 q 740 954 793 908 q 603 1000 688 1000 q 467 954 519 1000 q 386 839 415 908 q 347 688 357 769 q 336 535 336 607 m 486 -247 q 517 -167 486 -201 q 606 -132 549 -132 q 697 -167 664 -132 q 729 -247 729 -201 q 698 -326 729 -290 q 606 -361 667 -361 q 517 -326 547 -361 q 486 -247 486 -290 z "},"Ò":{"ha":1207,"x_min":63,"x_max":1144,"o":"m 603 1083 q 835 1040 733 1083 q 1005 922 936 997 q 1109 747 1074 847 q 1144 535 1144 647 q 1109 322 1144 422 q 1005 147 1074 222 q 835 29 936 72 q 603 -14 733 -14 q 372 29 472 -14 q 202 147 271 72 q 98 322 133 222 q 63 535 63 422 q 98 747 63 647 q 202 922 133 847 q 372 1040 271 997 q 603 1083 472 1083 m 336 535 q 347 381 336 463 q 386 228 357 299 q 467 113 415 158 q 603 67 519 67 q 740 113 688 67 q 821 228 792 158 q 860 381 850 299 q 871 535 871 463 q 861 688 871 607 q 822 839 851 769 q 740 954 793 908 q 603 1000 688 1000 q 467 954 519 1000 q 386 839 415 908 q 347 688 357 769 q 336 535 336 607 m 743 1135 l 514 1179 q 451 1212 469 1188 q 432 1263 432 1236 q 452 1315 432 1292 q 508 1338 472 1338 q 548 1330 526 1338 q 593 1304 569 1322 l 767 1174 l 743 1135 z "},"Ő":{"ha":1207,"x_min":63,"x_max":1144,"o":"m 603 1083 q 835 1040 733 1083 q 1005 922 936 997 q 1109 747 1074 847 q 1144 535 1144 647 q 1109 322 1144 422 q 1005 147 1074 222 q 835 29 936 72 q 603 -14 733 -14 q 372 29 472 -14 q 202 147 271 72 q 98 322 133 222 q 63 535 63 422 q 98 747 63 647 q 202 922 133 847 q 372 1040 271 997 q 603 1083 472 1083 m 336 535 q 347 381 336 463 q 386 228 357 299 q 467 113 415 158 q 603 67 519 67 q 740 113 688 67 q 821 228 792 158 q 860 381 850 299 q 871 535 871 463 q 861 688 871 607 q 822 839 851 769 q 740 954 793 908 q 603 1000 688 1000 q 467 954 519 1000 q 386 839 415 908 q 347 688 357 769 q 336 535 336 607 m 353 1168 l 472 1292 q 520 1329 497 1318 q 563 1340 543 1340 q 618 1317 597 1340 q 639 1265 639 1294 q 624 1217 639 1242 q 571 1182 608 1192 l 382 1133 l 353 1168 m 639 1168 l 758 1292 q 806 1329 783 1318 q 849 1340 829 1340 q 904 1317 883 1340 q 925 1265 925 1294 q 910 1217 925 1242 q 857 1182 894 1192 l 668 1133 l 639 1168 z "},"Ō":{"ha":1207,"x_min":63,"x_max":1144,"o":"m 603 1083 q 835 1040 733 1083 q 1005 922 936 997 q 1109 747 1074 847 q 1144 535 1144 647 q 1109 322 1144 422 q 1005 147 1074 222 q 835 29 936 72 q 603 -14 733 -14 q 372 29 472 -14 q 202 147 271 72 q 98 322 133 222 q 63 535 63 422 q 98 747 63 647 q 202 922 133 847 q 372 1040 271 997 q 603 1083 472 1083 m 336 535 q 347 381 336 463 q 386 228 357 299 q 467 113 415 158 q 603 67 519 67 q 740 113 688 67 q 821 228 792 158 q 860 381 850 299 q 871 535 871 463 q 861 688 871 607 q 822 839 851 769 q 740 954 793 908 q 603 1000 688 1000 q 467 954 519 1000 q 386 839 415 908 q 347 688 357 769 q 336 535 336 607 m 399 1200 l 399 1333 l 825 1333 l 825 1200 l 399 1200 z "},"Ǫ":{"ha":1207,"x_min":63,"x_max":1144,"o":"m 740 -281 q 560 -356 664 -356 q 456 -323 494 -356 q 418 -233 418 -290 q 456 -124 418 -182 q 560 -12 493 -65 q 347 40 440 -6 q 191 160 254 86 q 95 330 128 233 q 63 535 63 426 q 98 747 63 647 q 202 922 133 847 q 372 1040 271 997 q 603 1083 472 1083 q 835 1040 733 1083 q 1005 922 936 997 q 1109 747 1074 847 q 1144 535 1144 647 q 1112 331 1144 426 q 1017 162 1079 235 q 863 43 954 89 q 653 -11 771 -3 q 575 -172 575 -101 q 642 -251 575 -251 q 678 -244 661 -251 q 719 -222 696 -237 l 740 -281 m 336 535 q 347 381 336 463 q 386 228 357 299 q 467 113 415 158 q 603 67 519 67 q 740 113 688 67 q 821 228 792 158 q 860 381 850 299 q 871 535 871 463 q 861 688 871 607 q 822 839 851 769 q 740 954 793 908 q 603 1000 688 1000 q 467 954 519 1000 q 386 839 415 908 q 347 688 357 769 q 336 535 336 607 z "},"Ø":{"ha":1204,"x_min":61,"x_max":1143,"o":"m 601 -14 q 419 12 501 -14 q 271 85 336 38 l 199 0 l 92 0 l 210 138 q 99 315 136 213 q 61 535 61 417 q 97 747 61 647 q 201 922 132 847 q 370 1040 269 997 q 601 1083 471 1083 q 786 1056 703 1083 q 935 982 869 1029 l 1010 1069 l 1118 1069 l 996 928 q 1106 752 1068 853 q 1143 535 1143 651 q 1108 322 1143 422 q 1003 147 1072 222 q 833 29 935 72 q 601 -14 732 -14 m 818 846 q 737 956 789 913 q 601 1000 685 1000 q 466 954 518 1000 q 385 839 414 908 q 345 688 356 769 q 335 535 335 607 q 340 424 335 482 q 358 310 344 367 l 818 846 m 601 67 q 738 113 686 67 q 819 228 790 158 q 859 381 849 299 q 869 535 869 463 q 865 643 869 586 q 847 754 860 700 l 388 219 q 468 110 417 153 q 601 67 519 67 z "},"Ǿ":{"ha":1204,"x_min":61,"x_max":1143,"o":"m 601 -14 q 419 12 501 -14 q 271 85 336 38 l 199 0 l 92 0 l 210 138 q 99 315 136 213 q 61 535 61 417 q 97 747 61 647 q 201 922 132 847 q 370 1040 269 997 q 601 1083 471 1083 q 786 1056 703 1083 q 935 982 869 1029 l 1010 1069 l 1118 1069 l 996 928 q 1106 752 1068 853 q 1143 535 1143 651 q 1108 322 1143 422 q 1003 147 1072 222 q 833 29 935 72 q 601 -14 732 -14 m 818 846 q 737 956 789 913 q 601 1000 685 1000 q 466 954 518 1000 q 385 839 414 908 q 345 688 356 769 q 335 535 335 607 q 340 424 335 482 q 358 310 344 367 l 818 846 m 601 67 q 738 113 686 67 q 819 228 790 158 q 859 381 849 299 q 869 535 869 463 q 865 643 869 586 q 847 754 860 700 l 388 219 q 468 110 417 153 q 601 67 519 67 m 453 1174 l 626 1304 q 672 1330 650 1322 q 711 1338 693 1338 q 767 1315 747 1338 q 788 1263 788 1292 q 769 1212 788 1236 q 706 1179 750 1188 l 476 1135 l 453 1174 z "},"Õ":{"ha":1207,"x_min":63,"x_max":1144,"o":"m 603 1083 q 835 1040 733 1083 q 1005 922 936 997 q 1109 747 1074 847 q 1144 535 1144 647 q 1109 322 1144 422 q 1005 147 1074 222 q 835 29 936 72 q 603 -14 733 -14 q 372 29 472 -14 q 202 147 271 72 q 98 322 133 222 q 63 535 63 422 q 98 747 63 647 q 202 922 133 847 q 372 1040 271 997 q 603 1083 472 1083 m 336 535 q 347 381 336 463 q 386 228 357 299 q 467 113 415 158 q 603 67 519 67 q 740 113 688 67 q 821 228 792 158 q 860 381 850 299 q 871 535 871 463 q 861 688 871 607 q 822 839 851 769 q 740 954 793 908 q 603 1000 688 1000 q 467 954 519 1000 q 386 839 415 908 q 347 688 357 769 q 336 535 336 607 m 388 1140 q 429 1288 388 1239 q 536 1338 471 1338 q 583 1330 563 1338 q 623 1313 604 1322 q 661 1295 642 1303 q 704 1288 681 1288 q 788 1340 774 1288 l 842 1340 q 806 1192 842 1244 q 700 1139 771 1139 q 650 1147 671 1139 q 610 1166 629 1156 q 572 1185 592 1176 q 526 1193 553 1193 q 468 1178 490 1193 q 442 1140 446 1164 l 388 1140 z "},"P":{"ha":964,"x_min":58,"x_max":929,"o":"m 58 1069 l 521 1069 q 690 1047 614 1069 q 819 984 765 1025 q 901 884 872 943 q 929 753 929 825 q 817 525 929 606 q 499 444 706 444 l 415 444 l 415 82 l 589 51 l 589 0 l 58 0 l 58 51 l 176 82 l 176 989 l 58 1018 l 58 1069 m 415 519 l 425 519 q 613 576 551 519 q 660 652 644 607 q 675 765 675 697 q 622 944 675 892 q 555 983 596 971 q 450 994 514 994 l 415 994 l 415 519 z "},"Q":{"ha":1207,"x_min":63,"x_max":1174,"o":"m 603 1083 q 835 1040 733 1083 q 1005 922 936 997 q 1109 747 1074 847 q 1144 535 1144 647 q 1116 346 1144 435 q 1033 186 1088 257 q 899 66 979 115 q 718 -1 819 17 l 718 -7 q 781 -29 750 -17 q 845 -53 813 -42 q 913 -72 878 -64 q 986 -79 947 -79 q 1064 -66 1029 -79 q 1132 -19 1099 -53 l 1174 -47 q 1055 -214 1128 -158 q 906 -269 982 -269 q 825 -252 860 -269 q 762 -208 790 -235 q 707 -150 733 -181 q 652 -92 681 -119 q 590 -48 624 -65 q 513 -31 557 -31 q 453 -46 476 -31 q 431 -89 431 -61 q 435 -110 431 -101 q 444 -128 439 -119 q 453 -149 449 -137 q 457 -175 457 -160 q 428 -243 457 -215 q 357 -271 400 -271 q 286 -240 313 -271 q 260 -164 260 -210 q 301 -63 260 -107 q 417 10 343 -19 l 417 15 q 266 94 332 43 q 155 213 200 144 q 86 363 110 281 q 63 535 63 444 q 98 747 63 647 q 202 922 133 847 q 372 1040 271 997 q 603 1083 472 1083 m 336 532 q 347 374 336 458 q 386 219 357 290 q 467 100 415 147 q 603 53 519 53 q 740 100 688 53 q 821 219 792 147 q 860 376 850 292 q 871 535 871 460 q 861 688 871 606 q 822 839 851 769 q 741 954 793 908 q 604 1000 689 1000 q 467 954 519 1000 q 385 838 414 908 q 346 686 356 768 q 336 532 336 604 z "},"R":{"ha":1081,"x_min":58,"x_max":1131,"o":"m 58 51 l 176 82 l 176 989 l 58 1018 l 58 1069 l 560 1069 q 710 1049 642 1069 q 827 991 778 1029 q 903 896 876 953 q 931 765 931 839 q 880 596 931 664 q 736 494 829 528 l 1004 78 l 1131 51 l 1131 0 l 751 0 l 472 465 l 415 465 l 415 82 l 574 51 l 574 0 l 58 0 l 58 51 m 435 540 q 557 560 511 540 q 632 615 603 581 q 675 692 663 650 q 688 779 688 735 q 653 904 688 854 q 567 976 619 954 q 515 990 543 986 q 444 994 488 994 l 415 994 l 415 540 l 435 540 z "},"Ŕ":{"ha":1081,"x_min":58,"x_max":1131,"o":"m 58 51 l 176 82 l 176 989 l 58 1018 l 58 1069 l 560 1069 q 710 1049 642 1069 q 827 991 778 1029 q 903 896 876 953 q 931 765 931 839 q 880 596 931 664 q 736 494 829 528 l 1004 78 l 1131 51 l 1131 0 l 751 0 l 472 465 l 415 465 l 415 82 l 574 51 l 574 0 l 58 0 l 58 51 m 435 540 q 557 560 511 540 q 632 615 603 581 q 675 692 663 650 q 688 779 688 735 q 653 904 688 854 q 567 976 619 954 q 515 990 543 986 q 444 994 488 994 l 415 994 l 415 540 l 435 540 m 353 1174 l 526 1304 q 572 1330 550 1322 q 611 1338 593 1338 q 667 1315 647 1338 q 688 1263 688 1292 q 669 1212 688 1236 q 606 1179 650 1188 l 376 1135 l 353 1174 z "},"Ř":{"ha":1081,"x_min":58,"x_max":1131,"o":"m 58 51 l 176 82 l 176 989 l 58 1018 l 58 1069 l 560 1069 q 710 1049 642 1069 q 827 991 778 1029 q 903 896 876 953 q 931 765 931 839 q 880 596 931 664 q 736 494 829 528 l 1004 78 l 1131 51 l 1131 0 l 751 0 l 472 465 l 415 465 l 415 82 l 574 51 l 574 0 l 58 0 l 58 51 m 435 540 q 557 560 511 540 q 632 615 603 581 q 675 692 663 650 q 688 779 688 735 q 653 904 688 854 q 567 976 619 954 q 515 990 543 986 q 444 994 488 994 l 415 994 l 415 540 l 435 540 m 507 1154 q 457 1165 479 1154 q 407 1200 435 1176 l 265 1317 l 288 1347 l 506 1290 l 724 1347 l 746 1317 l 601 1200 q 552 1165 574 1176 q 507 1154 531 1154 z "},"Ŗ":{"ha":1081,"x_min":58,"x_max":1131,"o":"m 58 51 l 176 82 l 176 989 l 58 1018 l 58 1069 l 560 1069 q 710 1049 642 1069 q 827 991 778 1029 q 903 896 876 953 q 931 765 931 839 q 880 596 931 664 q 736 494 829 528 l 1004 78 l 1131 51 l 1131 0 l 751 0 l 472 465 l 415 465 l 415 82 l 574 51 l 574 0 l 58 0 l 58 51 m 435 540 q 557 560 511 540 q 632 615 603 581 q 675 692 663 650 q 688 779 688 735 q 653 904 688 854 q 567 976 619 954 q 515 990 543 986 q 444 994 488 994 l 415 994 l 415 540 l 435 540 m 540 -328 q 574 -285 561 -308 q 588 -247 588 -262 q 577 -223 588 -232 q 555 -204 567 -214 q 533 -181 543 -194 q 522 -146 522 -168 q 549 -93 522 -114 q 615 -72 575 -72 q 685 -101 660 -72 q 710 -181 710 -131 q 674 -286 710 -239 q 572 -361 639 -333 l 540 -328 z "},"Ṛ":{"ha":1081,"x_min":58,"x_max":1131,"o":"m 58 51 l 176 82 l 176 989 l 58 1018 l 58 1069 l 560 1069 q 710 1049 642 1069 q 827 991 778 1029 q 903 896 876 953 q 931 765 931 839 q 880 596 931 664 q 736 494 829 528 l 1004 78 l 1131 51 l 1131 0 l 751 0 l 472 465 l 415 465 l 415 82 l 574 51 l 574 0 l 58 0 l 58 51 m 435 540 q 557 560 511 540 q 632 615 603 581 q 675 692 663 650 q 688 779 688 735 q 653 904 688 854 q 567 976 619 954 q 515 990 543 986 q 444 994 488 994 l 415 994 l 415 540 l 435 540 m 490 -247 q 522 -167 490 -201 q 610 -132 553 -132 q 701 -167 668 -132 q 733 -247 733 -201 q 702 -326 733 -290 q 610 -361 671 -361 q 521 -326 551 -361 q 490 -247 490 -290 z "},"S":{"ha":899,"x_min":74,"x_max":828,"o":"m 453 1083 q 697 997 594 1083 l 731 1071 l 776 1071 l 790 764 l 729 764 q 461 1001 660 1001 q 349 967 389 1001 q 308 869 308 932 q 347 781 308 817 q 443 715 385 746 q 568 651 501 683 q 693 574 635 619 q 790 463 751 528 q 828 303 828 399 q 799 178 828 236 q 719 78 769 121 q 599 12 668 36 q 450 -12 531 -12 q 324 4 385 -12 q 193 57 264 21 l 144 0 l 101 0 l 74 356 l 132 365 q 183 231 154 288 q 251 139 213 175 q 338 85 289 103 q 447 68 386 68 q 588 110 536 68 q 640 226 640 151 q 600 313 640 278 q 499 380 560 349 q 369 444 439 411 q 238 522 299 476 q 138 632 178 568 q 97 790 97 696 q 124 908 97 854 q 199 1000 151 961 q 312 1061 247 1039 q 453 1083 376 1083 z "},"Ś":{"ha":899,"x_min":74,"x_max":828,"o":"m 453 1083 q 697 997 594 1083 l 731 1071 l 776 1071 l 790 764 l 729 764 q 461 1001 660 1001 q 349 967 389 1001 q 308 869 308 932 q 347 781 308 817 q 443 715 385 746 q 568 651 501 683 q 693 574 635 619 q 790 463 751 528 q 828 303 828 399 q 799 178 828 236 q 719 78 769 121 q 599 12 668 36 q 450 -12 531 -12 q 324 4 385 -12 q 193 57 264 21 l 144 0 l 101 0 l 74 356 l 132 365 q 183 231 154 288 q 251 139 213 175 q 338 85 289 103 q 447 68 386 68 q 588 110 536 68 q 640 226 640 151 q 600 313 640 278 q 499 380 560 349 q 369 444 439 411 q 238 522 299 476 q 138 632 178 568 q 97 790 97 696 q 124 908 97 854 q 199 1000 151 961 q 312 1061 247 1039 q 453 1083 376 1083 m 296 1174 l 469 1304 q 515 1330 493 1322 q 554 1338 536 1338 q 610 1315 590 1338 q 631 1263 631 1292 q 612 1212 631 1236 q 549 1179 593 1188 l 319 1135 l 296 1174 z "},"Š":{"ha":899,"x_min":74,"x_max":828,"o":"m 453 1083 q 697 997 594 1083 l 731 1071 l 776 1071 l 790 764 l 729 764 q 461 1001 660 1001 q 349 967 389 1001 q 308 869 308 932 q 347 781 308 817 q 443 715 385 746 q 568 651 501 683 q 693 574 635 619 q 790 463 751 528 q 828 303 828 399 q 799 178 828 236 q 719 78 769 121 q 599 12 668 36 q 450 -12 531 -12 q 324 4 385 -12 q 193 57 264 21 l 144 0 l 101 0 l 74 356 l 132 365 q 183 231 154 288 q 251 139 213 175 q 338 85 289 103 q 447 68 386 68 q 588 110 536 68 q 640 226 640 151 q 600 313 640 278 q 499 380 560 349 q 369 444 439 411 q 238 522 299 476 q 138 632 178 568 q 97 790 97 696 q 124 908 97 854 q 199 1000 151 961 q 312 1061 247 1039 q 453 1083 376 1083 m 468 1154 q 418 1165 440 1154 q 368 1200 396 1176 l 226 1317 l 249 1347 l 467 1290 l 685 1347 l 707 1317 l 563 1200 q 513 1165 535 1176 q 468 1154 492 1154 z "},"Ə":{"ha":1100,"x_min":46,"x_max":1036,"o":"m 61 450 l 764 450 q 765 474 765 461 q 765 500 765 486 q 468 939 765 939 q 289 901 375 939 q 150 799 203 863 l 125 768 l 83 796 l 94 824 q 162 930 117 882 q 267 1012 207 978 q 399 1065 328 1046 q 549 1085 471 1085 q 747 1046 657 1085 q 901 937 838 1007 q 1001 768 965 867 q 1036 550 1036 669 q 997 319 1036 424 q 885 142 957 215 q 710 27 813 68 q 485 -14 608 -14 q 161 102 274 -14 q 46 438 49 218 l 61 450 m 499 69 q 758 375 721 69 l 313 360 q 308 323 310 343 q 307 285 307 303 q 356 125 307 181 q 499 69 406 69 z "},"Ŝ":{"ha":899,"x_min":74,"x_max":828,"o":"m 453 1083 q 697 997 594 1083 l 731 1071 l 776 1071 l 790 764 l 729 764 q 461 1001 660 1001 q 349 967 389 1001 q 308 869 308 932 q 347 781 308 817 q 443 715 385 746 q 568 651 501 683 q 693 574 635 619 q 790 463 751 528 q 828 303 828 399 q 799 178 828 236 q 719 78 769 121 q 599 12 668 36 q 450 -12 531 -12 q 324 4 385 -12 q 193 57 264 21 l 144 0 l 101 0 l 74 356 l 132 365 q 183 231 154 288 q 251 139 213 175 q 338 85 289 103 q 447 68 386 68 q 588 110 536 68 q 640 226 640 151 q 600 313 640 278 q 499 380 560 349 q 369 444 439 411 q 238 522 299 476 q 138 632 178 568 q 97 790 97 696 q 124 908 97 854 q 199 1000 151 961 q 312 1061 247 1039 q 453 1083 376 1083 m 468 1333 q 513 1322 492 1333 q 563 1288 535 1311 l 707 1171 l 685 1140 l 467 1197 l 249 1140 l 226 1171 l 368 1288 q 418 1322 396 1311 q 468 1333 440 1333 z "},"Ṣ":{"ha":899,"x_min":74,"x_max":828,"o":"m 453 1083 q 697 997 594 1083 l 731 1071 l 776 1071 l 790 764 l 729 764 q 461 1001 660 1001 q 349 967 389 1001 q 308 869 308 932 q 347 781 308 817 q 443 715 385 746 q 568 651 501 683 q 693 574 635 619 q 790 463 751 528 q 828 303 828 399 q 799 178 828 236 q 719 78 769 121 q 599 12 668 36 q 450 -12 531 -12 q 324 4 385 -12 q 193 57 264 21 l 144 0 l 101 0 l 74 356 l 132 365 q 183 231 154 288 q 251 139 213 175 q 338 85 289 103 q 447 68 386 68 q 588 110 536 68 q 640 226 640 151 q 600 313 640 278 q 499 380 560 349 q 369 444 439 411 q 238 522 299 476 q 138 632 178 568 q 97 790 97 696 q 124 908 97 854 q 199 1000 151 961 q 312 1061 247 1039 q 453 1083 376 1083 m 331 -247 q 362 -167 331 -201 q 450 -132 393 -132 q 541 -167 508 -132 q 574 -247 574 -201 q 542 -326 574 -290 q 450 -361 511 -361 q 361 -326 392 -361 q 331 -247 331 -290 z "},"T":{"ha":1081,"x_min":15,"x_max":1065,"o":"m 257 51 l 424 82 l 424 993 l 197 993 q 122 872 153 935 q 69 750 90 808 l 15 750 l 67 1069 l 1014 1069 l 1065 750 l 1011 750 q 961 872 990 808 q 888 993 932 935 l 661 993 l 661 82 l 826 51 l 826 0 l 257 0 l 257 51 z "},"Ŧ":{"ha":1083,"x_min":17,"x_max":1067,"o":"m 258 51 l 425 82 l 425 510 l 204 510 l 204 628 l 425 628 l 425 993 l 199 993 q 123 872 154 935 q 71 750 92 808 l 17 750 l 68 1069 l 1015 1069 l 1067 750 l 1013 750 q 963 872 992 808 q 889 993 933 935 l 663 993 l 663 628 l 885 628 l 885 510 l 663 510 l 663 82 l 828 51 l 828 0 l 258 0 l 258 51 z "},"Ť":{"ha":1081,"x_min":15,"x_max":1065,"o":"m 257 51 l 424 82 l 424 993 l 197 993 q 122 872 153 935 q 69 750 90 808 l 15 750 l 67 1069 l 1014 1069 l 1065 750 l 1011 750 q 961 872 990 808 q 888 993 932 935 l 661 993 l 661 82 l 826 51 l 826 0 l 257 0 l 257 51 m 543 1140 q 493 1151 515 1140 q 443 1186 471 1163 l 301 1303 l 324 1333 l 542 1276 l 760 1333 l 782 1303 l 638 1186 q 588 1151 610 1163 q 543 1140 567 1140 z "},"Ṭ":{"ha":1081,"x_min":15,"x_max":1065,"o":"m 257 51 l 424 82 l 424 993 l 197 993 q 122 872 153 935 q 69 750 90 808 l 15 750 l 67 1069 l 1014 1069 l 1065 750 l 1011 750 q 961 872 990 808 q 888 993 932 935 l 661 993 l 661 82 l 826 51 l 826 0 l 257 0 l 257 51 m 425 -247 q 456 -167 425 -201 q 544 -132 488 -132 q 635 -167 603 -132 q 668 -247 668 -201 q 637 -326 668 -290 q 544 -361 606 -361 q 456 -326 486 -361 q 425 -247 425 -290 z "},"Þ":{"ha":967,"x_min":58,"x_max":929,"o":"m 415 988 l 415 851 l 521 851 q 690 829 614 851 q 819 766 765 807 q 901 666 872 725 q 929 535 929 607 q 817 307 929 388 q 499 226 706 226 l 415 226 l 415 82 l 589 51 l 589 0 l 58 0 l 58 51 l 176 82 l 176 988 l 58 1018 l 58 1069 l 589 1069 l 589 1018 l 415 988 m 415 301 l 425 301 q 613 358 551 301 q 660 434 644 389 q 675 547 675 479 q 622 726 675 674 q 555 765 596 753 q 450 776 514 776 l 415 776 l 415 301 z "},"U":{"ha":1140,"x_min":36,"x_max":1110,"o":"m 396 371 q 458 150 396 228 q 638 72 521 72 q 829 160 765 72 q 876 278 861 204 q 890 472 890 351 l 890 992 l 768 1018 l 768 1069 l 1110 1069 l 1110 1018 l 986 992 l 986 393 q 922 133 986 233 q 588 -14 826 -14 q 365 24 461 -14 q 214 135 269 63 q 168 230 182 175 q 154 371 154 285 l 154 992 l 36 1018 l 36 1069 l 518 1069 l 518 1018 l 396 992 l 396 371 z "},"Ú":{"ha":1140,"x_min":36,"x_max":1110,"o":"m 396 371 q 458 150 396 228 q 638 72 521 72 q 829 160 765 72 q 876 278 861 204 q 890 472 890 351 l 890 992 l 768 1018 l 768 1069 l 1110 1069 l 1110 1018 l 986 992 l 986 393 q 922 133 986 233 q 588 -14 826 -14 q 365 24 461 -14 q 214 135 269 63 q 168 230 182 175 q 154 371 154 285 l 154 992 l 36 1018 l 36 1069 l 518 1069 l 518 1018 l 396 992 l 396 371 m 483 1174 l 657 1304 q 702 1330 681 1322 q 742 1338 724 1338 q 798 1315 778 1338 q 818 1263 818 1292 q 799 1212 818 1236 q 736 1179 781 1188 l 507 1135 l 483 1174 z "},"Ŭ":{"ha":1140,"x_min":36,"x_max":1110,"o":"m 396 371 q 458 150 396 228 q 638 72 521 72 q 829 160 765 72 q 876 278 861 204 q 890 472 890 351 l 890 992 l 768 1018 l 768 1069 l 1110 1069 l 1110 1018 l 986 992 l 986 393 q 922 133 986 233 q 588 -14 826 -14 q 365 24 461 -14 q 214 135 269 63 q 168 230 182 175 q 154 371 154 285 l 154 992 l 36 1018 l 36 1069 l 518 1069 l 518 1018 l 396 992 l 396 371 m 507 1340 q 563 1306 524 1317 q 647 1296 601 1296 q 730 1306 692 1296 q 792 1340 768 1317 l 860 1340 q 815 1239 842 1276 q 757 1182 788 1201 q 696 1157 726 1163 q 642 1151 665 1151 q 576 1161 610 1151 q 513 1193 542 1171 q 464 1251 485 1215 q 438 1340 443 1288 l 507 1340 z "},"Û":{"ha":1140,"x_min":36,"x_max":1110,"o":"m 396 371 q 458 150 396 228 q 638 72 521 72 q 829 160 765 72 q 876 278 861 204 q 890 472 890 351 l 890 992 l 768 1018 l 768 1069 l 1110 1069 l 1110 1018 l 986 992 l 986 393 q 922 133 986 233 q 588 -14 826 -14 q 365 24 461 -14 q 214 135 269 63 q 168 230 182 175 q 154 371 154 285 l 154 992 l 36 1018 l 36 1069 l 518 1069 l 518 1018 l 396 992 l 396 371 m 647 1333 q 692 1322 671 1333 q 742 1288 714 1311 l 886 1171 l 864 1140 l 646 1197 l 428 1140 l 406 1171 l 547 1288 q 597 1322 575 1311 q 647 1333 619 1333 z "},"Ü":{"ha":1140,"x_min":36,"x_max":1110,"o":"m 396 371 q 458 150 396 228 q 638 72 521 72 q 829 160 765 72 q 876 278 861 204 q 890 472 890 351 l 890 992 l 768 1018 l 768 1069 l 1110 1069 l 1110 1018 l 986 992 l 986 393 q 922 133 986 233 q 588 -14 826 -14 q 365 24 461 -14 q 214 135 269 63 q 168 230 182 175 q 154 371 154 285 l 154 992 l 36 1018 l 36 1069 l 518 1069 l 518 1018 l 396 992 l 396 371 m 410 1207 q 435 1274 410 1244 q 508 1303 461 1303 q 583 1274 556 1303 q 610 1207 610 1244 q 584 1144 610 1174 q 508 1114 558 1114 q 435 1144 460 1114 q 410 1207 410 1174 m 697 1207 q 723 1274 697 1244 q 796 1303 749 1303 q 870 1274 843 1303 q 897 1207 897 1244 q 872 1144 897 1174 q 796 1114 847 1114 q 722 1144 747 1114 q 697 1207 697 1174 z "},"Ụ":{"ha":1140,"x_min":36,"x_max":1110,"o":"m 396 371 q 458 150 396 228 q 638 72 521 72 q 829 160 765 72 q 876 278 861 204 q 890 472 890 351 l 890 992 l 768 1018 l 768 1069 l 1110 1069 l 1110 1018 l 986 992 l 986 393 q 922 133 986 233 q 588 -14 826 -14 q 365 24 461 -14 q 214 135 269 63 q 168 230 182 175 q 154 371 154 285 l 154 992 l 36 1018 l 36 1069 l 518 1069 l 518 1018 l 396 992 l 396 371 m 486 -247 q 517 -167 486 -201 q 606 -132 549 -132 q 697 -167 664 -132 q 729 -247 729 -201 q 698 -326 729 -290 q 606 -361 667 -361 q 517 -326 547 -361 q 486 -247 486 -290 z "},"Ù":{"ha":1140,"x_min":36,"x_max":1110,"o":"m 396 371 q 458 150 396 228 q 638 72 521 72 q 829 160 765 72 q 876 278 861 204 q 890 472 890 351 l 890 992 l 768 1018 l 768 1069 l 1110 1069 l 1110 1018 l 986 992 l 986 393 q 922 133 986 233 q 588 -14 826 -14 q 365 24 461 -14 q 214 135 269 63 q 168 230 182 175 q 154 371 154 285 l 154 992 l 36 1018 l 36 1069 l 518 1069 l 518 1018 l 396 992 l 396 371 m 781 1135 l 551 1179 q 488 1212 507 1188 q 469 1263 469 1236 q 490 1315 469 1292 q 546 1338 510 1338 q 585 1330 564 1338 q 631 1304 607 1322 l 804 1174 l 781 1135 z "},"Ű":{"ha":1140,"x_min":36,"x_max":1110,"o":"m 396 371 q 458 150 396 228 q 638 72 521 72 q 829 160 765 72 q 876 278 861 204 q 890 472 890 351 l 890 992 l 768 1018 l 768 1069 l 1110 1069 l 1110 1018 l 986 992 l 986 393 q 922 133 986 233 q 588 -14 826 -14 q 365 24 461 -14 q 214 135 269 63 q 168 230 182 175 q 154 371 154 285 l 154 992 l 36 1018 l 36 1069 l 518 1069 l 518 1018 l 396 992 l 396 371 m 414 1168 l 533 1292 q 581 1329 558 1318 q 624 1340 604 1340 q 679 1317 658 1340 q 700 1265 700 1294 q 685 1217 700 1242 q 632 1182 669 1192 l 443 1133 l 414 1168 m 700 1168 l 819 1292 q 867 1329 844 1318 q 910 1340 890 1340 q 965 1317 944 1340 q 986 1265 986 1294 q 971 1217 986 1242 q 918 1182 956 1192 l 729 1133 l 700 1168 z "},"Ū":{"ha":1140,"x_min":36,"x_max":1110,"o":"m 396 371 q 458 150 396 228 q 638 72 521 72 q 829 160 765 72 q 876 278 861 204 q 890 472 890 351 l 890 992 l 768 1018 l 768 1069 l 1110 1069 l 1110 1018 l 986 992 l 986 393 q 922 133 986 233 q 588 -14 826 -14 q 365 24 461 -14 q 214 135 269 63 q 168 230 182 175 q 154 371 154 285 l 154 992 l 36 1018 l 36 1069 l 518 1069 l 518 1018 l 396 992 l 396 371 m 425 1200 l 425 1333 l 851 1333 l 851 1200 l 425 1200 z "},"Ų":{"ha":1142,"x_min":36,"x_max":1110,"o":"m 754 -281 q 574 -356 678 -356 q 470 -323 508 -356 q 432 -233 432 -290 q 469 -124 432 -182 q 572 -14 506 -67 q 358 26 450 -11 q 214 135 267 64 q 168 230 182 175 q 154 371 154 285 l 154 992 l 36 1018 l 36 1069 l 518 1069 l 518 1018 l 396 992 l 396 371 q 458 150 396 228 q 638 72 521 72 q 829 160 765 72 q 876 278 861 204 q 890 472 890 351 l 890 992 l 768 1018 l 768 1069 l 1110 1069 l 1110 1018 l 986 992 l 986 393 q 922 133 986 233 q 668 -10 843 11 q 589 -172 589 -101 q 656 -251 589 -251 q 692 -244 675 -251 q 733 -222 710 -237 l 754 -281 z "},"Ů":{"ha":1140,"x_min":36,"x_max":1110,"o":"m 396 371 q 458 150 396 228 q 638 72 521 72 q 829 160 765 72 q 876 278 861 204 q 890 472 890 351 l 890 992 l 768 1018 l 768 1069 l 1110 1069 l 1110 1018 l 986 992 l 986 393 q 922 133 986 233 q 588 -14 826 -14 q 365 24 461 -14 q 214 135 269 63 q 168 230 182 175 q 154 371 154 285 l 154 992 l 36 1018 l 36 1069 l 518 1069 l 518 1018 l 396 992 l 396 371 m 647 1153 q 576 1181 603 1153 q 550 1250 550 1208 q 578 1319 550 1292 q 647 1347 606 1347 q 717 1319 689 1347 q 744 1250 744 1292 q 717 1181 744 1208 q 647 1153 689 1153 m 619 1250 q 647 1222 619 1222 q 675 1250 675 1222 q 647 1278 675 1278 q 619 1250 619 1278 z "},"Ũ":{"ha":1140,"x_min":36,"x_max":1110,"o":"m 396 371 q 458 150 396 228 q 638 72 521 72 q 829 160 765 72 q 876 278 861 204 q 890 472 890 351 l 890 992 l 768 1018 l 768 1069 l 1110 1069 l 1110 1018 l 986 992 l 986 393 q 922 133 986 233 q 588 -14 826 -14 q 365 24 461 -14 q 214 135 269 63 q 168 230 182 175 q 154 371 154 285 l 154 992 l 36 1018 l 36 1069 l 518 1069 l 518 1018 l 396 992 l 396 371 m 421 1140 q 463 1288 421 1239 q 569 1338 504 1338 q 617 1330 596 1338 q 656 1313 638 1322 q 694 1295 675 1303 q 738 1288 714 1288 q 821 1340 807 1288 l 875 1340 q 840 1192 875 1244 q 733 1139 804 1139 q 683 1147 704 1139 q 644 1166 663 1156 q 606 1185 625 1176 q 560 1193 586 1193 q 501 1178 524 1193 q 475 1140 479 1164 l 421 1140 z "},"V":{"ha":1085,"x_min":-28,"x_max":1118,"o":"m 514 -14 l 122 933 q 101 972 113 957 q 74 997 90 988 q 34 1010 58 1006 q -28 1018 10 1015 l -28 1069 l 544 1069 l 544 1018 q 438 1001 467 1013 q 408 964 408 990 q 417 925 408 947 l 624 353 l 632 353 l 829 867 q 843 929 843 903 q 809 987 843 967 q 689 1018 775 1007 l 689 1069 l 1118 1069 l 1118 1018 q 1041 1002 1071 1011 q 990 976 1011 993 q 955 933 969 960 q 924 864 940 907 l 581 -14 l 514 -14 z "},"W":{"ha":1683,"x_min":-22,"x_max":1721,"o":"m 499 -14 l 128 933 q 108 972 118 957 q 81 997 97 988 q 40 1010 64 1006 q -22 1018 15 1015 l -22 1069 l 550 1069 l 550 1018 q 479 1012 506 1015 q 438 1002 453 1008 q 419 987 424 996 q 414 965 414 978 q 422 925 414 947 l 608 353 l 617 353 l 793 813 l 746 933 q 726 972 736 957 q 699 997 715 988 q 658 1010 682 1006 q 596 1018 633 1015 l 596 1069 l 1168 1069 l 1168 1018 q 1062 1003 1092 1014 q 1032 965 1032 993 q 1040 925 1032 947 l 1226 353 l 1235 353 l 1432 867 q 1443 901 1439 883 q 1447 932 1447 918 q 1413 987 1447 967 q 1292 1018 1378 1007 l 1292 1069 l 1721 1069 l 1721 1018 q 1645 1002 1675 1011 q 1594 976 1615 993 q 1558 933 1574 960 q 1526 864 1543 906 l 1183 -14 l 1117 -14 l 840 690 l 565 -14 l 499 -14 z "},"Ẃ":{"ha":1683,"x_min":-22,"x_max":1721,"o":"m 499 -14 l 128 933 q 108 972 118 957 q 81 997 97 988 q 40 1010 64 1006 q -22 1018 15 1015 l -22 1069 l 550 1069 l 550 1018 q 479 1012 506 1015 q 438 1002 453 1008 q 419 987 424 996 q 414 965 414 978 q 422 925 414 947 l 608 353 l 617 353 l 793 813 l 746 933 q 726 972 736 957 q 699 997 715 988 q 658 1010 682 1006 q 596 1018 633 1015 l 596 1069 l 1168 1069 l 1168 1018 q 1062 1003 1092 1014 q 1032 965 1032 993 q 1040 925 1032 947 l 1226 353 l 1235 353 l 1432 867 q 1443 901 1439 883 q 1447 932 1447 918 q 1413 987 1447 967 q 1292 1018 1378 1007 l 1292 1069 l 1721 1069 l 1721 1018 q 1645 1002 1675 1011 q 1594 976 1615 993 q 1558 933 1574 960 q 1526 864 1543 906 l 1183 -14 l 1117 -14 l 840 690 l 565 -14 l 499 -14 m 717 1174 l 890 1304 q 935 1330 914 1322 q 975 1338 957 1338 q 1031 1315 1011 1338 q 1051 1263 1051 1292 q 1033 1212 1051 1236 q 969 1179 1014 1188 l 740 1135 l 717 1174 z "},"Ŵ":{"ha":1683,"x_min":-22,"x_max":1721,"o":"m 499 -14 l 128 933 q 108 972 118 957 q 81 997 97 988 q 40 1010 64 1006 q -22 1018 15 1015 l -22 1069 l 550 1069 l 550 1018 q 479 1012 506 1015 q 438 1002 453 1008 q 419 987 424 996 q 414 965 414 978 q 422 925 414 947 l 608 353 l 617 353 l 793 813 l 746 933 q 726 972 736 957 q 699 997 715 988 q 658 1010 682 1006 q 596 1018 633 1015 l 596 1069 l 1168 1069 l 1168 1018 q 1062 1003 1092 1014 q 1032 965 1032 993 q 1040 925 1032 947 l 1226 353 l 1235 353 l 1432 867 q 1443 901 1439 883 q 1447 932 1447 918 q 1413 987 1447 967 q 1292 1018 1378 1007 l 1292 1069 l 1721 1069 l 1721 1018 q 1645 1002 1675 1011 q 1594 976 1615 993 q 1558 933 1574 960 q 1526 864 1543 906 l 1183 -14 l 1117 -14 l 840 690 l 565 -14 l 499 -14 m 883 1333 q 928 1322 907 1333 q 978 1288 950 1311 l 1122 1171 l 1100 1140 l 882 1197 l 664 1140 l 642 1171 l 783 1288 q 833 1322 811 1311 q 883 1333 856 1333 z "},"Ẅ":{"ha":1683,"x_min":-22,"x_max":1721,"o":"m 499 -14 l 128 933 q 108 972 118 957 q 81 997 97 988 q 40 1010 64 1006 q -22 1018 15 1015 l -22 1069 l 550 1069 l 550 1018 q 479 1012 506 1015 q 438 1002 453 1008 q 419 987 424 996 q 414 965 414 978 q 422 925 414 947 l 608 353 l 617 353 l 793 813 l 746 933 q 726 972 736 957 q 699 997 715 988 q 658 1010 682 1006 q 596 1018 633 1015 l 596 1069 l 1168 1069 l 1168 1018 q 1062 1003 1092 1014 q 1032 965 1032 993 q 1040 925 1032 947 l 1226 353 l 1235 353 l 1432 867 q 1443 901 1439 883 q 1447 932 1447 918 q 1413 987 1447 967 q 1292 1018 1378 1007 l 1292 1069 l 1721 1069 l 1721 1018 q 1645 1002 1675 1011 q 1594 976 1615 993 q 1558 933 1574 960 q 1526 864 1543 906 l 1183 -14 l 1117 -14 l 840 690 l 565 -14 l 499 -14 m 640 1246 q 666 1313 640 1283 q 739 1342 692 1342 q 813 1313 786 1342 q 840 1246 840 1283 q 815 1183 840 1213 q 739 1153 789 1153 q 665 1183 690 1153 q 640 1246 640 1213 m 928 1246 q 953 1313 928 1283 q 1026 1342 979 1342 q 1101 1313 1074 1342 q 1128 1246 1128 1283 q 1103 1183 1128 1213 q 1026 1153 1078 1153 q 953 1183 978 1153 q 928 1246 928 1213 z "},"Ẁ":{"ha":1683,"x_min":-22,"x_max":1721,"o":"m 499 -14 l 128 933 q 108 972 118 957 q 81 997 97 988 q 40 1010 64 1006 q -22 1018 15 1015 l -22 1069 l 550 1069 l 550 1018 q 479 1012 506 1015 q 438 1002 453 1008 q 419 987 424 996 q 414 965 414 978 q 422 925 414 947 l 608 353 l 617 353 l 793 813 l 746 933 q 726 972 736 957 q 699 997 715 988 q 658 1010 682 1006 q 596 1018 633 1015 l 596 1069 l 1168 1069 l 1168 1018 q 1062 1003 1092 1014 q 1032 965 1032 993 q 1040 925 1032 947 l 1226 353 l 1235 353 l 1432 867 q 1443 901 1439 883 q 1447 932 1447 918 q 1413 987 1447 967 q 1292 1018 1378 1007 l 1292 1069 l 1721 1069 l 1721 1018 q 1645 1002 1675 1011 q 1594 976 1615 993 q 1558 933 1574 960 q 1526 864 1543 906 l 1183 -14 l 1117 -14 l 840 690 l 565 -14 l 499 -14 m 1004 1135 l 775 1179 q 712 1212 731 1188 q 693 1263 693 1236 q 713 1315 693 1292 q 769 1338 733 1338 q 809 1330 788 1338 q 854 1304 831 1322 l 1028 1174 l 1004 1135 z "},"X":{"ha":1167,"x_min":-10,"x_max":1193,"o":"m -10 51 q 67 65 35 57 q 124 85 100 74 q 165 112 147 96 q 200 150 183 128 l 471 514 l 174 958 q 154 981 164 972 q 127 997 144 990 q 83 1008 110 1003 q 14 1018 57 1013 l 14 1069 l 593 1069 l 593 1018 q 494 1009 518 1015 q 469 989 469 1003 q 473 969 469 979 q 488 943 476 960 l 658 686 l 831 918 q 853 968 853 949 q 826 999 853 988 q 736 1018 799 1011 l 736 1069 l 1126 1069 l 1126 1018 q 1053 1002 1082 1010 q 1003 984 1024 994 q 967 958 982 974 q 936 922 953 943 l 706 615 l 1043 111 q 1066 85 1053 96 q 1097 68 1079 75 q 1138 58 1114 61 q 1193 51 1161 54 l 1193 0 l 617 0 l 617 51 q 726 63 699 57 q 753 79 753 68 q 748 97 753 86 q 731 126 743 107 l 519 440 l 306 151 q 282 97 282 119 q 310 69 282 79 q 399 51 338 58 l 399 0 l -10 0 l -10 51 z "},"Y":{"ha":1035,"x_min":-25,"x_max":1056,"o":"m 282 51 l 400 81 l 400 465 l 135 933 q 107 975 119 960 q 77 999 94 990 q 35 1012 60 1008 q -25 1018 11 1015 l -25 1069 l 549 1069 l 549 1018 q 479 1009 507 1015 q 436 994 451 1003 q 415 975 421 986 q 408 951 408 964 q 421 911 408 933 l 599 563 l 604 563 l 764 867 q 790 950 790 918 q 756 999 790 983 q 636 1018 722 1015 l 636 1069 l 1056 1069 l 1056 1018 q 985 1008 1013 1014 q 938 988 958 1003 q 899 943 918 972 q 854 864 881 914 l 639 464 l 639 81 l 756 51 l 756 0 l 282 0 l 282 51 z "},"Ý":{"ha":1035,"x_min":-25,"x_max":1056,"o":"m 282 51 l 400 81 l 400 465 l 135 933 q 107 975 119 960 q 77 999 94 990 q 35 1012 60 1008 q -25 1018 11 1015 l -25 1069 l 549 1069 l 549 1018 q 479 1009 507 1015 q 436 994 451 1003 q 415 975 421 986 q 408 951 408 964 q 421 911 408 933 l 599 563 l 604 563 l 764 867 q 790 950 790 918 q 756 999 790 983 q 636 1018 722 1015 l 636 1069 l 1056 1069 l 1056 1018 q 985 1008 1013 1014 q 938 988 958 1003 q 899 943 918 972 q 854 864 881 914 l 639 464 l 639 81 l 756 51 l 756 0 l 282 0 l 282 51 m 435 1174 l 608 1304 q 653 1330 632 1322 q 693 1338 675 1338 q 749 1315 729 1338 q 769 1263 769 1292 q 751 1212 769 1236 q 688 1179 732 1188 l 458 1135 l 435 1174 z "},"Ŷ":{"ha":1035,"x_min":-25,"x_max":1056,"o":"m 282 51 l 400 81 l 400 465 l 135 933 q 107 975 119 960 q 77 999 94 990 q 35 1012 60 1008 q -25 1018 11 1015 l -25 1069 l 549 1069 l 549 1018 q 479 1009 507 1015 q 436 994 451 1003 q 415 975 421 986 q 408 951 408 964 q 421 911 408 933 l 599 563 l 604 563 l 764 867 q 790 950 790 918 q 756 999 790 983 q 636 1018 722 1015 l 636 1069 l 1056 1069 l 1056 1018 q 985 1008 1013 1014 q 938 988 958 1003 q 899 943 918 972 q 854 864 881 914 l 639 464 l 639 81 l 756 51 l 756 0 l 282 0 l 282 51 m 601 1333 q 647 1322 625 1333 q 696 1288 668 1311 l 840 1171 l 818 1140 l 600 1197 l 382 1140 l 360 1171 l 501 1288 q 551 1322 529 1311 q 601 1333 574 1333 z "},"Ÿ":{"ha":1035,"x_min":-25,"x_max":1056,"o":"m 282 51 l 400 81 l 400 465 l 135 933 q 107 975 119 960 q 77 999 94 990 q 35 1012 60 1008 q -25 1018 11 1015 l -25 1069 l 549 1069 l 549 1018 q 479 1009 507 1015 q 436 994 451 1003 q 415 975 421 986 q 408 951 408 964 q 421 911 408 933 l 599 563 l 604 563 l 764 867 q 790 950 790 918 q 756 999 790 983 q 636 1018 722 1015 l 636 1069 l 1056 1069 l 1056 1018 q 985 1008 1013 1014 q 938 988 958 1003 q 899 943 918 972 q 854 864 881 914 l 639 464 l 639 81 l 756 51 l 756 0 l 282 0 l 282 51 m 363 1207 q 388 1274 363 1244 q 461 1303 414 1303 q 535 1274 508 1303 q 563 1207 563 1244 q 537 1144 563 1174 q 461 1114 511 1114 q 388 1144 413 1114 q 363 1207 363 1174 m 650 1207 q 676 1274 650 1244 q 749 1303 701 1303 q 823 1274 796 1303 q 850 1207 850 1244 q 825 1144 850 1174 q 749 1114 800 1114 q 675 1144 700 1114 q 650 1207 650 1174 z "},"Ỳ":{"ha":1035,"x_min":-25,"x_max":1056,"o":"m 282 51 l 400 81 l 400 465 l 135 933 q 107 975 119 960 q 77 999 94 990 q 35 1012 60 1008 q -25 1018 11 1015 l -25 1069 l 549 1069 l 549 1018 q 479 1009 507 1015 q 436 994 451 1003 q 415 975 421 986 q 408 951 408 964 q 421 911 408 933 l 599 563 l 604 563 l 764 867 q 790 950 790 918 q 756 999 790 983 q 636 1018 722 1015 l 636 1069 l 1056 1069 l 1056 1018 q 985 1008 1013 1014 q 938 988 958 1003 q 899 943 918 972 q 854 864 881 914 l 639 464 l 639 81 l 756 51 l 756 0 l 282 0 l 282 51 m 724 1135 l 494 1179 q 431 1212 450 1188 q 413 1263 413 1236 q 433 1315 413 1292 q 489 1338 453 1338 q 528 1330 507 1338 q 574 1304 550 1322 l 747 1174 l 724 1135 z "},"Ỹ":{"ha":1035,"x_min":-25,"x_max":1056,"o":"m 282 51 l 400 81 l 400 465 l 135 933 q 107 975 119 960 q 77 999 94 990 q 35 1012 60 1008 q -25 1018 11 1015 l -25 1069 l 549 1069 l 549 1018 q 479 1009 507 1015 q 436 994 451 1003 q 415 975 421 986 q 408 951 408 964 q 421 911 408 933 l 599 563 l 604 563 l 764 867 q 790 950 790 918 q 756 999 790 983 q 636 1018 722 1015 l 636 1069 l 1056 1069 l 1056 1018 q 985 1008 1013 1014 q 938 988 958 1003 q 899 943 918 972 q 854 864 881 914 l 639 464 l 639 81 l 756 51 l 756 0 l 282 0 l 282 51 m 379 1140 q 421 1288 379 1239 q 528 1338 463 1338 q 575 1330 554 1338 q 615 1313 596 1322 q 653 1295 633 1303 q 696 1288 672 1288 q 779 1340 765 1288 l 833 1340 q 798 1192 833 1244 q 692 1139 763 1139 q 642 1147 663 1139 q 602 1166 621 1156 q 564 1185 583 1176 q 518 1193 544 1193 q 460 1178 482 1193 q 433 1140 438 1164 l 379 1140 z "},"Z":{"ha":1014,"x_min":38,"x_max":971,"o":"m 943 1069 l 943 1018 l 360 76 l 761 76 l 778 101 q 860 247 826 176 q 913 364 893 317 l 971 364 l 883 0 l 38 0 l 38 53 l 618 993 l 239 993 l 222 963 q 158 835 182 888 q 124 751 135 783 l 67 751 l 138 1069 l 943 1069 z "},"Ź":{"ha":1014,"x_min":38,"x_max":971,"o":"m 943 1069 l 943 1018 l 360 76 l 761 76 l 778 101 q 860 247 826 176 q 913 364 893 317 l 971 364 l 883 0 l 38 0 l 38 53 l 618 993 l 239 993 l 222 963 q 158 835 182 888 q 124 751 135 783 l 67 751 l 138 1069 l 943 1069 m 388 1174 l 561 1304 q 606 1330 585 1322 q 646 1338 628 1338 q 702 1315 682 1338 q 722 1263 722 1292 q 703 1212 722 1236 q 640 1179 685 1188 l 411 1135 l 388 1174 z "},"Ž":{"ha":1014,"x_min":38,"x_max":971,"o":"m 943 1069 l 943 1018 l 360 76 l 761 76 l 778 101 q 860 247 826 176 q 913 364 893 317 l 971 364 l 883 0 l 38 0 l 38 53 l 618 993 l 239 993 l 222 963 q 158 835 182 888 q 124 751 135 783 l 67 751 l 138 1069 l 943 1069 m 543 1154 q 493 1165 515 1154 q 443 1200 471 1176 l 301 1317 l 324 1347 l 542 1290 l 760 1347 l 782 1317 l 638 1200 q 588 1165 610 1176 q 543 1154 567 1154 z "},"Ż":{"ha":1014,"x_min":38,"x_max":971,"o":"m 943 1069 l 943 1018 l 360 76 l 761 76 l 778 101 q 860 247 826 176 q 913 364 893 317 l 971 364 l 883 0 l 38 0 l 38 53 l 618 993 l 239 993 l 222 963 q 158 835 182 888 q 124 751 135 783 l 67 751 l 138 1069 l 943 1069 m 439 1247 q 465 1313 439 1283 q 538 1342 490 1342 q 612 1313 585 1342 q 639 1247 639 1283 q 613 1182 639 1211 q 538 1153 588 1153 q 464 1182 489 1153 q 439 1247 439 1211 z "},"Ẓ":{"ha":1014,"x_min":38,"x_max":971,"o":"m 943 1069 l 943 1018 l 360 76 l 761 76 l 778 101 q 860 247 826 176 q 913 364 893 317 l 971 364 l 883 0 l 38 0 l 38 53 l 618 993 l 239 993 l 222 963 q 158 835 182 888 q 124 751 135 783 l 67 751 l 138 1069 l 943 1069 m 361 -247 q 392 -167 361 -201 q 481 -132 424 -132 q 572 -167 539 -132 q 604 -247 604 -201 q 573 -326 604 -290 q 481 -361 542 -361 q 392 -326 422 -361 q 361 -247 361 -290 z "},"a":{"ha":813,"x_min":53,"x_max":821,"o":"m 236 -14 q 101 29 150 -14 q 53 150 53 72 q 151 317 53 254 q 460 408 249 379 l 460 510 q 456 588 460 557 q 442 638 451 619 q 417 663 433 656 q 375 669 400 669 q 292 644 322 669 q 263 575 263 619 q 265 544 263 560 q 268 514 268 529 q 240 447 268 474 q 172 421 213 421 q 106 447 132 421 q 81 515 81 474 q 109 603 81 560 q 190 681 138 646 q 310 733 243 715 q 453 750 378 750 q 574 733 528 750 q 643 681 619 715 q 667 613 660 654 q 675 494 675 572 l 675 208 q 688 119 675 146 q 728 92 700 92 q 789 125 760 92 l 821 79 q 618 -14 733 -14 q 515 13 550 -14 q 469 96 481 40 l 464 96 q 236 -14 363 -14 m 364 117 q 460 157 422 117 l 460 343 q 376 322 410 333 q 322 294 342 310 q 293 258 301 279 q 285 207 285 236 q 364 117 285 117 z "},"á":{"ha":813,"x_min":53,"x_max":821,"o":"m 236 -14 q 101 29 150 -14 q 53 150 53 72 q 151 317 53 254 q 460 408 249 379 l 460 510 q 456 588 460 557 q 442 638 451 619 q 417 663 433 656 q 375 669 400 669 q 292 644 322 669 q 263 575 263 619 q 265 544 263 560 q 268 514 268 529 q 240 447 268 474 q 172 421 213 421 q 106 447 132 421 q 81 515 81 474 q 109 603 81 560 q 190 681 138 646 q 310 733 243 715 q 453 750 378 750 q 574 733 528 750 q 643 681 619 715 q 667 613 660 654 q 675 494 675 572 l 675 208 q 688 119 675 146 q 728 92 700 92 q 789 125 760 92 l 821 79 q 618 -14 733 -14 q 515 13 550 -14 q 469 96 481 40 l 464 96 q 236 -14 363 -14 m 364 117 q 460 157 422 117 l 460 343 q 376 322 410 333 q 322 294 342 310 q 293 258 301 279 q 285 207 285 236 q 364 117 285 117 m 324 892 l 381 1101 q 485 1193 406 1193 q 530 1176 513 1193 q 547 1131 547 1158 q 536 1084 547 1110 q 501 1031 525 1058 l 367 876 l 324 892 z "},"ă":{"ha":813,"x_min":53,"x_max":821,"o":"m 236 -14 q 101 29 150 -14 q 53 150 53 72 q 151 317 53 254 q 460 408 249 379 l 460 510 q 456 588 460 557 q 442 638 451 619 q 417 663 433 656 q 375 669 400 669 q 292 644 322 669 q 263 575 263 619 q 265 544 263 560 q 268 514 268 529 q 240 447 268 474 q 172 421 213 421 q 106 447 132 421 q 81 515 81 474 q 109 603 81 560 q 190 681 138 646 q 310 733 243 715 q 453 750 378 750 q 574 733 528 750 q 643 681 619 715 q 667 613 660 654 q 675 494 675 572 l 675 208 q 688 119 675 146 q 728 92 700 92 q 789 125 760 92 l 821 79 q 618 -14 733 -14 q 515 13 550 -14 q 469 96 481 40 l 464 96 q 236 -14 363 -14 m 364 117 q 460 157 422 117 l 460 343 q 376 322 410 333 q 322 294 342 310 q 293 258 301 279 q 285 207 285 236 q 364 117 285 117 m 293 1097 q 349 1049 310 1064 q 433 1035 388 1035 q 516 1049 478 1035 q 578 1097 554 1064 l 646 1097 q 601 987 628 1028 q 543 924 574 946 q 482 897 513 903 q 428 890 451 890 q 362 901 396 890 q 299 935 328 911 q 250 999 271 960 q 224 1097 229 1039 l 293 1097 z "},"â":{"ha":813,"x_min":53,"x_max":821,"o":"m 236 -14 q 101 29 150 -14 q 53 150 53 72 q 151 317 53 254 q 460 408 249 379 l 460 510 q 456 588 460 557 q 442 638 451 619 q 417 663 433 656 q 375 669 400 669 q 292 644 322 669 q 263 575 263 619 q 265 544 263 560 q 268 514 268 529 q 240 447 268 474 q 172 421 213 421 q 106 447 132 421 q 81 515 81 474 q 109 603 81 560 q 190 681 138 646 q 310 733 243 715 q 453 750 378 750 q 574 733 528 750 q 643 681 619 715 q 667 613 660 654 q 675 494 675 572 l 675 208 q 688 119 675 146 q 728 92 700 92 q 789 125 760 92 l 821 79 q 618 -14 733 -14 q 515 13 550 -14 q 469 96 481 40 l 464 96 q 236 -14 363 -14 m 364 117 q 460 157 422 117 l 460 343 q 376 322 410 333 q 322 294 342 310 q 293 258 301 279 q 285 207 285 236 q 364 117 285 117 m 431 1193 q 483 1178 463 1193 q 522 1126 503 1163 l 642 892 l 599 875 l 429 1036 l 260 875 l 217 892 l 333 1126 q 374 1178 351 1163 q 431 1193 397 1193 z "},"´":{"ha":251,"x_min":14,"x_max":238,"o":"m 14 892 l 71 1101 q 175 1193 96 1193 q 220 1176 203 1193 q 238 1131 238 1158 q 226 1084 238 1110 q 192 1031 215 1058 l 57 876 l 14 892 z "},"ä":{"ha":813,"x_min":53,"x_max":821,"o":"m 236 -14 q 101 29 150 -14 q 53 150 53 72 q 151 317 53 254 q 460 408 249 379 l 460 510 q 456 588 460 557 q 442 638 451 619 q 417 663 433 656 q 375 669 400 669 q 292 644 322 669 q 263 575 263 619 q 265 544 263 560 q 268 514 268 529 q 240 447 268 474 q 172 421 213 421 q 106 447 132 421 q 81 515 81 474 q 109 603 81 560 q 190 681 138 646 q 310 733 243 715 q 453 750 378 750 q 574 733 528 750 q 643 681 619 715 q 667 613 660 654 q 675 494 675 572 l 675 208 q 688 119 675 146 q 728 92 700 92 q 789 125 760 92 l 821 79 q 618 -14 733 -14 q 515 13 550 -14 q 469 96 481 40 l 464 96 q 236 -14 363 -14 m 364 117 q 460 157 422 117 l 460 343 q 376 322 410 333 q 322 294 342 310 q 293 258 301 279 q 285 207 285 236 q 364 117 285 117 m 165 983 q 193 1053 165 1024 q 269 1083 221 1083 q 347 1053 318 1083 q 376 983 376 1024 q 349 916 376 947 q 269 885 322 885 q 192 916 218 885 q 165 983 165 947 m 468 983 q 496 1053 468 1024 q 572 1083 524 1083 q 650 1053 621 1083 q 679 983 679 1024 q 652 916 679 947 q 572 885 625 885 q 494 916 521 885 q 468 983 468 947 z "},"æ":{"ha":1247,"x_min":53,"x_max":1206,"o":"m 242 -14 q 101 28 150 -14 q 53 149 53 71 q 150 317 53 254 q 460 408 247 379 l 460 510 q 456 588 460 557 q 442 638 451 619 q 417 663 433 656 q 375 669 400 669 q 292 644 322 669 q 263 575 263 619 q 265 544 263 560 q 268 514 268 529 q 240 447 268 474 q 172 421 213 421 q 106 447 132 421 q 81 514 81 474 q 110 601 81 557 q 190 681 139 646 q 308 732 242 714 q 454 750 375 750 q 563 735 521 750 q 636 688 606 721 q 875 750 736 750 q 1117 665 1033 750 q 1206 411 1200 579 l 1194 403 l 689 403 q 907 129 690 129 q 1035 153 975 129 q 1133 221 1096 178 l 1143 232 l 1182 199 l 1175 182 q 1047 38 1136 90 q 838 -14 957 -14 q 658 22 738 -14 q 529 128 579 58 l 524 128 q 383 19 449 53 q 242 -14 317 -14 m 858 679 q 743 625 786 679 q 692 468 700 571 l 975 479 q 979 505 978 490 q 981 535 981 519 q 949 642 981 606 q 858 679 918 679 m 368 117 q 496 181 431 117 q 469 258 478 217 q 458 343 460 300 q 326 291 368 325 q 285 203 285 257 q 307 140 285 163 q 368 117 329 117 z "},"ǽ":{"ha":1247,"x_min":53,"x_max":1206,"o":"m 242 -14 q 101 28 150 -14 q 53 149 53 71 q 150 317 53 254 q 460 408 247 379 l 460 510 q 456 588 460 557 q 442 638 451 619 q 417 663 433 656 q 375 669 400 669 q 292 644 322 669 q 263 575 263 619 q 265 544 263 560 q 268 514 268 529 q 240 447 268 474 q 172 421 213 421 q 106 447 132 421 q 81 514 81 474 q 110 601 81 557 q 190 681 139 646 q 308 732 242 714 q 454 750 375 750 q 563 735 521 750 q 636 688 606 721 q 875 750 736 750 q 1117 665 1033 750 q 1206 411 1200 579 l 1194 403 l 689 403 q 907 129 690 129 q 1035 153 975 129 q 1133 221 1096 178 l 1143 232 l 1182 199 l 1175 182 q 1047 38 1136 90 q 838 -14 957 -14 q 658 22 738 -14 q 529 128 579 58 l 524 128 q 383 19 449 53 q 242 -14 317 -14 m 858 679 q 743 625 786 679 q 692 468 700 571 l 975 479 q 979 505 978 490 q 981 535 981 519 q 949 642 981 606 q 858 679 918 679 m 368 117 q 496 181 431 117 q 469 258 478 217 q 458 343 460 300 q 326 291 368 325 q 285 203 285 257 q 307 140 285 163 q 368 117 329 117 m 508 892 l 565 1101 q 669 1193 590 1193 q 715 1176 697 1193 q 732 1131 732 1158 q 721 1084 732 1110 q 686 1031 710 1058 l 551 876 l 508 892 z "},"à":{"ha":813,"x_min":53,"x_max":821,"o":"m 494 876 l 360 1031 q 325 1084 336 1058 q 314 1131 314 1110 q 331 1176 314 1158 q 376 1193 349 1193 q 481 1101 456 1193 l 538 892 l 494 876 m 236 -14 q 101 29 150 -14 q 53 150 53 72 q 151 317 53 254 q 460 408 249 379 l 460 510 q 456 588 460 557 q 442 638 451 619 q 417 663 433 656 q 375 669 400 669 q 292 644 322 669 q 263 575 263 619 q 265 544 263 560 q 268 514 268 529 q 240 447 268 474 q 172 421 213 421 q 106 447 132 421 q 81 515 81 474 q 109 603 81 560 q 190 681 138 646 q 310 733 243 715 q 453 750 378 750 q 574 733 528 750 q 643 681 619 715 q 667 613 660 654 q 675 494 675 572 l 675 208 q 688 119 675 146 q 728 92 700 92 q 789 125 760 92 l 821 79 q 618 -14 733 -14 q 515 13 550 -14 q 469 96 481 40 l 464 96 q 236 -14 363 -14 m 364 117 q 460 157 422 117 l 460 343 q 376 322 410 333 q 322 294 342 310 q 293 258 301 279 q 285 207 285 236 q 364 117 285 117 z "},"ā":{"ha":813,"x_min":53,"x_max":821,"o":"m 236 -14 q 101 29 150 -14 q 53 150 53 72 q 151 317 53 254 q 460 408 249 379 l 460 510 q 456 588 460 557 q 442 638 451 619 q 417 663 433 656 q 375 669 400 669 q 292 644 322 669 q 263 575 263 619 q 265 544 263 560 q 268 514 268 529 q 240 447 268 474 q 172 421 213 421 q 106 447 132 421 q 81 515 81 474 q 109 603 81 560 q 190 681 138 646 q 310 733 243 715 q 453 750 378 750 q 574 733 528 750 q 643 681 619 715 q 667 613 660 654 q 675 494 675 572 l 675 208 q 688 119 675 146 q 728 92 700 92 q 789 125 760 92 l 821 79 q 618 -14 733 -14 q 515 13 550 -14 q 469 96 481 40 l 464 96 q 236 -14 363 -14 m 364 117 q 460 157 422 117 l 460 343 q 376 322 410 333 q 322 294 342 310 q 293 258 301 279 q 285 207 285 236 q 364 117 285 117 m 204 964 l 204 1097 l 631 1097 l 631 964 l 204 964 z "},"&":{"ha":1146,"x_min":79,"x_max":1157,"o":"m 354 594 q 294 678 317 640 q 259 747 271 717 q 243 802 247 778 q 239 844 239 826 q 264 946 239 901 q 329 1021 289 990 q 419 1067 369 1051 q 519 1083 469 1083 q 604 1070 565 1083 q 672 1034 643 1057 q 718 978 701 1011 q 735 907 735 946 q 719 835 735 869 q 680 769 704 800 q 625 709 656 738 q 563 657 594 681 l 821 339 q 855 444 844 392 q 865 539 865 496 q 862 572 865 560 q 847 591 858 583 q 811 603 835 599 q 747 613 788 607 l 747 671 l 1101 671 l 1101 613 q 1036 601 1060 608 q 999 585 1013 594 q 978 560 985 575 q 967 524 972 544 q 930 417 956 481 q 865 285 904 353 l 1024 89 l 1157 50 l 1157 0 l 839 0 l 742 118 q 658 51 700 76 q 576 10 617 25 q 494 -9 535 -4 q 414 -14 453 -14 q 263 6 326 -14 q 159 60 200 25 q 99 144 118 94 q 79 251 79 193 q 94 341 79 301 q 141 419 108 381 q 226 499 174 457 q 354 594 278 540 m 281 324 q 294 238 281 279 q 335 163 308 196 q 400 109 361 129 q 490 89 439 89 q 594 110 540 89 q 697 172 649 132 l 397 542 q 354 502 375 524 q 317 453 333 481 q 290 394 300 426 q 281 324 281 363 m 589 881 q 581 948 589 921 q 562 992 574 975 q 535 1015 550 1008 q 504 1022 519 1022 q 448 997 472 1022 q 424 914 424 971 q 445 822 424 867 q 517 714 467 778 q 573 791 557 753 q 589 881 589 829 z "},"ą":{"ha":813,"x_min":53,"x_max":821,"o":"m 803 -281 q 622 -356 726 -356 q 519 -323 557 -356 q 481 -233 481 -290 q 517 -124 481 -182 q 618 -14 553 -67 q 515 13 550 -14 q 469 96 481 40 l 464 96 q 236 -14 363 -14 q 101 29 150 -14 q 53 150 53 72 q 151 317 53 254 q 460 408 249 379 l 460 510 q 456 588 460 557 q 442 638 451 619 q 417 663 433 656 q 375 669 400 669 q 292 644 322 669 q 263 575 263 619 q 265 544 263 560 q 268 514 268 529 q 240 447 268 474 q 172 421 213 421 q 106 447 132 421 q 81 515 81 474 q 109 603 81 560 q 190 681 138 646 q 310 733 243 715 q 453 750 378 750 q 574 733 528 750 q 643 681 619 715 q 667 613 660 654 q 675 494 675 572 l 675 208 q 688 119 675 146 q 728 92 700 92 q 789 125 760 92 l 821 79 l 740 15 q 660 -82 682 -32 q 638 -172 638 -132 q 704 -251 638 -251 q 741 -244 724 -251 q 782 -222 758 -237 l 803 -281 m 364 117 q 460 157 422 117 l 460 343 q 376 322 410 333 q 322 294 342 310 q 293 258 301 279 q 285 207 285 236 q 364 117 285 117 z "},"ʼ":{"ha":226,"x_min":14,"x_max":213,"o":"m 35 899 q 88 946 69 922 q 107 989 107 969 q 92 1017 107 1007 q 60 1038 78 1028 q 28 1064 43 1049 q 14 1107 14 1079 q 41 1167 14 1143 q 110 1190 68 1190 q 185 1158 157 1190 q 213 1067 213 1125 q 174 947 213 1000 q 63 861 135 894 l 35 899 z "},"å":{"ha":813,"x_min":53,"x_max":821,"o":"m 236 -14 q 101 29 150 -14 q 53 150 53 72 q 151 317 53 254 q 460 408 249 379 l 460 510 q 456 588 460 557 q 442 638 451 619 q 417 663 433 656 q 375 669 400 669 q 292 644 322 669 q 263 575 263 619 q 265 544 263 560 q 268 514 268 529 q 240 447 268 474 q 172 421 213 421 q 106 447 132 421 q 81 515 81 474 q 109 603 81 560 q 190 681 138 646 q 310 733 243 715 q 453 750 378 750 q 574 733 528 750 q 643 681 619 715 q 667 613 660 654 q 675 494 675 572 l 675 208 q 688 119 675 146 q 728 92 700 92 q 789 125 760 92 l 821 79 q 618 -14 733 -14 q 515 13 550 -14 q 469 96 481 40 l 464 96 q 236 -14 363 -14 m 364 117 q 460 157 422 117 l 460 343 q 376 322 410 333 q 322 294 342 310 q 293 258 301 279 q 285 207 285 236 q 364 117 285 117 m 426 904 q 342 938 374 904 q 311 1019 311 971 q 344 1101 311 1068 q 426 1135 378 1135 q 508 1101 475 1135 q 542 1019 542 1068 q 508 938 542 971 q 426 904 475 904 m 381 1019 q 393 986 381 999 q 426 974 406 974 q 460 986 447 974 q 472 1019 472 999 q 460 1053 472 1040 q 426 1065 447 1065 q 393 1053 406 1065 q 381 1019 381 1040 z "},"ǻ":{"ha":813,"x_min":53,"x_max":821,"o":"m 236 -14 q 101 29 150 -14 q 53 150 53 72 q 151 317 53 254 q 460 408 249 379 l 460 510 q 456 588 460 557 q 442 638 451 619 q 417 663 433 656 q 375 669 400 669 q 292 644 322 669 q 263 575 263 619 q 265 544 263 560 q 268 514 268 529 q 240 447 268 474 q 172 421 213 421 q 106 447 132 421 q 81 515 81 474 q 109 603 81 560 q 190 681 138 646 q 310 733 243 715 q 453 750 378 750 q 574 733 528 750 q 643 681 619 715 q 667 613 660 654 q 675 494 675 572 l 675 208 q 688 119 675 146 q 728 92 700 92 q 789 125 760 92 l 821 79 q 618 -14 733 -14 q 515 13 550 -14 q 469 96 481 40 l 464 96 q 236 -14 363 -14 m 306 1218 q 410 1310 331 1310 q 455 1292 438 1310 q 472 1247 472 1275 q 461 1201 472 1226 q 426 1147 450 1175 l 372 1085 q 445 1048 417 1081 q 474 971 474 1015 q 440 889 474 922 q 358 856 407 856 q 274 889 306 856 q 243 971 243 922 q 249 1008 243 992 l 306 1218 m 364 117 q 460 157 422 117 l 460 343 q 376 322 410 333 q 322 294 342 310 q 293 258 301 279 q 285 207 285 236 q 364 117 285 117 m 313 971 q 325 938 313 950 q 358 925 338 925 q 392 938 379 925 q 404 971 404 950 q 392 1004 404 992 q 358 1017 379 1017 q 325 1004 338 1017 q 313 971 313 992 z "},"^":{"ha":674,"x_min":56,"x_max":618,"o":"m 56 461 l 313 988 l 363 988 l 618 461 l 532 461 l 339 846 l 333 846 l 143 461 l 56 461 z "},"~":{"ha":789,"x_min":97,"x_max":694,"o":"m 97 310 q 105 369 97 336 q 131 431 113 403 q 181 479 150 460 q 261 499 213 499 q 335 488 299 499 q 409 463 372 476 q 483 438 446 449 q 558 426 519 426 q 624 447 606 426 q 653 499 643 467 l 694 499 q 687 438 694 471 q 660 377 679 406 q 610 329 642 349 q 531 310 578 310 q 456 322 493 310 q 383 347 419 333 q 308 372 346 360 q 233 383 271 383 q 167 363 186 383 q 139 310 149 342 l 97 310 z "},"*":{"ha":671,"x_min":75,"x_max":596,"o":"m 364 821 l 368 761 q 374 727 369 742 q 385 699 379 713 q 395 673 390 686 q 400 646 400 660 q 381 592 400 610 q 335 575 361 575 q 291 592 310 575 q 272 647 272 610 q 277 674 272 661 q 288 699 282 686 q 299 728 294 713 q 306 765 304 744 l 308 821 l 263 786 q 228 753 242 771 q 203 722 215 736 q 176 697 190 707 q 139 688 161 688 q 95 707 113 688 q 78 753 78 726 q 95 799 78 783 q 138 820 113 814 q 189 830 163 826 q 233 842 215 833 l 282 864 l 229 888 q 183 899 210 896 q 133 910 157 903 q 92 931 108 917 q 75 975 75 946 q 92 1019 75 999 q 136 1040 108 1040 q 174 1031 160 1040 q 202 1006 189 1021 q 229 973 215 990 q 264 942 243 956 l 308 911 l 303 967 q 295 1001 300 986 q 285 1030 290 1017 q 275 1056 279 1043 q 271 1082 271 1068 q 290 1135 271 1118 q 335 1153 310 1153 q 378 1135 358 1153 q 399 1082 399 1118 q 394 1055 399 1067 q 383 1029 389 1043 q 372 1000 376 1015 q 365 964 367 985 l 363 911 l 407 942 q 442 973 428 956 q 468 1006 456 990 q 495 1031 481 1021 q 533 1040 510 1040 q 578 1019 561 1040 q 596 975 596 999 q 578 931 596 946 q 536 910 561 917 q 485 899 511 903 q 442 888 458 896 l 389 864 l 438 842 q 483 829 457 833 q 534 818 510 825 q 576 797 558 811 q 593 753 593 783 q 576 707 593 726 q 532 688 558 688 q 494 697 510 688 q 467 722 479 707 q 441 753 454 736 q 408 786 428 771 l 364 821 z "},"@":{"ha":1278,"x_min":63,"x_max":1203,"o":"m 621 -221 q 394 -187 497 -221 q 218 -88 292 -153 q 103 69 144 -24 q 63 279 63 161 q 118 533 63 418 q 265 730 174 647 q 476 858 357 813 q 721 903 594 903 q 926 867 836 903 q 1077 770 1015 831 q 1171 631 1139 710 q 1203 467 1203 551 q 1175 310 1203 386 q 1099 174 1147 233 q 984 77 1050 114 q 842 40 918 40 q 783 47 811 40 q 736 72 756 54 q 708 115 717 90 q 694 167 699 139 l 689 167 q 588 90 640 118 q 478 63 535 63 q 425 69 454 63 q 369 95 396 76 q 326 149 343 114 q 308 240 308 183 q 335 379 308 308 q 411 508 363 450 q 526 603 460 567 q 672 640 593 640 q 749 624 724 640 q 789 583 774 608 l 794 583 l 807 640 l 969 640 l 857 251 q 850 224 853 236 q 847 196 847 211 q 897 140 847 140 q 968 164 932 140 q 1032 229 1004 188 q 1078 330 1060 271 q 1096 460 1096 389 q 1067 614 1096 547 q 988 726 1039 681 q 865 794 938 771 q 706 818 793 818 q 489 778 589 818 q 316 667 389 738 q 202 498 243 596 q 161 286 161 400 q 192 108 161 188 q 285 -29 224 28 q 438 -117 347 -86 q 650 -147 529 -147 q 799 -130 733 -147 q 924 -78 865 -112 l 949 -137 q 805 -199 889 -178 q 621 -221 721 -221 m 539 138 q 612 173 571 138 q 690 294 653 208 q 723 387 706 329 q 740 501 740 444 q 732 548 740 531 q 699 565 724 565 q 626 531 663 565 q 560 444 589 496 q 512 330 531 392 q 493 214 493 268 q 539 138 493 138 z "},"ã":{"ha":813,"x_min":53,"x_max":821,"o":"m 236 -14 q 101 29 150 -14 q 53 150 53 72 q 151 317 53 254 q 460 408 249 379 l 460 510 q 456 588 460 557 q 442 638 451 619 q 417 663 433 656 q 375 669 400 669 q 292 644 322 669 q 263 575 263 619 q 265 544 263 560 q 268 514 268 529 q 240 447 268 474 q 172 421 213 421 q 106 447 132 421 q 81 515 81 474 q 109 603 81 560 q 190 681 138 646 q 310 733 243 715 q 453 750 378 750 q 574 733 528 750 q 643 681 619 715 q 667 613 660 654 q 675 494 675 572 l 675 208 q 688 119 675 146 q 728 92 700 92 q 789 125 760 92 l 821 79 q 618 -14 733 -14 q 515 13 550 -14 q 469 96 481 40 l 464 96 q 236 -14 363 -14 m 364 117 q 460 157 422 117 l 460 343 q 376 322 410 333 q 322 294 342 310 q 293 258 301 279 q 285 207 285 236 q 364 117 285 117 m 197 921 q 239 1071 197 1019 q 346 1122 281 1122 q 393 1115 372 1122 q 433 1097 414 1107 q 471 1080 451 1088 q 514 1072 490 1072 q 597 1125 583 1072 l 651 1125 q 616 974 651 1029 q 510 919 581 919 q 460 928 481 919 q 420 947 439 936 q 382 965 401 957 q 336 974 363 974 q 278 959 300 974 q 251 921 256 944 l 197 921 z "},"b":{"ha":914,"x_min":-7,"x_max":863,"o":"m 486 -14 q 376 2 429 -14 q 278 50 322 18 l 269 50 l 150 0 l 110 0 l 110 1015 l -7 1053 l -7 1085 l 294 1153 l 325 1153 l 325 651 q 431 724 372 697 q 556 750 489 750 q 680 724 624 750 q 777 652 736 699 q 840 541 818 606 q 863 399 863 476 q 833 235 863 311 q 753 104 804 160 q 634 17 703 49 q 486 -14 565 -14 m 458 61 q 528 83 497 61 q 582 143 560 104 q 616 238 604 182 q 628 360 628 293 q 584 567 628 493 q 460 642 540 642 q 384 620 418 642 q 325 561 350 599 l 325 236 q 361 109 325 157 q 458 61 397 61 z "},"\\":{"ha":525,"x_min":53,"x_max":469,"o":"m 332 -235 l 53 1138 l 192 1138 l 469 -235 l 332 -235 z "},"|":{"ha":394,"x_min":128,"x_max":267,"o":"m 128 -221 l 128 1138 l 267 1138 l 267 -221 l 128 -221 z "},"{":{"ha":472,"x_min":31,"x_max":442,"o":"m 442 -250 q 310 -269 376 -269 q 171 -229 214 -269 q 128 -97 128 -189 q 133 -15 128 -60 q 146 77 139 29 q 158 174 153 125 q 164 269 164 224 q 134 396 164 360 q 31 432 104 432 l 31 489 q 133 524 103 489 q 164 643 164 560 q 158 727 164 682 q 146 817 153 772 q 133 901 139 861 q 128 974 128 942 q 177 1105 128 1060 q 319 1150 226 1150 q 383 1145 351 1150 q 442 1132 414 1140 l 426 1075 q 397 1081 407 1079 q 376 1082 388 1082 q 285 971 285 1082 q 290 902 285 942 q 302 818 296 863 q 314 728 308 774 q 319 644 319 683 q 219 461 319 500 l 219 456 q 296 395 272 435 q 319 281 319 356 q 314 189 319 240 q 302 86 308 138 q 290 -12 296 35 q 285 -90 285 -60 q 306 -172 285 -147 q 376 -197 328 -197 q 426 -189 403 -197 l 442 -250 z "},"}":{"ha":472,"x_min":31,"x_max":442,"o":"m 46 -189 q 96 -197 68 -197 q 166 -172 144 -197 q 188 -90 188 -147 q 182 -12 188 -60 q 170 86 176 35 q 158 189 164 138 q 153 281 153 240 q 176 395 153 356 q 253 456 200 435 l 253 461 q 153 644 153 500 q 158 728 153 683 q 170 818 164 774 q 182 902 176 863 q 188 971 188 942 q 96 1082 188 1082 q 75 1081 85 1082 q 46 1075 65 1079 l 31 1132 q 90 1145 58 1140 q 153 1150 121 1150 q 295 1105 246 1150 q 344 974 344 1060 q 339 901 344 942 q 326 817 333 861 q 314 727 319 772 q 308 643 308 682 q 339 524 308 560 q 442 489 369 489 l 442 432 q 338 396 368 432 q 308 269 308 360 q 314 174 308 224 q 326 77 319 125 q 339 -15 333 29 q 344 -97 344 -60 q 301 -229 344 -189 q 163 -269 258 -269 q 31 -250 96 -269 l 46 -189 z "},"[":{"ha":468,"x_min":128,"x_max":440,"o":"m 128 -260 l 128 1139 l 440 1139 l 440 1069 l 290 1069 l 290 -192 l 440 -192 l 440 -260 l 128 -260 z "},"]":{"ha":468,"x_min":28,"x_max":340,"o":"m 28 -260 l 28 -192 l 178 -192 l 178 1069 l 28 1069 l 28 1139 l 340 1139 l 340 -260 l 28 -260 z "},"˘":{"ha":450,"x_min":14,"x_max":436,"o":"m 83 1097 q 139 1049 100 1064 q 224 1035 178 1035 q 306 1049 268 1035 q 368 1097 344 1064 l 436 1097 q 391 987 418 1028 q 333 924 364 946 q 272 897 303 903 q 218 890 242 890 q 152 901 186 890 q 90 935 118 911 q 40 999 61 960 q 14 1097 19 1039 l 83 1097 z "},"¦":{"ha":394,"x_min":131,"x_max":264,"o":"m 131 599 l 131 1138 l 264 1138 l 264 599 l 131 599 m 131 -237 l 131 301 l 264 301 l 264 -237 l 131 -237 z "},"•":{"ha":600,"x_min":100,"x_max":501,"o":"m 100 519 q 116 594 100 558 q 160 655 132 629 q 224 696 188 681 q 301 711 260 711 q 379 696 343 711 q 442 655 415 681 q 485 594 469 629 q 501 519 501 558 q 485 444 501 479 q 442 384 469 410 q 379 343 415 358 q 301 328 343 328 q 224 343 260 328 q 160 384 188 358 q 116 444 132 410 q 100 519 100 479 z "},"c":{"ha":793,"x_min":50,"x_max":754,"o":"m 424 -14 q 273 14 342 -14 q 155 91 204 42 q 78 208 106 140 q 50 358 50 276 q 81 515 50 443 q 165 640 111 588 q 295 721 219 692 q 461 750 371 750 q 578 736 524 750 q 671 697 632 722 q 732 638 710 672 q 754 565 754 604 q 729 497 754 522 q 661 472 704 472 q 618 481 635 472 q 591 502 601 489 q 576 531 581 515 q 569 563 571 547 q 561 608 567 588 q 544 644 556 629 q 514 669 532 660 q 468 678 496 678 q 332 606 381 678 q 283 401 283 535 q 335 198 283 267 q 490 129 386 129 q 696 221 617 129 l 706 232 l 744 201 l 738 185 q 616 35 696 85 q 424 -14 536 -14 z "},"ć":{"ha":793,"x_min":50,"x_max":754,"o":"m 424 -14 q 273 14 342 -14 q 155 91 204 42 q 78 208 106 140 q 50 358 50 276 q 81 515 50 443 q 165 640 111 588 q 295 721 219 692 q 461 750 371 750 q 578 736 524 750 q 671 697 632 722 q 732 638 710 672 q 754 565 754 604 q 729 497 754 522 q 661 472 704 472 q 618 481 635 472 q 591 502 601 489 q 576 531 581 515 q 569 563 571 547 q 561 608 567 588 q 544 644 556 629 q 514 669 532 660 q 468 678 496 678 q 332 606 381 678 q 283 401 283 535 q 335 198 283 267 q 490 129 386 129 q 696 221 617 129 l 706 232 l 744 201 l 738 185 q 616 35 696 85 q 424 -14 536 -14 m 367 892 l 424 1101 q 528 1193 449 1193 q 573 1176 556 1193 q 590 1131 590 1158 q 579 1084 590 1110 q 544 1031 568 1058 l 410 876 l 367 892 z "},"ˇ":{"ha":453,"x_min":14,"x_max":439,"o":"m 228 875 q 172 890 194 875 q 131 942 149 906 l 14 1176 l 57 1193 l 226 1032 l 396 1193 l 439 1176 l 319 942 q 280 890 300 906 q 228 875 260 875 z "},"č":{"ha":793,"x_min":50,"x_max":754,"o":"m 424 -14 q 273 14 342 -14 q 155 91 204 42 q 78 208 106 140 q 50 358 50 276 q 81 515 50 443 q 165 640 111 588 q 295 721 219 692 q 461 750 371 750 q 578 736 524 750 q 671 697 632 722 q 732 638 710 672 q 754 565 754 604 q 729 497 754 522 q 661 472 704 472 q 618 481 635 472 q 591 502 601 489 q 576 531 581 515 q 569 563 571 547 q 561 608 567 588 q 544 644 556 629 q 514 669 532 660 q 468 678 496 678 q 332 606 381 678 q 283 401 283 535 q 335 198 283 267 q 490 129 386 129 q 696 221 617 129 l 706 232 l 744 201 l 738 185 q 616 35 696 85 q 424 -14 536 -14 m 467 875 q 410 890 433 875 q 369 942 388 906 l 253 1176 l 296 1193 l 465 1032 l 635 1193 l 678 1176 l 558 942 q 519 890 539 906 q 467 875 499 875 z "},"ç":{"ha":793,"x_min":50,"x_max":754,"o":"m 310 -261 q 385 -281 347 -281 q 437 -265 417 -281 q 457 -229 457 -249 q 442 -199 457 -210 q 404 -187 428 -187 q 372 -190 390 -187 q 340 -199 354 -193 l 321 -186 l 389 -12 q 251 23 314 -7 q 144 101 189 53 q 75 215 100 150 q 50 358 50 281 q 81 515 50 443 q 165 640 111 588 q 295 721 219 692 q 461 750 371 750 q 578 736 524 750 q 671 697 632 722 q 732 638 710 672 q 754 565 754 604 q 729 497 754 522 q 661 472 704 472 q 618 481 635 472 q 591 502 601 489 q 576 531 581 515 q 569 563 571 547 q 561 608 567 588 q 544 644 556 629 q 514 669 532 660 q 468 678 496 678 q 332 606 381 678 q 283 401 283 535 q 335 198 283 267 q 490 129 386 129 q 696 221 617 129 l 706 232 l 744 201 l 738 185 q 469 -11 663 6 l 443 -81 q 560 -119 518 -81 q 603 -217 603 -158 q 553 -317 603 -278 q 419 -357 504 -357 q 342 -348 379 -357 q 283 -324 306 -339 l 310 -261 z "},"ĉ":{"ha":793,"x_min":50,"x_max":754,"o":"m 424 -14 q 273 14 342 -14 q 155 91 204 42 q 78 208 106 140 q 50 358 50 276 q 81 515 50 443 q 165 640 111 588 q 295 721 219 692 q 461 750 371 750 q 578 736 524 750 q 671 697 632 722 q 732 638 710 672 q 754 565 754 604 q 729 497 754 522 q 661 472 704 472 q 618 481 635 472 q 591 502 601 489 q 576 531 581 515 q 569 563 571 547 q 561 608 567 588 q 544 644 556 629 q 514 669 532 660 q 468 678 496 678 q 332 606 381 678 q 283 401 283 535 q 335 198 283 267 q 490 129 386 129 q 696 221 617 129 l 706 232 l 744 201 l 738 185 q 616 35 696 85 q 424 -14 536 -14 m 471 1193 q 523 1178 503 1193 q 563 1126 543 1163 l 682 892 l 639 875 l 469 1036 l 300 875 l 257 892 l 374 1126 q 415 1178 392 1163 q 471 1193 438 1193 z "},"ċ":{"ha":793,"x_min":50,"x_max":754,"o":"m 424 -14 q 273 14 342 -14 q 155 91 204 42 q 78 208 106 140 q 50 358 50 276 q 81 515 50 443 q 165 640 111 588 q 295 721 219 692 q 461 750 371 750 q 578 736 524 750 q 671 697 632 722 q 732 638 710 672 q 754 565 754 604 q 729 497 754 522 q 661 472 704 472 q 618 481 635 472 q 591 502 601 489 q 576 531 581 515 q 569 563 571 547 q 561 608 567 588 q 544 644 556 629 q 514 669 532 660 q 468 678 496 678 q 332 606 381 678 q 283 401 283 535 q 335 198 283 267 q 490 129 386 129 q 696 221 617 129 l 706 232 l 744 201 l 738 185 q 616 35 696 85 q 424 -14 536 -14 m 346 967 q 377 1047 346 1013 q 465 1082 408 1082 q 556 1047 524 1082 q 589 967 589 1013 q 558 888 589 924 q 465 853 526 853 q 376 888 407 853 q 346 967 346 924 z "},"¸":{"ha":347,"x_min":14,"x_max":333,"o":"m 40 -261 q 115 -281 78 -281 q 167 -265 147 -281 q 188 -229 188 -249 q 173 -199 188 -210 q 135 -187 158 -187 q 103 -190 121 -187 q 71 -199 85 -193 l 51 -186 l 135 24 l 214 24 l 174 -81 q 291 -119 249 -81 q 333 -217 333 -158 q 284 -317 333 -278 q 150 -357 235 -357 q 73 -348 110 -357 q 14 -324 36 -339 l 40 -261 z "},"¢":{"ha":746,"x_min":60,"x_max":693,"o":"m 438 750 q 539 735 492 749 q 620 700 586 722 q 674 649 654 678 q 693 586 693 619 q 676 528 693 550 q 629 507 660 507 q 574 528 593 507 q 547 594 554 550 q 512 673 539 647 q 438 704 485 699 l 438 88 q 558 113 503 88 q 650 189 613 138 l 665 210 l 692 196 l 685 178 q 589 46 653 94 q 438 -11 525 -3 l 438 -181 l 379 -181 l 379 -12 q 249 20 308 -8 q 149 97 190 49 q 83 213 107 146 q 60 358 60 279 q 83 505 60 438 q 148 623 106 572 q 249 706 190 674 q 379 747 308 739 l 379 931 l 438 931 l 438 750 m 201 386 q 247 189 201 264 q 379 94 293 114 l 379 703 q 311 670 343 696 q 255 603 279 644 q 216 508 231 563 q 201 386 201 453 z "},"ˆ":{"ha":453,"x_min":14,"x_max":439,"o":"m 228 1193 q 280 1178 260 1193 q 319 1126 300 1163 l 439 892 l 396 875 l 226 1036 l 57 875 l 14 892 l 131 1126 q 172 1178 149 1163 q 228 1193 194 1193 z "},":":{"ha":417,"x_min":88,"x_max":329,"o":"m 88 539 q 118 619 88 585 q 206 654 149 654 q 297 619 264 654 q 329 539 329 585 q 298 460 329 496 q 206 425 267 425 q 117 460 147 425 q 88 539 88 496 m 88 100 q 118 181 88 146 q 206 215 149 215 q 297 181 264 215 q 329 100 329 146 q 298 22 329 57 q 206 -14 267 -14 q 117 22 147 -14 q 88 100 88 57 z "},",":{"ha":385,"x_min":71,"x_max":313,"o":"m 96 -175 q 172 -102 142 -142 q 201 -35 201 -62 q 181 3 201 -10 q 136 30 161 17 q 91 63 111 43 q 71 121 71 83 q 104 199 71 168 q 189 229 138 229 q 280 185 247 229 q 313 65 313 142 q 265 -100 313 -25 q 129 -221 217 -175 l 96 -175 z "},"":{"ha":215,"x_min":14,"x_max":201,"o":"m 32 -328 q 66 -285 53 -308 q 79 -247 79 -262 q 69 -223 79 -232 q 47 -204 58 -214 q 24 -181 35 -194 q 14 -146 14 -168 q 40 -93 14 -114 q 107 -72 67 -72 q 176 -101 151 -72 q 201 -181 201 -131 q 166 -286 201 -239 q 64 -361 131 -333 l 32 -328 z "},"©":{"ha":1231,"x_min":64,"x_max":1167,"o":"m 64 535 q 107 747 64 647 q 225 922 150 847 q 401 1040 300 997 q 615 1083 501 1083 q 830 1040 729 1083 q 1006 922 931 997 q 1124 747 1081 847 q 1167 535 1167 647 q 1124 322 1167 422 q 1006 147 1081 222 q 830 29 931 72 q 615 -14 729 -14 q 401 29 501 -14 q 225 147 300 72 q 107 322 150 222 q 64 535 64 422 m 154 535 q 190 355 154 439 q 289 207 226 271 q 435 106 351 143 q 615 69 519 69 q 795 106 711 69 q 942 207 879 143 q 1040 355 1004 271 q 1075 535 1075 439 q 1040 715 1075 631 q 942 863 1004 799 q 795 963 879 926 q 615 1000 711 1000 q 435 963 519 1000 q 289 863 351 926 q 190 715 226 799 q 154 535 154 631 m 340 533 q 361 646 340 594 q 418 734 382 697 q 503 792 454 771 q 611 813 553 813 q 696 799 657 813 q 767 763 735 786 l 772 763 l 801 810 l 819 810 l 819 619 l 781 619 q 771 649 776 635 q 753 683 765 663 q 701 740 729 724 q 633 757 674 757 q 520 701 558 757 q 482 542 482 646 q 521 376 482 433 q 631 319 560 319 q 746 385 704 319 q 767 426 757 403 q 783 479 776 450 l 819 479 l 819 267 l 801 267 l 769 324 q 697 279 733 293 q 611 265 660 265 q 502 285 551 265 q 417 340 453 304 q 360 424 381 375 q 340 533 340 474 z "},"¤":{"ha":864,"x_min":94,"x_max":769,"o":"m 169 172 l 94 247 l 188 339 q 133 511 133 406 q 188 682 133 608 l 94 772 l 169 847 l 261 754 q 432 808 332 808 q 604 756 526 808 l 694 847 l 769 772 l 676 681 q 731 511 731 610 q 678 339 731 415 l 769 247 l 694 172 l 603 265 q 432 211 532 211 q 261 265 333 211 l 169 172 m 432 307 q 506 323 471 307 q 569 367 542 339 q 611 431 596 394 q 626 510 626 468 q 611 588 626 551 q 569 653 596 625 q 506 697 542 681 q 432 713 471 713 q 357 697 392 713 q 295 653 322 681 q 253 589 268 625 q 238 511 238 553 q 253 433 238 469 q 295 367 268 396 q 357 323 322 339 q 432 307 392 307 z "},"d":{"ha":936,"x_min":51,"x_max":917,"o":"m 368 -14 q 244 14 301 -14 q 143 91 186 42 q 76 208 100 140 q 51 356 51 276 q 79 515 51 443 q 157 640 107 588 q 277 721 207 692 q 431 750 347 750 q 511 742 471 750 q 592 715 551 733 l 592 1014 l 474 1053 l 474 1085 l 776 1153 l 807 1153 l 807 136 l 917 101 l 917 72 l 628 -14 l 603 -14 l 603 71 l 596 74 q 494 9 553 32 q 368 -14 436 -14 m 457 86 q 533 106 499 86 q 592 158 567 125 l 592 503 q 556 628 592 581 q 458 675 519 675 q 388 653 419 675 q 335 593 357 632 q 301 500 313 554 q 289 379 289 446 q 333 165 289 244 q 457 86 376 86 z "},"†":{"ha":688,"x_min":42,"x_max":647,"o":"m 318 -189 q 304 20 311 -71 q 288 185 297 111 q 265 318 278 258 q 236 432 253 378 q 277 584 260 500 q 307 781 294 668 q 237 775 264 781 q 190 763 210 769 q 155 752 169 757 q 122 747 140 747 q 65 767 88 747 q 42 819 42 788 q 65 869 42 850 q 124 888 88 888 q 156 882 136 888 q 219 860 175 876 q 264 844 239 853 q 307 833 289 836 l 307 850 q 302 915 307 883 q 291 976 297 947 q 280 1029 285 1004 q 275 1075 275 1054 q 293 1131 275 1111 q 343 1151 311 1151 q 395 1131 376 1151 q 414 1075 414 1111 q 409 1031 414 1056 q 398 976 404 1006 q 387 915 392 947 q 382 850 382 883 l 382 836 q 414 844 390 838 q 464 860 438 850 q 533 882 513 876 q 565 888 554 888 q 624 868 601 888 q 647 818 647 849 q 625 767 647 788 q 568 747 603 747 q 535 752 550 747 q 499 763 519 757 q 452 775 479 769 q 382 781 425 781 q 410 589 393 672 q 453 432 426 506 q 423 317 436 376 q 400 183 410 257 q 383 19 390 110 q 371 -189 376 -72 l 318 -189 z "},"‡":{"ha":731,"x_min":63,"x_max":668,"o":"m 474 481 q 431 346 447 418 q 403 181 414 274 q 473 185 446 181 q 520 197 500 190 q 556 208 540 203 q 589 214 571 214 q 646 194 624 214 q 668 143 668 174 q 646 93 668 113 q 590 74 624 74 q 576 74 583 74 q 557 78 568 75 q 528 88 546 82 q 485 101 511 93 q 435 117 458 110 q 403 125 411 124 l 403 111 q 408 46 403 78 q 419 -15 413 14 q 430 -69 425 -44 q 435 -114 435 -94 q 416 -170 435 -150 q 364 -190 397 -190 q 314 -170 332 -190 q 296 -114 296 -150 q 301 -68 296 -93 q 312 -15 306 -43 q 323 46 318 14 q 328 111 328 78 l 328 128 q 285 117 310 125 q 240 101 260 108 q 199 86 214 92 q 174 78 183 81 q 158 74 164 75 q 144 74 151 74 q 85 92 108 74 q 63 142 63 111 q 85 194 63 174 q 143 214 108 214 q 176 208 161 214 q 210 197 190 203 q 258 185 231 190 q 328 181 285 181 q 298 351 315 279 q 257 481 281 422 q 298 610 281 539 q 328 781 315 682 q 258 775 285 781 q 210 763 231 769 q 176 752 190 757 q 143 747 161 747 q 85 767 108 747 q 63 819 63 788 q 85 869 63 850 q 144 888 108 888 q 176 883 157 888 q 240 860 196 878 q 285 844 260 853 q 328 833 310 836 l 328 850 q 323 915 328 883 q 312 976 318 947 q 301 1029 306 1004 q 296 1075 296 1054 q 314 1131 296 1111 q 364 1151 332 1151 q 416 1131 397 1151 q 435 1075 435 1111 q 430 1031 435 1056 q 419 976 425 1006 q 408 915 413 947 q 403 850 403 883 l 403 836 q 435 844 411 838 q 485 860 458 850 q 528 875 511 869 q 556 883 544 881 q 573 887 567 886 q 586 888 579 888 q 645 868 622 888 q 668 818 668 849 q 646 767 668 788 q 589 747 624 747 q 556 752 571 747 q 520 763 540 757 q 473 775 500 769 q 403 781 446 781 q 431 615 414 688 q 474 481 447 543 z "},"ď":{"ha":936,"x_min":51,"x_max":1036,"o":"m 368 -14 q 244 14 301 -14 q 143 91 186 42 q 76 208 100 140 q 51 356 51 276 q 79 515 51 443 q 157 640 107 588 q 277 721 207 692 q 431 750 347 750 q 511 742 471 750 q 592 715 551 733 l 592 1014 l 474 1053 l 474 1085 l 776 1153 l 807 1153 l 807 136 l 917 101 l 917 72 l 628 -14 l 603 -14 l 603 71 l 596 74 q 494 9 553 32 q 368 -14 436 -14 m 457 86 q 533 106 499 86 q 592 158 567 125 l 592 503 q 556 628 592 581 q 458 675 519 675 q 388 653 419 675 q 335 593 357 632 q 301 500 313 554 q 289 379 289 446 q 333 165 289 244 q 457 86 376 86 m 890 892 l 890 1088 q 917 1165 890 1140 q 983 1190 943 1190 q 1036 1135 1036 1190 q 1018 1063 1036 1100 l 935 892 l 890 892 z "},"đ":{"ha":936,"x_min":51,"x_max":917,"o":"m 368 -14 q 244 14 301 -14 q 143 91 186 42 q 76 208 100 140 q 51 356 51 276 q 79 515 51 443 q 157 640 107 588 q 277 721 207 692 q 431 750 347 750 q 511 742 471 750 q 592 715 551 733 l 592 832 l 435 832 l 435 950 l 592 950 l 592 1014 l 474 1053 l 474 1085 l 776 1153 l 807 1153 l 807 950 l 917 950 l 917 832 l 807 832 l 807 136 l 917 101 l 917 72 l 628 -14 l 603 -14 l 603 71 l 596 74 q 494 9 553 32 q 368 -14 436 -14 m 457 86 q 533 106 499 86 q 592 158 567 125 l 592 503 q 556 628 592 581 q 458 675 519 675 q 388 653 419 675 q 335 593 357 632 q 301 500 313 554 q 289 379 289 446 q 333 165 289 244 q 457 86 376 86 z "},"ḍ":{"ha":936,"x_min":51,"x_max":917,"o":"m 368 -14 q 244 14 301 -14 q 143 91 186 42 q 76 208 100 140 q 51 356 51 276 q 79 515 51 443 q 157 640 107 588 q 277 721 207 692 q 431 750 347 750 q 511 742 471 750 q 592 715 551 733 l 592 1014 l 474 1053 l 474 1085 l 776 1153 l 807 1153 l 807 136 l 917 101 l 917 72 l 628 -14 l 603 -14 l 603 71 l 596 74 q 494 9 553 32 q 368 -14 436 -14 m 457 86 q 533 106 499 86 q 592 158 567 125 l 592 503 q 556 628 592 581 q 458 675 519 675 q 388 653 419 675 q 335 593 357 632 q 301 500 313 554 q 289 379 289 446 q 333 165 289 244 q 457 86 376 86 m 338 -247 q 369 -167 338 -201 q 457 -132 400 -132 q 548 -167 515 -132 q 581 -247 581 -201 q 549 -326 581 -290 q 457 -361 518 -361 q 368 -326 399 -361 q 338 -247 338 -290 z "},"°":{"ha":447,"x_min":56,"x_max":392,"o":"m 224 815 q 157 828 188 815 q 104 864 126 842 q 69 917 82 886 q 56 983 56 947 q 69 1049 56 1018 q 104 1103 82 1081 q 157 1140 126 1126 q 224 1153 188 1153 q 289 1140 258 1153 q 342 1103 319 1126 q 378 1049 365 1081 q 392 983 392 1018 q 378 917 392 947 q 343 864 365 886 q 290 828 321 842 q 224 815 258 815 m 133 983 q 159 919 133 944 q 224 893 185 893 q 289 919 264 893 q 314 983 314 944 q 289 1050 314 1024 q 224 1076 264 1076 q 159 1050 185 1076 q 133 983 133 1024 z "},"¨":{"ha":542,"x_min":14,"x_max":528,"o":"m 14 983 q 42 1053 14 1024 q 118 1083 69 1083 q 196 1053 167 1083 q 225 983 225 1024 q 198 916 225 947 q 118 885 171 885 q 40 916 67 885 q 14 983 14 947 m 317 983 q 344 1053 317 1024 q 421 1083 372 1083 q 499 1053 469 1083 q 528 983 528 1024 q 501 916 528 947 q 421 885 474 885 q 343 916 369 885 q 317 983 317 947 z "},"÷":{"ha":697,"x_min":64,"x_max":633,"o":"m 226 722 q 257 803 226 768 q 344 838 288 838 q 435 803 403 838 q 468 722 468 768 q 437 644 468 679 q 344 608 406 608 q 256 644 286 608 q 226 722 226 679 m 226 228 q 257 308 226 274 q 344 343 288 343 q 435 308 403 343 q 468 228 468 274 q 437 149 468 185 q 344 114 406 114 q 256 149 286 114 q 226 228 226 185 m 64 426 l 64 517 l 633 517 l 633 426 l 64 426 z "},"$":{"ha":785,"x_min":58,"x_max":732,"o":"m 443 1082 q 548 1063 499 1079 q 633 1019 597 1046 q 689 956 668 992 q 710 878 710 919 q 688 818 710 840 q 628 796 665 796 q 529 890 553 796 q 443 996 508 976 l 443 651 q 549 595 497 624 q 642 528 601 567 q 707 435 682 489 q 732 303 732 381 q 710 193 732 244 q 651 101 689 142 q 560 34 613 61 q 443 -4 507 7 l 443 -142 l 360 -142 l 360 -12 q 242 3 297 -12 q 147 47 188 19 q 83 113 106 75 q 60 192 60 150 q 84 256 60 232 q 149 281 108 281 q 247 179 225 281 q 360 69 269 79 l 360 440 q 247 499 301 469 q 151 568 193 529 q 84 660 110 607 q 58 789 58 714 q 81 895 58 846 q 142 982 103 944 q 238 1045 182 1019 q 360 1079 293 1071 l 360 1233 l 443 1233 l 443 1082 m 549 207 q 519 313 549 269 q 443 389 489 356 l 443 75 q 520 122 492 88 q 549 207 549 157 m 260 879 q 288 775 260 817 q 360 701 315 733 l 360 996 q 287 954 314 985 q 260 879 260 924 z "},"˙":{"ha":271,"x_min":14,"x_max":257,"o":"m 14 967 q 45 1047 14 1013 q 133 1082 76 1082 q 224 1047 192 1082 q 257 967 257 1013 q 226 888 257 924 q 133 853 194 853 q 44 888 75 853 q 14 967 14 924 z "},"ı":{"ha":500,"x_min":33,"x_max":478,"o":"m 478 49 l 478 0 l 33 0 l 33 49 l 151 76 l 151 613 l 33 650 l 33 683 l 338 750 l 367 750 l 367 76 l 478 49 z "},"ȷ":{"ha":458,"x_min":-244,"x_max":349,"o":"m 133 613 l 15 650 l 15 683 l 319 750 l 349 750 l 349 96 q 346 -4 349 39 q 336 -82 343 -47 q 318 -145 329 -117 q 290 -203 307 -174 q 173 -324 242 -286 q 1 -361 104 -361 q -177 -322 -110 -361 q -244 -219 -244 -283 q -219 -156 -244 -179 q -151 -133 -194 -133 q -99 -148 -119 -133 q -60 -200 -79 -162 q -16 -269 -36 -250 q 33 -289 4 -289 q 133 -67 133 -289 l 133 613 z "},"e":{"ha":839,"x_min":50,"x_max":797,"o":"m 786 403 l 281 403 q 499 129 282 129 q 622 152 560 129 q 725 221 685 175 l 735 232 l 774 199 l 767 182 q 637 37 728 88 q 432 -14 546 -14 q 275 13 346 -14 q 154 89 204 40 q 77 206 104 138 q 50 357 50 274 q 81 517 50 444 q 166 641 111 589 q 297 722 221 693 q 467 750 374 750 q 709 665 626 750 q 797 411 792 579 l 786 403 m 449 679 q 335 625 376 679 q 283 468 293 571 l 567 479 q 571 500 569 486 q 572 532 572 514 q 449 679 572 679 z "},"é":{"ha":839,"x_min":50,"x_max":797,"o":"m 786 403 l 281 403 q 499 129 282 129 q 622 152 560 129 q 725 221 685 175 l 735 232 l 774 199 l 767 182 q 637 37 728 88 q 432 -14 546 -14 q 275 13 346 -14 q 154 89 204 40 q 77 206 104 138 q 50 357 50 274 q 81 517 50 444 q 166 641 111 589 q 297 722 221 693 q 467 750 374 750 q 709 665 626 750 q 797 411 792 579 l 786 403 m 449 679 q 335 625 376 679 q 283 468 293 571 l 567 479 q 571 500 569 486 q 572 532 572 514 q 449 679 572 679 m 367 892 l 424 1101 q 528 1193 449 1193 q 573 1176 556 1193 q 590 1131 590 1158 q 579 1084 590 1110 q 544 1031 568 1058 l 410 876 l 367 892 z "},"ĕ":{"ha":839,"x_min":50,"x_max":797,"o":"m 786 403 l 281 403 q 499 129 282 129 q 622 152 560 129 q 725 221 685 175 l 735 232 l 774 199 l 767 182 q 637 37 728 88 q 432 -14 546 -14 q 275 13 346 -14 q 154 89 204 40 q 77 206 104 138 q 50 357 50 274 q 81 517 50 444 q 166 641 111 589 q 297 722 221 693 q 467 750 374 750 q 709 665 626 750 q 797 411 792 579 l 786 403 m 449 679 q 335 625 376 679 q 283 468 293 571 l 567 479 q 571 500 569 486 q 572 532 572 514 q 449 679 572 679 m 325 1097 q 381 1049 342 1064 q 465 1035 419 1035 q 548 1049 510 1035 q 610 1097 586 1064 l 678 1097 q 633 987 660 1028 q 575 924 606 946 q 514 897 544 903 q 460 890 483 890 q 394 901 428 890 q 331 935 360 911 q 282 999 303 960 q 256 1097 261 1039 l 325 1097 z "},"ě":{"ha":839,"x_min":50,"x_max":797,"o":"m 786 403 l 281 403 q 499 129 282 129 q 622 152 560 129 q 725 221 685 175 l 735 232 l 774 199 l 767 182 q 637 37 728 88 q 432 -14 546 -14 q 275 13 346 -14 q 154 89 204 40 q 77 206 104 138 q 50 357 50 274 q 81 517 50 444 q 166 641 111 589 q 297 722 221 693 q 467 750 374 750 q 709 665 626 750 q 797 411 792 579 l 786 403 m 449 679 q 335 625 376 679 q 283 468 293 571 l 567 479 q 571 500 569 486 q 572 532 572 514 q 449 679 572 679 m 458 875 q 402 890 425 875 q 361 942 379 906 l 244 1176 l 288 1193 l 457 1032 l 626 1193 l 669 1176 l 550 942 q 510 890 531 906 q 458 875 490 875 z "},"ê":{"ha":839,"x_min":50,"x_max":797,"o":"m 786 403 l 281 403 q 499 129 282 129 q 622 152 560 129 q 725 221 685 175 l 735 232 l 774 199 l 767 182 q 637 37 728 88 q 432 -14 546 -14 q 275 13 346 -14 q 154 89 204 40 q 77 206 104 138 q 50 357 50 274 q 81 517 50 444 q 166 641 111 589 q 297 722 221 693 q 467 750 374 750 q 709 665 626 750 q 797 411 792 579 l 786 403 m 449 679 q 335 625 376 679 q 283 468 293 571 l 567 479 q 571 500 569 486 q 572 532 572 514 q 449 679 572 679 m 468 1193 q 520 1178 500 1193 q 560 1126 540 1163 l 679 892 l 636 875 l 467 1036 l 297 875 l 254 892 l 371 1126 q 412 1178 389 1163 q 468 1193 435 1193 z "},"ë":{"ha":839,"x_min":50,"x_max":797,"o":"m 786 403 l 281 403 q 499 129 282 129 q 622 152 560 129 q 725 221 685 175 l 735 232 l 774 199 l 767 182 q 637 37 728 88 q 432 -14 546 -14 q 275 13 346 -14 q 154 89 204 40 q 77 206 104 138 q 50 357 50 274 q 81 517 50 444 q 166 641 111 589 q 297 722 221 693 q 467 750 374 750 q 709 665 626 750 q 797 411 792 579 l 786 403 m 449 679 q 335 625 376 679 q 283 468 293 571 l 567 479 q 571 500 569 486 q 572 532 572 514 q 449 679 572 679 m 207 983 q 235 1053 207 1024 q 311 1083 263 1083 q 389 1053 360 1083 q 418 983 418 1024 q 391 916 418 947 q 311 885 364 885 q 233 916 260 885 q 207 983 207 947 m 510 983 q 538 1053 510 1024 q 614 1083 565 1083 q 692 1053 663 1083 q 721 983 721 1024 q 694 916 721 947 q 614 885 667 885 q 536 916 563 885 q 510 983 510 947 z "},"ė":{"ha":839,"x_min":50,"x_max":797,"o":"m 786 403 l 281 403 q 499 129 282 129 q 622 152 560 129 q 725 221 685 175 l 735 232 l 774 199 l 767 182 q 637 37 728 88 q 432 -14 546 -14 q 275 13 346 -14 q 154 89 204 40 q 77 206 104 138 q 50 357 50 274 q 81 517 50 444 q 166 641 111 589 q 297 722 221 693 q 467 750 374 750 q 709 665 626 750 q 797 411 792 579 l 786 403 m 449 679 q 335 625 376 679 q 283 468 293 571 l 567 479 q 571 500 569 486 q 572 532 572 514 q 449 679 572 679 m 329 967 q 360 1047 329 1013 q 449 1082 392 1082 q 540 1047 507 1082 q 572 967 572 1013 q 541 888 572 924 q 449 853 510 853 q 360 888 390 853 q 329 967 329 924 z "},"ẹ":{"ha":839,"x_min":50,"x_max":797,"o":"m 786 403 l 281 403 q 499 129 282 129 q 622 152 560 129 q 725 221 685 175 l 735 232 l 774 199 l 767 182 q 637 37 728 88 q 432 -14 546 -14 q 275 13 346 -14 q 154 89 204 40 q 77 206 104 138 q 50 357 50 274 q 81 517 50 444 q 166 641 111 589 q 297 722 221 693 q 467 750 374 750 q 709 665 626 750 q 797 411 792 579 l 786 403 m 449 679 q 335 625 376 679 q 283 468 293 571 l 567 479 q 571 500 569 486 q 572 532 572 514 q 449 679 572 679 m 329 -247 q 360 -167 329 -201 q 449 -132 392 -132 q 540 -167 507 -132 q 572 -247 572 -201 q 541 -326 572 -290 q 449 -361 510 -361 q 360 -326 390 -361 q 329 -247 329 -290 z "},"è":{"ha":839,"x_min":50,"x_max":797,"o":"m 786 403 l 281 403 q 499 129 282 129 q 622 152 560 129 q 725 221 685 175 l 735 232 l 774 199 l 767 182 q 637 37 728 88 q 432 -14 546 -14 q 275 13 346 -14 q 154 89 204 40 q 77 206 104 138 q 50 357 50 274 q 81 517 50 444 q 166 641 111 589 q 297 722 221 693 q 467 750 374 750 q 709 665 626 750 q 797 411 792 579 l 786 403 m 449 679 q 335 625 376 679 q 283 468 293 571 l 567 479 q 571 500 569 486 q 572 532 572 514 q 449 679 572 679 m 514 876 l 379 1031 q 344 1084 356 1058 q 333 1131 333 1110 q 351 1176 333 1158 q 396 1193 368 1193 q 500 1101 475 1193 l 557 892 l 514 876 z "},"₈":{"ha":676,"x_min":44,"x_max":632,"o":"m 454 186 q 590 97 549 143 q 632 -11 632 50 q 610 -97 632 -58 q 548 -165 588 -136 q 453 -209 508 -193 q 332 -225 399 -225 q 117 -172 189 -225 q 44 -37 44 -119 q 200 124 44 67 q 78 306 78 196 q 149 442 78 392 q 342 492 219 492 q 525 449 456 492 q 594 335 594 406 q 454 186 594 235 m 383 211 q 444 335 444 265 q 415 408 444 382 q 333 435 386 435 q 259 413 286 435 q 232 350 232 390 q 267 278 232 310 q 383 211 301 246 m 263 96 q 226 49 239 81 q 213 -26 213 17 q 246 -131 213 -94 q 343 -167 279 -167 q 433 -139 399 -167 q 467 -65 467 -111 q 419 20 467 -18 q 263 96 371 58 z "},"⁸":{"ha":676,"x_min":44,"x_max":632,"o":"m 454 983 q 590 894 549 940 q 632 786 632 847 q 610 700 632 739 q 548 633 588 661 q 453 588 508 604 q 332 572 399 572 q 117 625 189 572 q 44 760 44 678 q 200 921 44 864 q 78 1103 78 993 q 149 1239 78 1189 q 342 1289 219 1289 q 525 1246 456 1289 q 594 1132 594 1203 q 454 983 594 1032 m 383 1008 q 444 1132 444 1063 q 415 1206 444 1179 q 333 1232 386 1232 q 259 1210 286 1232 q 232 1147 232 1188 q 267 1075 232 1107 q 383 1008 301 1043 m 263 893 q 226 846 239 878 q 213 771 213 814 q 246 667 213 703 q 343 631 279 631 q 433 658 399 631 q 467 732 467 686 q 419 817 467 779 q 263 893 371 856 z "},"…":{"ha":1222,"x_min":69,"x_max":1153,"o":"m 69 106 q 103 193 69 158 q 192 228 138 228 q 283 193 247 228 q 319 106 319 158 q 284 19 319 53 q 193 -14 249 -14 q 103 19 138 -14 q 69 106 69 53 m 486 106 q 520 193 486 158 q 608 228 554 228 q 700 193 664 228 q 736 106 736 158 q 701 19 736 53 q 610 -14 665 -14 q 520 19 554 -14 q 486 106 486 53 m 903 106 q 937 193 903 158 q 1025 228 971 228 q 1117 193 1081 228 q 1153 106 1153 158 q 1117 19 1153 53 q 1026 -14 1082 -14 q 937 19 971 -14 q 903 106 903 53 z "},"ē":{"ha":839,"x_min":50,"x_max":797,"o":"m 786 403 l 281 403 q 499 129 282 129 q 622 152 560 129 q 725 221 685 175 l 735 232 l 774 199 l 767 182 q 637 37 728 88 q 432 -14 546 -14 q 275 13 346 -14 q 154 89 204 40 q 77 206 104 138 q 50 357 50 274 q 81 517 50 444 q 166 641 111 589 q 297 722 221 693 q 467 750 374 750 q 709 665 626 750 q 797 411 792 579 l 786 403 m 449 679 q 335 625 376 679 q 283 468 293 571 l 567 479 q 571 500 569 486 q 572 532 572 514 q 449 679 572 679 m 250 964 l 250 1097 l 676 1097 l 676 964 l 250 964 z "},"—":{"ha":1475,"x_min":99,"x_max":1376,"o":"m 99 296 l 99 403 l 1376 403 l 1376 296 l 99 296 z "},"–":{"ha":1029,"x_min":99,"x_max":931,"o":"m 99 296 l 99 403 l 931 403 l 931 296 l 99 296 z "},"ŋ":{"ha":918,"x_min":36,"x_max":821,"o":"m 454 49 l 454 0 l 38 0 l 38 49 l 142 76 l 142 611 l 36 650 l 36 682 l 319 750 l 350 750 l 350 647 q 466 722 397 694 q 606 750 535 750 q 724 721 674 750 q 800 639 774 692 q 810 610 806 625 q 817 573 814 594 q 820 519 819 551 q 821 442 821 488 l 821 76 q 817 -15 821 25 q 807 -87 814 -54 q 789 -147 800 -119 q 763 -203 778 -175 q 645 -324 714 -286 q 474 -361 576 -361 q 295 -322 363 -361 q 228 -219 228 -283 q 253 -156 228 -179 q 321 -133 278 -133 q 373 -148 353 -133 q 413 -200 393 -162 q 456 -269 436 -250 q 506 -289 476 -289 q 606 -67 606 -289 l 606 388 q 605 456 606 428 q 603 502 604 483 q 599 533 601 521 q 592 554 596 544 q 545 607 576 589 q 469 625 514 625 q 357 572 401 625 l 357 76 l 454 49 z "},"ę":{"ha":839,"x_min":50,"x_max":797,"o":"m 654 -281 q 478 -356 578 -356 q 370 -323 408 -356 q 332 -236 332 -290 q 369 -124 332 -182 q 475 -11 407 -65 q 453 -13 464 -12 q 426 -14 442 -14 q 274 13 343 -14 q 154 89 204 40 q 77 206 104 138 q 50 357 50 274 q 81 517 50 444 q 166 641 111 589 q 297 722 221 693 q 467 750 374 750 q 709 665 626 750 q 797 411 792 579 l 786 403 l 281 403 q 497 129 282 129 q 622 152 560 129 q 725 221 685 175 l 735 232 l 774 199 l 767 182 q 693 81 742 122 q 592 4 644 40 q 513 -78 538 -33 q 489 -172 489 -124 q 556 -251 489 -251 q 592 -244 575 -251 q 633 -222 610 -237 l 654 -281 m 449 679 q 335 625 376 679 q 283 468 293 571 l 567 479 q 571 500 569 486 q 572 532 572 514 q 449 679 572 679 z "},"=":{"ha":758,"x_min":94,"x_max":664,"o":"m 94 544 l 94 632 l 664 632 l 664 544 l 94 544 m 94 321 l 94 408 l 664 408 l 664 321 l 94 321 z "},"ð":{"ha":843,"x_min":50,"x_max":776,"o":"m 550 904 q 719 681 661 807 q 776 407 776 556 q 747 227 776 306 q 665 95 717 149 q 544 14 613 42 q 399 -14 475 -14 q 260 11 324 -14 q 149 81 196 36 q 76 189 103 126 q 50 328 50 251 q 73 458 50 399 q 137 562 96 518 q 234 631 178 606 q 357 656 290 656 q 460 637 415 656 q 529 583 504 618 q 426 818 508 714 l 276 713 l 217 799 l 354 894 q 274 957 318 928 q 179 1014 231 986 l 225 1083 q 463 971 358 1038 l 610 1075 l 671 990 l 550 904 m 408 69 q 511 139 474 69 q 549 331 549 208 q 544 407 549 369 q 532 476 540 444 q 484 532 514 513 q 418 551 454 551 q 315 485 353 551 q 278 304 278 418 q 313 133 278 196 q 408 69 347 69 z "},"ẽ":{"ha":839,"x_min":50,"x_max":797,"o":"m 786 403 l 281 403 q 499 129 282 129 q 622 152 560 129 q 725 221 685 175 l 735 232 l 774 199 l 767 182 q 637 37 728 88 q 432 -14 546 -14 q 275 13 346 -14 q 154 89 204 40 q 77 206 104 138 q 50 357 50 274 q 81 517 50 444 q 166 641 111 589 q 297 722 221 693 q 467 750 374 750 q 709 665 626 750 q 797 411 792 579 l 786 403 m 449 679 q 335 625 376 679 q 283 468 293 571 l 567 479 q 571 500 569 486 q 572 532 572 514 q 449 679 572 679 m 222 921 q 264 1071 222 1019 q 371 1122 306 1122 q 418 1115 397 1122 q 458 1097 439 1107 q 496 1080 476 1088 q 539 1072 515 1072 q 622 1125 608 1072 l 676 1125 q 641 974 676 1029 q 535 919 606 919 q 485 928 506 919 q 445 947 464 936 q 407 965 426 957 q 361 974 388 974 q 303 959 325 974 q 276 921 281 944 l 222 921 z "},"!":{"ha":454,"x_min":101,"x_max":353,"o":"m 185 319 q 173 490 185 401 q 140 679 161 578 q 122 775 129 733 q 110 850 114 817 q 103 910 106 883 q 101 960 101 936 q 135 1048 101 1013 q 228 1083 168 1083 q 324 1048 294 1083 q 353 964 353 1013 q 351 910 353 938 q 344 848 349 882 q 331 772 339 814 q 313 675 324 731 q 281 488 292 575 q 269 319 269 400 l 185 319 m 106 100 q 137 181 106 146 q 225 215 168 215 q 316 181 283 215 q 349 100 349 146 q 317 22 349 57 q 225 -14 286 -14 q 136 22 167 -14 q 106 100 106 57 z "},"¡":{"ha":418,"x_min":83,"x_max":335,"o":"m 251 417 q 253 341 251 376 q 260 266 256 306 q 274 177 265 226 q 294 61 282 128 q 313 -40 306 4 q 326 -117 321 -83 q 333 -176 331 -151 q 335 -221 335 -201 q 213 -361 335 -361 q 83 -221 83 -361 q 93 -115 83 -183 q 122 57 103 -46 q 144 176 135 125 q 158 267 153 226 q 165 344 163 308 q 167 417 167 379 l 251 417 m 331 636 q 295 553 331 586 q 207 521 260 521 q 121 553 154 521 q 88 636 88 586 q 122 718 88 686 q 208 750 156 750 q 296 718 261 750 q 331 636 331 686 z "},"f":{"ha":586,"x_min":19,"x_max":754,"o":"m 39 736 l 161 736 q 162 831 161 792 q 165 897 163 869 q 173 942 168 924 q 185 976 178 960 q 308 1105 219 1057 q 511 1153 396 1153 q 688 1116 621 1153 q 754 1017 754 1079 q 728 951 754 976 q 658 925 701 925 q 561 1010 583 925 q 533 1066 550 1050 q 485 1082 517 1082 q 429 1067 454 1082 q 393 1018 404 1051 q 379 935 382 986 q 376 813 376 883 l 376 736 l 564 736 l 544 671 l 376 671 l 376 76 l 547 49 l 547 0 l 43 0 l 43 49 l 161 76 l 161 671 l 19 671 l 39 736 z "},"ﬀ":{"ha":1114,"x_min":19,"x_max":1282,"o":"m 39 736 l 161 736 q 169 825 164 794 q 185 879 174 856 q 242 965 206 926 q 330 1029 279 1003 q 443 1069 381 1056 q 578 1083 506 1083 q 681 1076 633 1083 q 765 1053 728 1068 q 883 1126 813 1100 q 1039 1153 954 1153 q 1215 1116 1149 1153 q 1282 1017 1282 1079 q 1256 951 1282 976 q 1186 925 1229 925 q 1089 1010 1111 925 q 1061 1066 1078 1050 q 1013 1082 1044 1082 q 957 1067 982 1082 q 921 1018 932 1051 q 907 935 910 986 q 904 813 904 883 l 904 736 l 1092 736 l 1072 671 l 904 671 l 904 76 l 1075 49 l 1075 0 l 571 0 l 571 49 l 689 76 l 689 671 l 376 671 l 376 76 l 519 49 l 519 0 l 43 0 l 43 49 l 161 76 l 161 671 l 19 671 l 39 736 m 689 736 q 689 810 689 778 q 692 868 689 843 q 675 930 689 903 q 640 974 661 957 q 592 1001 618 992 q 538 1010 565 1010 q 451 986 490 1010 q 393 918 411 963 q 385 891 388 906 q 380 856 382 876 q 377 806 378 835 q 376 736 376 778 l 689 736 z "},"ﬃ":{"ha":1567,"x_min":19,"x_max":1544,"o":"m 39 736 l 161 736 q 168 824 163 793 q 185 879 174 856 q 241 963 204 925 q 328 1028 278 1001 q 438 1069 378 1054 q 567 1083 499 1083 q 785 1044 704 1083 q 929 1124 843 1096 q 1122 1151 1015 1151 q 1253 1139 1194 1151 q 1355 1104 1313 1126 q 1420 1051 1397 1082 q 1443 982 1443 1019 q 1414 907 1443 936 q 1338 878 1385 878 q 1208 981 1246 878 q 1186 1031 1196 1011 q 1164 1060 1176 1050 q 1135 1074 1151 1071 q 1093 1078 1118 1078 q 983 1054 1026 1078 q 922 986 939 1031 q 914 958 917 974 q 909 920 911 943 q 906 864 907 897 q 906 783 906 831 l 906 736 l 1100 736 l 1401 764 l 1433 764 l 1433 76 l 1544 49 l 1544 0 l 1100 0 l 1100 49 l 1218 76 l 1218 613 l 1100 671 l 906 671 l 906 76 l 1049 49 l 1049 0 l 572 0 l 572 49 l 690 76 l 690 671 l 376 671 l 376 76 l 519 49 l 519 0 l 43 0 l 43 49 l 161 76 l 161 671 l 19 671 l 39 736 m 690 736 q 691 794 690 768 q 693 840 692 819 q 647 967 682 924 q 540 1010 613 1010 q 452 988 493 1010 q 393 918 411 967 q 379 844 382 889 q 376 736 376 799 l 690 736 z "},"ﬄ":{"ha":1569,"x_min":19,"x_max":1543,"o":"m 43 49 l 161 76 l 161 671 l 19 671 l 39 736 l 161 736 q 168 824 163 793 q 185 879 174 856 q 240 963 204 925 q 326 1028 276 1001 q 438 1069 376 1054 q 567 1083 499 1083 q 689 1074 633 1083 q 783 1046 744 1064 q 929 1124 842 1097 q 1128 1151 1017 1151 q 1251 1141 1196 1151 q 1347 1112 1307 1131 q 1410 1067 1388 1093 q 1432 1010 1432 1042 l 1432 76 l 1543 49 l 1543 0 l 1099 0 l 1099 49 l 1217 76 l 1217 671 l 904 671 l 904 76 l 1047 49 l 1047 0 l 571 0 l 571 49 l 689 76 l 689 671 l 376 671 l 376 76 l 519 49 l 519 0 l 43 0 l 43 49 m 904 736 l 1217 736 l 1217 939 q 1181 1044 1217 1010 q 1081 1078 1146 1078 q 981 1053 1022 1078 q 921 986 939 1029 q 913 959 915 974 q 908 922 910 944 q 905 865 906 899 q 904 783 904 832 l 904 736 m 689 736 q 690 797 689 769 q 692 843 690 824 q 647 964 681 918 q 540 1010 613 1010 q 453 988 493 1010 q 393 918 413 967 q 379 844 382 889 q 376 736 376 799 l 689 736 z "},"ﬁ":{"ha":1038,"x_min":19,"x_max":1015,"o":"m 39 736 l 161 736 q 163 817 161 783 q 167 874 164 850 q 174 915 169 899 q 185 947 178 932 q 243 1033 206 994 q 333 1097 281 1071 q 452 1138 386 1124 q 594 1151 518 1151 q 726 1139 667 1151 q 826 1104 785 1126 q 891 1051 868 1082 q 914 981 914 1019 q 884 906 914 935 q 806 878 854 878 q 679 981 717 878 q 631 1053 661 1029 q 553 1078 601 1078 q 453 1055 494 1078 q 393 986 413 1032 q 385 959 388 974 q 380 922 382 944 q 377 865 378 899 q 376 783 376 832 l 376 736 l 571 736 l 875 764 l 904 764 l 904 76 l 1015 49 l 1015 0 l 571 0 l 571 49 l 689 76 l 689 613 l 571 671 l 376 671 l 376 76 l 519 49 l 519 0 l 43 0 l 43 49 l 161 76 l 161 671 l 19 671 l 39 736 z "},"ﬂ":{"ha":1042,"x_min":19,"x_max":1015,"o":"m 39 736 l 161 736 q 163 817 161 783 q 167 874 164 850 q 174 915 169 899 q 185 947 178 932 q 335 1098 226 1044 q 600 1151 444 1151 q 724 1141 668 1151 q 819 1112 779 1131 q 882 1067 860 1093 q 904 1010 904 1042 l 904 76 l 1015 49 l 1015 0 l 571 0 l 571 49 l 689 76 l 689 671 l 376 671 l 376 76 l 519 49 l 519 0 l 43 0 l 43 49 l 161 76 l 161 671 l 19 671 l 39 736 m 376 736 l 689 736 l 689 939 q 653 1044 689 1010 q 553 1078 618 1078 q 453 1053 494 1078 q 393 986 411 1029 q 385 959 388 974 q 380 922 382 944 q 377 865 378 899 q 376 783 376 832 l 376 736 z "},"⅝":{"ha":1499,"x_min":46,"x_max":1444,"o":"m 335 0 l 979 1069 l 1125 1069 l 479 0 l 335 0 m 1267 401 q 1403 312 1361 358 q 1444 204 1444 265 q 1422 118 1444 157 q 1360 51 1400 79 q 1266 6 1321 22 q 1144 -10 1211 -10 q 929 43 1001 -10 q 857 178 857 96 q 1013 339 857 282 q 890 521 890 411 q 961 657 890 607 q 1154 707 1032 707 q 1338 664 1268 707 q 1407 550 1407 621 q 1267 401 1407 450 m 1196 426 q 1257 550 1257 481 q 1228 624 1257 597 q 1146 650 1199 650 q 1072 628 1099 650 q 1044 565 1044 606 q 1079 493 1044 525 q 1196 426 1114 461 m 1075 311 q 1038 264 1051 296 q 1025 189 1025 232 q 1058 85 1025 121 q 1156 49 1092 49 q 1245 76 1211 49 q 1279 150 1279 104 q 1231 235 1279 197 q 1075 311 1183 274 m 222 824 q 263 834 242 831 q 304 838 285 838 q 420 822 368 838 q 509 778 472 806 q 566 711 546 750 q 586 625 586 672 q 562 524 586 571 q 495 444 538 478 q 394 390 453 410 q 267 371 335 371 q 178 380 218 371 q 108 405 138 389 q 63 443 79 421 q 46 490 46 465 q 70 540 46 521 q 131 560 94 560 q 169 551 156 560 q 192 527 183 542 q 207 497 200 513 q 224 466 214 481 q 251 442 235 451 q 299 433 268 433 q 391 469 357 433 q 425 563 425 504 q 383 657 425 621 q 275 693 342 693 q 219 687 247 693 q 169 668 192 681 l 115 668 l 182 1067 l 472 1067 l 507 1114 l 553 1097 l 501 933 l 238 933 l 222 824 z "},"₅":{"ha":594,"x_min":19,"x_max":560,"o":"m 196 229 q 237 239 215 236 q 278 242 258 242 q 394 226 342 242 q 483 183 446 211 q 540 117 519 156 q 560 31 560 78 q 535 -70 560 -24 q 469 -151 511 -117 q 367 -204 426 -185 q 240 -224 308 -224 q 151 -215 192 -224 q 82 -190 111 -206 q 36 -151 53 -174 q 19 -104 19 -129 q 44 -54 19 -74 q 104 -35 68 -35 q 143 -44 129 -35 q 165 -67 157 -53 q 181 -98 174 -82 q 198 -128 188 -114 q 225 -152 208 -143 q 272 -161 242 -161 q 365 -126 331 -161 q 399 -32 399 -90 q 357 63 399 26 q 249 99 315 99 q 190 92 214 99 q 143 74 165 86 l 89 74 l 156 472 l 446 472 l 481 519 l 526 503 l 475 339 l 211 339 l 196 229 z "},"⁵":{"ha":594,"x_min":19,"x_max":560,"o":"m 196 1025 q 237 1035 215 1032 q 278 1038 258 1038 q 394 1022 342 1038 q 483 979 446 1007 q 540 913 519 951 q 560 826 560 874 q 535 726 560 772 q 469 645 511 679 q 367 592 426 611 q 240 572 308 572 q 151 581 192 572 q 82 606 111 590 q 36 644 53 622 q 19 692 19 667 q 44 742 19 722 q 104 761 68 761 q 143 752 129 761 q 165 728 157 743 q 181 698 174 714 q 198 667 188 682 q 225 644 208 653 q 272 635 242 635 q 365 670 331 635 q 399 764 399 706 q 357 858 399 822 q 249 894 315 894 q 190 888 214 894 q 143 869 165 882 l 89 869 l 156 1268 l 446 1268 l 481 1315 l 526 1299 l 475 1135 l 211 1135 l 196 1025 z "},"ƒ":{"ha":1069,"x_min":-75,"x_max":1049,"o":"m 299 667 l 421 667 q 436 763 429 726 q 449 825 443 800 q 463 868 456 850 q 482 907 471 886 q 540 980 504 947 q 624 1035 576 1013 q 726 1071 671 1058 q 840 1083 781 1083 q 994 1050 939 1083 q 1049 958 1049 1017 q 1021 885 1049 914 q 950 856 993 856 q 892 877 914 856 q 864 940 869 899 q 843 997 858 982 q 794 1013 828 1013 q 747 1002 768 1013 q 709 963 726 992 q 677 881 692 933 q 649 743 663 828 l 636 667 l 824 667 l 808 601 l 625 601 l 561 192 q 422 -153 525 -42 q 140 -265 318 -265 q -18 -231 39 -265 q -75 -136 -75 -197 q -47 -65 -75 -92 q 28 -37 -18 -37 q 107 -104 82 -37 q 125 -151 117 -133 q 142 -177 133 -168 q 160 -190 150 -186 q 182 -193 169 -193 q 319 29 285 -193 l 410 601 l 283 601 l 299 667 z "},"₄":{"ha":640,"x_min":3,"x_max":603,"o":"m 313 -44 l 26 -44 l 3 15 l 394 492 l 503 483 l 503 47 l 603 47 l 603 -44 l 503 -44 l 503 -157 l 599 -179 l 599 -215 l 183 -215 l 183 -179 l 313 -157 l 313 -44 m 313 276 l 307 276 l 124 53 l 125 47 l 313 47 l 313 276 z "},"⁴":{"ha":639,"x_min":1,"x_max":601,"o":"m 311 753 l 25 753 l 1 813 l 393 1289 l 501 1281 l 501 844 l 601 844 l 601 753 l 501 753 l 501 640 l 597 618 l 597 582 l 182 582 l 182 618 l 311 640 l 311 753 m 311 1074 l 306 1074 l 122 850 l 124 844 l 311 844 l 311 1074 z "},"⁄":{"ha":389,"x_min":-200,"x_max":590,"o":"m -200 0 l 444 1069 l 590 1069 l -56 0 l -200 0 z "},"g":{"ha":811,"x_min":-4,"x_max":843,"o":"m 332 -360 q 213 -351 279 -360 q 88 -311 146 -342 q 23 -260 50 -292 q -4 -179 -4 -228 q 35 -85 -4 -126 q 168 -3 75 -43 q 103 42 128 15 q 79 117 79 69 q 90 168 79 146 q 126 210 101 190 q 192 247 151 229 q 293 285 233 264 q 208 315 247 294 q 138 365 168 336 q 92 431 108 394 q 75 511 75 468 q 99 606 75 563 q 165 682 122 650 q 265 732 207 714 q 389 750 322 750 q 485 740 440 750 q 568 710 531 729 q 597 762 581 736 q 635 808 613 788 q 683 842 657 829 q 743 856 710 856 q 815 833 786 856 q 843 774 843 811 q 823 718 843 743 q 765 693 803 693 q 736 699 747 693 q 716 711 725 704 q 698 724 707 718 q 675 729 689 729 q 638 715 653 729 q 615 681 624 700 q 685 605 660 649 q 710 514 710 561 q 688 428 710 469 q 624 355 665 388 q 524 300 582 322 q 396 271 467 278 q 278 242 314 263 q 242 197 242 221 q 275 158 242 174 q 356 131 308 142 q 459 111 404 119 q 556 93 514 103 q 665 54 624 78 q 729 3 707 31 q 758 -52 751 -24 q 765 -107 765 -81 q 743 -203 765 -164 q 678 -274 721 -243 q 603 -313 644 -297 q 515 -340 561 -329 q 422 -355 469 -350 q 332 -360 375 -360 m 419 -71 q 324 -49 368 -60 q 233 -28 281 -39 q 180 -87 199 -51 q 161 -160 161 -122 q 226 -258 161 -225 q 371 -289 285 -289 q 451 -282 407 -289 q 533 -260 496 -275 q 586 -226 565 -246 q 607 -175 607 -206 q 561 -114 607 -135 q 419 -71 515 -93 m 390 332 q 439 349 419 332 q 469 394 458 367 q 485 453 481 421 q 490 517 490 486 q 487 572 490 542 q 473 628 483 603 q 444 672 463 654 q 397 690 426 690 q 347 671 367 690 q 316 622 328 651 q 300 560 304 593 q 296 500 296 526 q 299 446 296 475 q 313 391 303 417 q 342 349 324 365 q 390 332 361 332 z "},"ğ":{"ha":811,"x_min":-4,"x_max":843,"o":"m 332 -360 q 213 -351 279 -360 q 88 -311 146 -342 q 23 -260 50 -292 q -4 -179 -4 -228 q 35 -85 -4 -126 q 168 -3 75 -43 q 103 42 128 15 q 79 117 79 69 q 90 168 79 146 q 126 210 101 190 q 192 247 151 229 q 293 285 233 264 q 208 315 247 294 q 138 365 168 336 q 92 431 108 394 q 75 511 75 468 q 99 606 75 563 q 165 682 122 650 q 265 732 207 714 q 389 750 322 750 q 485 740 440 750 q 568 710 531 729 q 597 762 581 736 q 635 808 613 788 q 683 842 657 829 q 743 856 710 856 q 815 833 786 856 q 843 774 843 811 q 823 718 843 743 q 765 693 803 693 q 736 699 747 693 q 716 711 725 704 q 698 724 707 718 q 675 729 689 729 q 638 715 653 729 q 615 681 624 700 q 685 605 660 649 q 710 514 710 561 q 688 428 710 469 q 624 355 665 388 q 524 300 582 322 q 396 271 467 278 q 278 242 314 263 q 242 197 242 221 q 275 158 242 174 q 356 131 308 142 q 459 111 404 119 q 556 93 514 103 q 665 54 624 78 q 729 3 707 31 q 758 -52 751 -24 q 765 -107 765 -81 q 743 -203 765 -164 q 678 -274 721 -243 q 603 -313 644 -297 q 515 -340 561 -329 q 422 -355 469 -350 q 332 -360 375 -360 m 419 -71 q 324 -49 368 -60 q 233 -28 281 -39 q 180 -87 199 -51 q 161 -160 161 -122 q 226 -258 161 -225 q 371 -289 285 -289 q 451 -282 407 -289 q 533 -260 496 -275 q 586 -226 565 -246 q 607 -175 607 -206 q 561 -114 607 -135 q 419 -71 515 -93 m 390 332 q 439 349 419 332 q 469 394 458 367 q 485 453 481 421 q 490 517 490 486 q 487 572 490 542 q 473 628 483 603 q 444 672 463 654 q 397 690 426 690 q 347 671 367 690 q 316 622 328 651 q 300 560 304 593 q 296 500 296 526 q 299 446 296 475 q 313 391 303 417 q 342 349 324 365 q 390 332 361 332 m 263 1097 q 318 1049 279 1064 q 403 1035 357 1035 q 485 1049 447 1035 q 547 1097 524 1064 l 615 1097 q 570 987 597 1028 q 513 924 543 946 q 451 897 482 903 q 397 890 421 890 q 331 901 365 890 q 269 935 297 911 q 219 999 240 960 q 193 1097 199 1039 l 263 1097 z "},"ĝ":{"ha":811,"x_min":-4,"x_max":843,"o":"m 332 -360 q 213 -351 279 -360 q 88 -311 146 -342 q 23 -260 50 -292 q -4 -179 -4 -228 q 35 -85 -4 -126 q 168 -3 75 -43 q 103 42 128 15 q 79 117 79 69 q 90 168 79 146 q 126 210 101 190 q 192 247 151 229 q 293 285 233 264 q 208 315 247 294 q 138 365 168 336 q 92 431 108 394 q 75 511 75 468 q 99 606 75 563 q 165 682 122 650 q 265 732 207 714 q 389 750 322 750 q 485 740 440 750 q 568 710 531 729 q 597 762 581 736 q 635 808 613 788 q 683 842 657 829 q 743 856 710 856 q 815 833 786 856 q 843 774 843 811 q 823 718 843 743 q 765 693 803 693 q 736 699 747 693 q 716 711 725 704 q 698 724 707 718 q 675 729 689 729 q 638 715 653 729 q 615 681 624 700 q 685 605 660 649 q 710 514 710 561 q 688 428 710 469 q 624 355 665 388 q 524 300 582 322 q 396 271 467 278 q 278 242 314 263 q 242 197 242 221 q 275 158 242 174 q 356 131 308 142 q 459 111 404 119 q 556 93 514 103 q 665 54 624 78 q 729 3 707 31 q 758 -52 751 -24 q 765 -107 765 -81 q 743 -203 765 -164 q 678 -274 721 -243 q 603 -313 644 -297 q 515 -340 561 -329 q 422 -355 469 -350 q 332 -360 375 -360 m 419 -71 q 324 -49 368 -60 q 233 -28 281 -39 q 180 -87 199 -51 q 161 -160 161 -122 q 226 -258 161 -225 q 371 -289 285 -289 q 451 -282 407 -289 q 533 -260 496 -275 q 586 -226 565 -246 q 607 -175 607 -206 q 561 -114 607 -135 q 419 -71 515 -93 m 390 332 q 439 349 419 332 q 469 394 458 367 q 485 453 481 421 q 490 517 490 486 q 487 572 490 542 q 473 628 483 603 q 444 672 463 654 q 397 690 426 690 q 347 671 367 690 q 316 622 328 651 q 300 560 304 593 q 296 500 296 526 q 299 446 296 475 q 313 391 303 417 q 342 349 324 365 q 390 332 361 332 m 407 1193 q 459 1178 439 1193 q 499 1126 479 1163 l 618 892 l 575 875 l 406 1036 l 236 875 l 193 892 l 310 1126 q 351 1178 328 1163 q 407 1193 374 1193 z "},"ģ":{"ha":811,"x_min":-4,"x_max":843,"o":"m 485 1160 q 451 1117 464 1140 q 438 1079 438 1094 q 448 1055 438 1064 q 470 1036 458 1046 q 492 1013 482 1026 q 503 978 503 1000 q 476 925 503 946 q 410 904 450 904 q 340 933 365 904 q 315 1013 315 963 q 351 1118 315 1071 q 453 1194 386 1165 l 485 1160 m 332 -360 q 213 -351 279 -360 q 88 -311 146 -342 q 23 -260 50 -292 q -4 -179 -4 -228 q 35 -85 -4 -126 q 168 -3 75 -43 q 103 42 128 15 q 79 117 79 69 q 90 168 79 146 q 126 210 101 190 q 192 247 151 229 q 293 285 233 264 q 208 315 247 294 q 138 365 168 336 q 92 431 108 394 q 75 511 75 468 q 99 606 75 563 q 165 682 122 650 q 265 732 207 714 q 389 750 322 750 q 485 740 440 750 q 568 710 531 729 q 597 762 581 736 q 635 808 613 788 q 683 842 657 829 q 743 856 710 856 q 815 833 786 856 q 843 774 843 811 q 823 718 843 743 q 765 693 803 693 q 736 699 747 693 q 716 711 725 704 q 698 724 707 718 q 675 729 689 729 q 638 715 653 729 q 615 681 624 700 q 685 605 660 649 q 710 514 710 561 q 688 428 710 469 q 624 355 665 388 q 524 300 582 322 q 396 271 467 278 q 278 242 314 263 q 242 197 242 221 q 275 158 242 174 q 356 131 308 142 q 459 111 404 119 q 556 93 514 103 q 665 54 624 78 q 729 3 707 31 q 758 -52 751 -24 q 765 -107 765 -81 q 743 -203 765 -164 q 678 -274 721 -243 q 603 -313 644 -297 q 515 -340 561 -329 q 422 -355 469 -350 q 332 -360 375 -360 m 419 -71 q 324 -49 368 -60 q 233 -28 281 -39 q 180 -87 199 -51 q 161 -160 161 -122 q 226 -258 161 -225 q 371 -289 285 -289 q 451 -282 407 -289 q 533 -260 496 -275 q 586 -226 565 -246 q 607 -175 607 -206 q 561 -114 607 -135 q 419 -71 515 -93 m 390 332 q 439 349 419 332 q 469 394 458 367 q 485 453 481 421 q 490 517 490 486 q 487 572 490 542 q 473 628 483 603 q 444 672 463 654 q 397 690 426 690 q 347 671 367 690 q 316 622 328 651 q 300 560 304 593 q 296 500 296 526 q 299 446 296 475 q 313 391 303 417 q 342 349 324 365 q 390 332 361 332 z "},"ġ":{"ha":811,"x_min":-4,"x_max":843,"o":"m 332 -360 q 213 -351 279 -360 q 88 -311 146 -342 q 23 -260 50 -292 q -4 -179 -4 -228 q 35 -85 -4 -126 q 168 -3 75 -43 q 103 42 128 15 q 79 117 79 69 q 90 168 79 146 q 126 210 101 190 q 192 247 151 229 q 293 285 233 264 q 208 315 247 294 q 138 365 168 336 q 92 431 108 394 q 75 511 75 468 q 99 606 75 563 q 165 682 122 650 q 265 732 207 714 q 389 750 322 750 q 485 740 440 750 q 568 710 531 729 q 597 762 581 736 q 635 808 613 788 q 683 842 657 829 q 743 856 710 856 q 815 833 786 856 q 843 774 843 811 q 823 718 843 743 q 765 693 803 693 q 736 699 747 693 q 716 711 725 704 q 698 724 707 718 q 675 729 689 729 q 638 715 653 729 q 615 681 624 700 q 685 605 660 649 q 710 514 710 561 q 688 428 710 469 q 624 355 665 388 q 524 300 582 322 q 396 271 467 278 q 278 242 314 263 q 242 197 242 221 q 275 158 242 174 q 356 131 308 142 q 459 111 404 119 q 556 93 514 103 q 665 54 624 78 q 729 3 707 31 q 758 -52 751 -24 q 765 -107 765 -81 q 743 -203 765 -164 q 678 -274 721 -243 q 603 -313 644 -297 q 515 -340 561 -329 q 422 -355 469 -350 q 332 -360 375 -360 m 419 -71 q 324 -49 368 -60 q 233 -28 281 -39 q 180 -87 199 -51 q 161 -160 161 -122 q 226 -258 161 -225 q 371 -289 285 -289 q 451 -282 407 -289 q 533 -260 496 -275 q 586 -226 565 -246 q 607 -175 607 -206 q 561 -114 607 -135 q 419 -71 515 -93 m 390 332 q 439 349 419 332 q 469 394 458 367 q 485 453 481 421 q 490 517 490 486 q 487 572 490 542 q 473 628 483 603 q 444 672 463 654 q 397 690 426 690 q 347 671 367 690 q 316 622 328 651 q 300 560 304 593 q 296 500 296 526 q 299 446 296 475 q 313 391 303 417 q 342 349 324 365 q 390 332 361 332 m 294 967 q 326 1047 294 1013 q 414 1082 357 1082 q 505 1047 472 1082 q 538 967 538 1013 q 506 888 538 924 q 414 853 475 853 q 325 888 356 853 q 294 967 294 924 z "},"ß":{"ha":1050,"x_min":32,"x_max":1014,"o":"m 51 708 l 157 708 l 157 717 q 158 813 157 772 q 163 884 160 854 q 172 936 167 914 q 186 976 178 958 q 239 1049 204 1017 q 320 1105 274 1082 q 423 1140 367 1128 q 542 1153 479 1153 q 760 1097 679 1153 q 840 944 840 1040 q 815 842 840 888 q 760 757 790 796 q 704 684 729 718 q 679 615 679 650 q 704 562 679 583 q 766 522 729 540 q 847 482 803 503 q 927 431 890 461 q 989 355 964 400 q 1014 242 1014 310 q 940 53 1014 119 q 728 -14 867 -14 q 626 -6 678 -14 q 538 15 574 1 l 529 242 l 589 242 q 628 103 594 151 q 722 56 663 56 q 797 87 768 56 q 826 167 826 118 q 803 228 826 203 q 746 276 781 254 q 672 318 711 297 q 597 366 632 339 q 540 431 563 393 q 517 524 517 468 q 538 631 517 579 q 583 733 558 682 q 629 835 608 783 q 650 946 650 888 q 513 1082 650 1082 q 445 1069 472 1082 q 402 1024 418 1056 q 379 941 386 993 q 372 813 372 889 l 372 76 l 474 49 l 474 0 l 39 0 l 39 49 l 157 76 l 157 643 l 32 643 l 51 708 z "},"`":{"ha":251,"x_min":14,"x_max":238,"o":"m 194 876 l 60 1031 q 25 1084 36 1058 q 14 1131 14 1110 q 31 1176 14 1158 q 76 1193 49 1193 q 181 1101 156 1193 l 238 892 l 194 876 z "},">":{"ha":707,"x_min":93,"x_max":661,"o":"m 93 168 l 93 279 l 533 468 l 533 474 l 93 660 l 93 779 l 661 508 l 661 438 l 93 168 z "},"«":{"ha":679,"x_min":68,"x_max":585,"o":"m 275 74 l 68 328 l 68 354 l 272 606 l 314 588 l 239 342 l 317 94 l 275 74 m 543 74 l 336 328 l 336 354 l 540 606 l 582 588 l 507 342 l 585 94 l 543 74 z "},"»":{"ha":679,"x_min":94,"x_max":611,"o":"m 363 94 l 440 342 l 365 588 l 407 606 l 611 354 l 611 328 l 404 74 l 363 94 m 94 94 l 172 342 l 97 588 l 139 606 l 343 354 l 343 328 l 136 74 l 94 94 z "},"‹":{"ha":411,"x_min":68,"x_max":317,"o":"m 275 74 l 68 328 l 68 354 l 272 606 l 314 588 l 239 342 l 317 94 l 275 74 z "},"›":{"ha":411,"x_min":94,"x_max":343,"o":"m 94 94 l 172 342 l 97 588 l 139 606 l 343 354 l 343 328 l 136 74 l 94 94 z "},"h":{"ha":946,"x_min":25,"x_max":921,"o":"m 443 49 l 443 0 l 26 0 l 26 49 l 131 76 l 131 1014 l 25 1053 l 25 1085 l 315 1153 l 346 1153 l 346 665 q 463 726 394 703 q 599 750 532 750 q 796 639 742 750 q 806 612 801 626 q 813 575 810 597 q 816 521 815 553 q 817 442 817 489 l 817 76 l 921 49 l 921 0 l 504 0 l 504 49 l 601 76 l 601 388 q 599 497 601 461 q 588 554 597 533 q 542 610 571 590 q 464 631 513 631 q 346 582 394 631 l 346 76 l 443 49 z "},"ħ":{"ha":946,"x_min":25,"x_max":921,"o":"m 443 49 l 443 0 l 26 0 l 26 49 l 131 76 l 131 832 l 49 832 l 49 950 l 131 950 l 131 1014 l 25 1053 l 25 1085 l 315 1153 l 346 1153 l 346 950 l 531 950 l 531 832 l 346 832 l 346 665 q 463 726 394 703 q 599 750 532 750 q 796 639 742 750 q 806 612 801 626 q 813 575 810 597 q 816 521 815 553 q 817 442 817 489 l 817 76 l 921 49 l 921 0 l 504 0 l 504 49 l 601 76 l 601 388 q 599 497 601 461 q 588 554 597 533 q 542 610 571 590 q 464 631 513 631 q 346 582 394 631 l 346 76 l 443 49 z "},"ĥ":{"ha":946,"x_min":25,"x_max":921,"o":"m 443 49 l 443 0 l 26 0 l 26 49 l 131 76 l 131 1014 l 25 1053 l 25 1085 l 315 1153 l 346 1153 l 346 665 q 463 726 394 703 q 599 750 532 750 q 796 639 742 750 q 806 612 801 626 q 813 575 810 597 q 816 521 815 553 q 817 442 817 489 l 817 76 l 921 49 l 921 0 l 504 0 l 504 49 l 601 76 l 601 388 q 599 497 601 461 q 588 554 597 533 q 542 610 571 590 q 464 631 513 631 q 346 582 394 631 l 346 76 l 443 49 m 600 1193 q 652 1178 632 1193 q 692 1126 672 1163 l 811 892 l 768 875 l 599 1036 l 429 875 l 386 892 l 503 1126 q 544 1178 521 1163 q 600 1193 567 1193 z "},"ḥ":{"ha":946,"x_min":25,"x_max":921,"o":"m 443 49 l 443 0 l 26 0 l 26 49 l 131 76 l 131 1014 l 25 1053 l 25 1085 l 315 1153 l 346 1153 l 346 665 q 463 726 394 703 q 599 750 532 750 q 796 639 742 750 q 806 612 801 626 q 813 575 810 597 q 816 521 815 553 q 817 442 817 489 l 817 76 l 921 49 l 921 0 l 504 0 l 504 49 l 601 76 l 601 388 q 599 497 601 461 q 588 554 597 533 q 542 610 571 590 q 464 631 513 631 q 346 582 394 631 l 346 76 l 443 49 m 350 -247 q 381 -167 350 -201 q 469 -132 413 -132 q 560 -167 528 -132 q 593 -247 593 -201 q 562 -326 593 -290 q 469 -361 531 -361 q 381 -326 411 -361 q 350 -247 350 -290 z "},"˝":{"ha":493,"x_min":14,"x_max":479,"o":"m 256 892 l 313 1101 q 417 1193 338 1193 q 462 1176 444 1193 q 479 1131 479 1158 q 468 1084 479 1110 q 433 1031 457 1058 l 299 876 l 256 892 m 14 892 l 71 1101 q 175 1193 96 1193 q 220 1176 203 1193 q 238 1131 238 1158 q 226 1084 238 1110 q 192 1031 215 1058 l 57 876 l 14 892 z "},"-":{"ha":618,"x_min":88,"x_max":531,"o":"m 88 276 l 88 424 l 531 424 l 531 276 l 88 276 z "},"i":{"ha":500,"x_min":33,"x_max":478,"o":"m 138 968 q 169 1049 138 1014 q 257 1083 200 1083 q 348 1049 315 1083 q 381 968 381 1014 q 349 890 381 925 q 257 854 318 854 q 168 890 199 854 q 138 968 138 925 m 478 49 l 478 0 l 33 0 l 33 49 l 151 76 l 151 613 l 33 650 l 33 683 l 338 750 l 367 750 l 367 76 l 478 49 z "},"í":{"ha":500,"x_min":33,"x_max":478,"o":"m 478 49 l 478 0 l 33 0 l 33 49 l 151 76 l 151 613 l 33 650 l 33 683 l 338 750 l 367 750 l 367 76 l 478 49 m 151 892 l 208 1101 q 313 1193 233 1193 q 358 1176 340 1193 q 375 1131 375 1158 q 364 1084 375 1110 q 329 1031 353 1058 l 194 876 l 151 892 z "},"ĭ":{"ha":500,"x_min":33,"x_max":478,"o":"m 478 49 l 478 0 l 33 0 l 33 49 l 151 76 l 151 613 l 33 650 l 33 683 l 338 750 l 367 750 l 367 76 l 478 49 m 117 1097 q 172 1049 133 1064 q 257 1035 211 1035 q 340 1049 301 1035 q 401 1097 378 1064 l 469 1097 q 424 987 451 1028 q 367 924 397 946 q 306 897 336 903 q 251 890 275 890 q 185 901 219 890 q 123 935 151 911 q 74 999 94 960 q 47 1097 53 1039 l 117 1097 z "},"î":{"ha":500,"x_min":33,"x_max":478,"o":"m 478 49 l 478 0 l 33 0 l 33 49 l 151 76 l 151 613 l 33 650 l 33 683 l 338 750 l 367 750 l 367 76 l 478 49 m 264 1193 q 316 1178 296 1193 q 356 1126 336 1163 l 475 892 l 432 875 l 263 1036 l 93 875 l 50 892 l 167 1126 q 208 1178 185 1163 q 264 1193 231 1193 z "},"ï":{"ha":500,"x_min":1,"x_max":515,"o":"m 478 49 l 478 0 l 33 0 l 33 49 l 151 76 l 151 613 l 33 650 l 33 683 l 338 750 l 367 750 l 367 76 l 478 49 m 1 983 q 29 1053 1 1024 q 106 1083 57 1083 q 183 1053 154 1083 q 213 983 213 1024 q 185 916 213 947 q 106 885 158 885 q 28 916 54 885 q 1 983 1 947 m 304 983 q 332 1053 304 1024 q 408 1083 360 1083 q 486 1053 457 1083 q 515 983 515 1024 q 488 916 515 947 q 408 885 461 885 q 331 916 357 885 q 304 983 304 947 z "},"ị":{"ha":500,"x_min":33,"x_max":478,"o":"m 138 968 q 169 1049 138 1014 q 257 1083 200 1083 q 348 1049 315 1083 q 381 968 381 1014 q 349 890 381 925 q 257 854 318 854 q 168 890 199 854 q 138 968 138 925 m 478 49 l 478 0 l 33 0 l 33 49 l 151 76 l 151 613 l 33 650 l 33 683 l 338 750 l 367 750 l 367 76 l 478 49 m 139 -247 q 170 -167 139 -201 q 258 -132 201 -132 q 349 -167 317 -132 q 382 -247 382 -201 q 351 -326 382 -290 q 258 -361 319 -361 q 169 -326 200 -361 q 139 -247 139 -290 z "},"ì":{"ha":500,"x_min":33,"x_max":478,"o":"m 478 49 l 478 0 l 33 0 l 33 49 l 151 76 l 151 613 l 33 650 l 33 683 l 338 750 l 367 750 l 367 76 l 478 49 m 319 876 l 185 1031 q 150 1084 161 1058 q 139 1131 139 1110 q 156 1176 139 1158 q 201 1193 174 1193 q 306 1101 281 1193 l 363 892 l 319 876 z "},"ĳ":{"ha":958,"x_min":33,"x_max":863,"o":"m 138 968 q 169 1049 138 1014 q 257 1083 200 1083 q 348 1049 315 1083 q 381 968 381 1014 q 349 890 381 925 q 257 854 318 854 q 168 890 199 854 q 138 968 138 925 m 478 49 l 478 0 l 33 0 l 33 49 l 151 76 l 151 613 l 33 650 l 33 683 l 338 750 l 367 750 l 367 76 l 478 49 m 633 613 l 515 650 l 515 683 l 819 750 l 849 750 l 849 96 q 846 -4 849 39 q 836 -82 843 -47 q 818 -145 829 -117 q 790 -203 807 -174 q 673 -324 742 -286 q 501 -361 604 -361 q 323 -322 390 -361 q 256 -219 256 -283 q 281 -156 256 -179 q 349 -133 306 -133 q 401 -148 381 -133 q 440 -200 421 -162 q 484 -269 464 -250 q 533 -289 504 -289 q 633 -67 633 -289 l 633 613 m 619 968 q 651 1049 619 1014 q 739 1083 682 1083 q 830 1049 797 1083 q 863 968 863 1014 q 831 890 863 925 q 739 854 800 854 q 650 890 681 854 q 619 968 619 925 z "},"ī":{"ha":500,"x_min":33,"x_max":478,"o":"m 478 49 l 478 0 l 33 0 l 33 49 l 151 76 l 151 613 l 33 650 l 33 683 l 338 750 l 367 750 l 367 76 l 478 49 m 43 964 l 43 1097 l 469 1097 l 469 964 l 43 964 z "},"į":{"ha":500,"x_min":33,"x_max":478,"o":"m 396 -281 q 215 -356 319 -356 q 112 -323 150 -356 q 74 -233 74 -290 q 109 -117 74 -179 q 218 0 144 -56 l 33 0 l 33 49 l 151 76 l 151 613 l 33 650 l 33 683 l 338 750 l 367 750 l 367 76 l 478 49 l 478 0 l 306 0 q 246 -92 261 -49 q 231 -172 231 -135 q 297 -251 231 -251 q 334 -244 317 -251 q 375 -222 351 -237 l 396 -281 m 138 968 q 169 1049 138 1014 q 257 1083 200 1083 q 348 1049 315 1083 q 381 968 381 1014 q 349 890 381 925 q 257 854 318 854 q 168 890 199 854 q 138 968 138 925 z "},"ĩ":{"ha":500,"x_min":28,"x_max":482,"o":"m 478 49 l 478 0 l 33 0 l 33 49 l 151 76 l 151 613 l 33 650 l 33 683 l 338 750 l 367 750 l 367 76 l 478 49 m 28 921 q 69 1071 28 1019 q 176 1122 111 1122 q 224 1115 203 1122 q 263 1097 244 1107 q 301 1080 282 1088 q 344 1072 321 1072 q 428 1125 414 1072 l 482 1125 q 447 974 482 1029 q 340 919 411 919 q 290 928 311 919 q 251 947 269 936 q 213 965 232 957 q 167 974 193 974 q 108 959 131 974 q 82 921 86 944 l 28 921 z "},"j":{"ha":458,"x_min":-244,"x_max":363,"o":"m 133 613 l 15 650 l 15 683 l 319 750 l 349 750 l 349 96 q 346 -4 349 39 q 336 -82 343 -47 q 318 -145 329 -117 q 290 -203 307 -174 q 173 -324 242 -286 q 1 -361 104 -361 q -177 -322 -110 -361 q -244 -219 -244 -283 q -219 -156 -244 -179 q -151 -133 -194 -133 q -99 -148 -119 -133 q -60 -200 -79 -162 q -16 -269 -36 -250 q 33 -289 4 -289 q 133 -67 133 -289 l 133 613 m 119 968 q 151 1049 119 1014 q 239 1083 182 1083 q 330 1049 297 1083 q 363 968 363 1014 q 331 890 363 925 q 239 854 300 854 q 150 890 181 854 q 119 968 119 925 z "},"ĵ":{"ha":458,"x_min":-244,"x_max":451,"o":"m 133 613 l 15 650 l 15 683 l 319 750 l 349 750 l 349 96 q 346 -4 349 39 q 336 -82 343 -47 q 318 -145 329 -117 q 290 -203 307 -174 q 173 -324 242 -286 q 1 -361 104 -361 q -177 -322 -110 -361 q -244 -219 -244 -283 q -219 -156 -244 -179 q -151 -133 -194 -133 q -99 -148 -119 -133 q -60 -200 -79 -162 q -16 -269 -36 -250 q 33 -289 4 -289 q 133 -67 133 -289 l 133 613 m 240 1193 q 292 1178 272 1193 q 332 1126 313 1163 l 451 892 l 408 875 l 239 1036 l 69 875 l 26 892 l 143 1126 q 184 1178 161 1163 q 240 1193 207 1193 z "},"k":{"ha":928,"x_min":21,"x_max":947,"o":"m 496 736 l 878 736 l 878 688 q 803 674 832 681 q 754 658 774 667 q 720 638 735 650 q 689 608 706 625 l 569 488 l 833 76 l 947 49 l 947 0 l 625 0 l 426 340 l 354 265 l 354 76 l 475 49 l 475 0 l 21 0 l 21 49 l 139 76 l 139 1015 l 21 1053 l 21 1085 l 324 1153 l 354 1153 l 354 365 l 581 604 q 606 634 597 622 q 615 654 615 646 q 591 674 615 667 q 496 688 567 681 l 496 736 z "},"ķ":{"ha":928,"x_min":21,"x_max":947,"o":"m 496 736 l 878 736 l 878 688 q 803 674 832 681 q 754 658 774 667 q 720 638 735 650 q 689 608 706 625 l 569 488 l 833 76 l 947 49 l 947 0 l 625 0 l 426 340 l 354 265 l 354 76 l 475 49 l 475 0 l 21 0 l 21 49 l 139 76 l 139 1015 l 21 1053 l 21 1085 l 324 1153 l 354 1153 l 354 365 l 581 604 q 606 634 597 622 q 615 654 615 646 q 591 674 615 667 q 496 688 567 681 l 496 736 m 433 -328 q 467 -285 454 -308 q 481 -247 481 -262 q 470 -223 481 -232 q 448 -204 460 -214 q 426 -181 436 -194 q 415 -146 415 -168 q 442 -93 415 -114 q 508 -72 468 -72 q 578 -101 553 -72 q 603 -181 603 -131 q 567 -286 603 -239 q 465 -361 532 -333 l 433 -328 z "},"ĸ":{"ha":940,"x_min":33,"x_max":960,"o":"m 508 736 l 890 736 l 890 688 q 815 674 844 681 q 767 658 786 667 q 733 638 747 650 q 701 608 718 625 l 582 488 l 846 76 l 960 49 l 960 0 l 638 0 l 439 340 l 367 265 l 367 76 l 488 49 l 488 0 l 33 0 l 33 49 l 151 76 l 151 613 l 33 650 l 33 682 l 336 750 l 367 750 l 367 365 l 593 604 q 619 634 610 622 q 628 654 628 646 q 603 674 628 667 q 508 688 579 681 l 508 736 z "},"l":{"ha":494,"x_min":24,"x_max":468,"o":"m 468 49 l 468 0 l 24 0 l 24 49 l 142 76 l 142 1015 l 24 1053 l 24 1086 l 328 1153 l 357 1153 l 357 76 l 468 49 z "},"ĺ":{"ha":494,"x_min":24,"x_max":468,"o":"m 49 1163 l 249 1311 q 310 1333 279 1333 q 351 1317 333 1333 q 369 1274 369 1300 q 349 1230 369 1250 q 275 1194 329 1210 l 64 1133 l 49 1163 m 468 49 l 468 0 l 24 0 l 24 49 l 142 76 l 142 1015 l 24 1053 l 24 1086 l 328 1153 l 357 1153 l 357 76 l 468 49 z "},"ľ":{"ha":494,"x_min":24,"x_max":589,"o":"m 468 49 l 468 0 l 24 0 l 24 49 l 142 76 l 142 1015 l 24 1053 l 24 1086 l 328 1153 l 357 1153 l 357 76 l 468 49 m 443 892 l 443 1088 q 469 1165 443 1140 q 536 1190 496 1190 q 589 1135 589 1190 q 571 1063 589 1100 l 488 892 l 443 892 z "},"ļ":{"ha":494,"x_min":24,"x_max":468,"o":"m 468 49 l 468 0 l 24 0 l 24 49 l 142 76 l 142 1015 l 24 1053 l 24 1086 l 328 1153 l 357 1153 l 357 76 l 468 49 m 154 -328 q 188 -285 175 -308 q 201 -247 201 -262 q 191 -223 201 -232 q 169 -204 181 -214 q 147 -181 157 -194 q 136 -146 136 -168 q 163 -93 136 -114 q 229 -72 189 -72 q 299 -101 274 -72 q 324 -181 324 -131 q 288 -286 324 -239 q 186 -361 253 -333 l 154 -328 z "},"ŀ":{"ha":642,"x_min":24,"x_max":694,"o":"m 468 49 l 468 0 l 24 0 l 24 49 l 142 76 l 142 1015 l 24 1053 l 24 1086 l 328 1153 l 357 1153 l 357 76 l 468 49 m 444 426 q 478 514 444 479 q 567 549 513 549 q 658 514 622 549 q 694 426 694 479 q 659 340 694 374 q 568 307 624 307 q 478 340 513 307 q 444 426 444 374 z "},"<":{"ha":706,"x_min":46,"x_max":614,"o":"m 46 431 l 46 501 l 614 772 l 614 660 l 174 474 l 174 468 l 614 279 l 614 161 l 46 431 z "},"¬":{"ha":761,"x_min":97,"x_max":667,"o":"m 568 340 l 97 340 l 97 428 l 667 428 l 667 190 l 568 190 l 568 340 z "},"ł":{"ha":500,"x_min":26,"x_max":474,"o":"m 40 529 l 144 585 l 144 1015 l 26 1053 l 26 1086 l 331 1153 l 360 1153 l 360 699 l 474 760 l 474 628 l 360 567 l 360 76 l 471 49 l 471 0 l 26 0 l 26 49 l 144 76 l 144 453 l 40 397 l 40 529 z "},"m":{"ha":1400,"x_min":36,"x_max":1369,"o":"m 453 49 l 453 0 l 36 0 l 36 49 l 140 76 l 140 611 l 39 650 l 39 682 l 294 750 l 350 750 l 350 660 q 466 725 400 700 q 596 750 532 750 q 790 643 733 750 q 912 721 840 692 q 1054 750 983 750 q 1251 639 1197 750 q 1261 612 1257 626 q 1268 575 1265 597 q 1272 521 1271 553 q 1272 442 1272 489 l 1272 76 l 1369 49 l 1369 0 l 960 0 l 960 49 l 1057 76 l 1057 388 q 1054 497 1057 461 q 1043 554 1051 533 q 919 626 1015 626 q 810 578 856 626 q 813 524 813 556 q 814 442 814 492 l 814 76 l 911 49 l 911 0 l 501 0 l 501 49 l 599 76 l 599 388 q 596 497 599 461 q 585 554 593 533 q 461 628 557 628 q 356 585 401 628 l 356 76 l 453 49 z "},"¯":{"ha":454,"x_min":14,"x_max":440,"o":"m 14 964 l 14 1097 l 440 1097 l 440 964 l 14 964 z "},"−":{"ha":758,"x_min":94,"x_max":664,"o":"m 94 426 l 94 517 l 664 517 l 664 426 l 94 426 z "},"µ":{"ha":938,"x_min":106,"x_max":890,"o":"m 578 76 l 572 78 q 415 -14 514 -14 q 271 100 306 -14 l 267 97 q 276 -11 267 35 q 295 -94 285 -57 q 315 -165 306 -131 q 324 -239 324 -199 q 292 -327 324 -293 q 213 -361 261 -361 q 133 -319 160 -361 q 106 -199 106 -278 q 109 -125 106 -169 q 116 -29 113 -81 q 123 76 119 22 q 126 176 126 129 l 126 736 l 342 736 l 342 325 q 345 224 342 257 q 358 171 349 190 q 460 113 383 113 q 569 153 525 113 l 569 736 l 785 736 l 785 125 l 890 86 l 890 54 l 608 -14 l 578 -14 l 578 76 z "},"×":{"ha":672,"x_min":81,"x_max":593,"o":"m 268 472 l 82 658 l 150 726 l 336 540 l 522 726 l 593 657 l 406 469 l 592 285 l 524 217 l 338 401 l 150 214 l 81 285 l 268 472 z "},"n":{"ha":950,"x_min":36,"x_max":925,"o":"m 454 49 l 454 0 l 38 0 l 38 49 l 142 76 l 142 611 l 36 650 l 36 682 l 319 750 l 350 750 l 350 647 q 466 722 397 694 q 606 750 535 750 q 724 721 674 750 q 800 639 774 692 q 810 610 806 625 q 817 573 814 594 q 820 519 819 551 q 821 442 821 488 l 821 76 l 925 49 l 925 0 l 508 0 l 508 49 l 606 76 l 606 388 q 605 456 606 428 q 603 502 604 483 q 599 533 601 521 q 592 554 596 544 q 545 607 576 589 q 469 625 514 625 q 357 572 401 625 l 357 76 l 454 49 z "},"ń":{"ha":950,"x_min":36,"x_max":925,"o":"m 454 49 l 454 0 l 38 0 l 38 49 l 142 76 l 142 611 l 36 650 l 36 682 l 319 750 l 350 750 l 350 647 q 466 722 397 694 q 606 750 535 750 q 724 721 674 750 q 800 639 774 692 q 810 610 806 625 q 817 573 814 594 q 820 519 819 551 q 821 442 821 488 l 821 76 l 925 49 l 925 0 l 508 0 l 508 49 l 606 76 l 606 388 q 605 456 606 428 q 603 502 604 483 q 599 533 601 521 q 592 554 596 544 q 545 607 576 589 q 469 625 514 625 q 357 572 401 625 l 357 76 l 454 49 m 376 892 l 433 1101 q 538 1193 458 1193 q 583 1176 565 1193 q 600 1131 600 1158 q 589 1084 600 1110 q 554 1031 578 1058 l 419 876 l 376 892 z "},"ŉ":{"ha":978,"x_min":58,"x_max":953,"o":"m 482 49 l 482 0 l 65 0 l 65 49 l 169 76 l 169 611 l 64 650 l 64 682 l 347 750 l 378 750 l 378 647 q 494 722 425 694 q 633 750 563 750 q 751 721 701 750 q 828 639 801 692 q 838 610 833 625 q 844 573 842 594 q 848 519 847 551 q 849 442 849 488 l 849 76 l 953 49 l 953 0 l 536 0 l 536 49 l 633 76 l 633 388 q 633 456 633 428 q 631 502 632 483 q 626 533 629 521 q 619 554 624 544 q 573 607 604 589 q 497 625 542 625 q 385 572 429 625 l 385 76 l 482 49 m 79 899 q 133 946 114 922 q 151 989 151 969 q 137 1017 151 1007 q 105 1038 122 1028 q 73 1064 88 1049 q 58 1107 58 1079 q 85 1167 58 1143 q 154 1190 113 1190 q 229 1158 201 1190 q 257 1067 257 1125 q 218 947 257 1000 q 107 861 179 894 l 79 899 z "},"ň":{"ha":950,"x_min":36,"x_max":925,"o":"m 454 49 l 454 0 l 38 0 l 38 49 l 142 76 l 142 611 l 36 650 l 36 682 l 319 750 l 350 750 l 350 647 q 466 722 397 694 q 606 750 535 750 q 724 721 674 750 q 800 639 774 692 q 810 610 806 625 q 817 573 814 594 q 820 519 819 551 q 821 442 821 488 l 821 76 l 925 49 l 925 0 l 508 0 l 508 49 l 606 76 l 606 388 q 605 456 606 428 q 603 502 604 483 q 599 533 601 521 q 592 554 596 544 q 545 607 576 589 q 469 625 514 625 q 357 572 401 625 l 357 76 l 454 49 m 479 875 q 423 890 446 875 q 382 942 400 906 l 265 1176 l 308 1193 l 478 1032 l 647 1193 l 690 1176 l 571 942 q 531 890 551 906 q 479 875 511 875 z "},"ņ":{"ha":950,"x_min":36,"x_max":925,"o":"m 454 49 l 454 0 l 38 0 l 38 49 l 142 76 l 142 611 l 36 650 l 36 682 l 319 750 l 350 750 l 350 647 q 466 722 397 694 q 606 750 535 750 q 724 721 674 750 q 800 639 774 692 q 810 610 806 625 q 817 573 814 594 q 820 519 819 551 q 821 442 821 488 l 821 76 l 925 49 l 925 0 l 508 0 l 508 49 l 606 76 l 606 388 q 605 456 606 428 q 603 502 604 483 q 599 533 601 521 q 592 554 596 544 q 545 607 576 589 q 469 625 514 625 q 357 572 401 625 l 357 76 l 454 49 m 401 -314 q 435 -272 422 -294 q 449 -233 449 -249 q 438 -209 449 -218 q 416 -190 428 -200 q 394 -167 404 -181 q 383 -132 383 -154 q 410 -79 383 -100 q 476 -58 436 -58 q 546 -87 521 -58 q 571 -167 571 -117 q 535 -272 571 -225 q 433 -347 500 -319 l 401 -314 z "},"ṅ":{"ha":950,"x_min":36,"x_max":925,"o":"m 454 49 l 454 0 l 38 0 l 38 49 l 142 76 l 142 611 l 36 650 l 36 682 l 319 750 l 350 750 l 350 647 q 466 722 397 694 q 606 750 535 750 q 724 721 674 750 q 800 639 774 692 q 810 610 806 625 q 817 573 814 594 q 820 519 819 551 q 821 442 821 488 l 821 76 l 925 49 l 925 0 l 508 0 l 508 49 l 606 76 l 606 388 q 605 456 606 428 q 603 502 604 483 q 599 533 601 521 q 592 554 596 544 q 545 607 576 589 q 469 625 514 625 q 357 572 401 625 l 357 76 l 454 49 m 358 967 q 390 1047 358 1013 q 478 1082 421 1082 q 569 1047 536 1082 q 601 967 601 1013 q 570 888 601 924 q 478 853 539 853 q 389 888 419 853 q 358 967 358 924 z "},"₉":{"ha":651,"x_min":25,"x_max":607,"o":"m 318 489 q 530 421 453 489 q 607 233 607 353 q 576 88 607 158 q 488 -42 544 18 q 350 -149 431 -103 q 171 -225 269 -196 l 140 -185 q 226 -129 183 -164 q 303 -54 268 -94 q 360 28 338 -14 q 389 108 383 71 q 340 74 371 86 q 265 61 308 61 q 170 77 214 61 q 94 120 126 93 q 43 185 61 147 q 25 267 25 222 q 46 358 25 317 q 106 428 67 399 q 199 473 144 457 q 318 489 253 489 m 308 432 q 244 392 268 432 q 221 282 221 353 q 246 173 221 213 q 315 133 271 133 q 392 182 365 133 q 401 222 399 200 q 404 267 404 243 q 378 388 404 343 q 308 432 353 432 z "},"⁹":{"ha":651,"x_min":25,"x_max":607,"o":"m 318 1286 q 530 1218 453 1286 q 607 1031 607 1150 q 576 885 607 956 q 488 755 544 815 q 350 648 431 694 q 171 572 269 601 l 140 613 q 226 668 183 633 q 303 743 268 703 q 360 826 338 783 q 389 906 383 868 q 340 871 371 883 q 265 858 308 858 q 170 874 214 858 q 94 917 126 890 q 43 982 61 944 q 25 1064 25 1019 q 46 1155 25 1114 q 106 1225 67 1196 q 199 1270 144 1254 q 318 1286 253 1286 m 308 1229 q 244 1190 268 1229 q 221 1079 221 1150 q 246 970 221 1010 q 315 931 271 931 q 392 979 365 931 q 401 1019 399 997 q 404 1064 404 1040 q 378 1185 404 1140 q 308 1229 353 1229 z "},"ñ":{"ha":950,"x_min":36,"x_max":925,"o":"m 454 49 l 454 0 l 38 0 l 38 49 l 142 76 l 142 611 l 36 650 l 36 682 l 319 750 l 350 750 l 350 647 q 466 722 397 694 q 606 750 535 750 q 724 721 674 750 q 800 639 774 692 q 810 610 806 625 q 817 573 814 594 q 820 519 819 551 q 821 442 821 488 l 821 76 l 925 49 l 925 0 l 508 0 l 508 49 l 606 76 l 606 388 q 605 456 606 428 q 603 502 604 483 q 599 533 601 521 q 592 554 596 544 q 545 607 576 589 q 469 625 514 625 q 357 572 401 625 l 357 76 l 454 49 m 254 921 q 296 1071 254 1019 q 403 1122 338 1122 q 450 1115 429 1122 q 490 1097 471 1107 q 528 1080 508 1088 q 571 1072 547 1072 q 654 1125 640 1072 l 708 1125 q 673 974 708 1029 q 567 919 638 919 q 517 928 538 919 q 477 947 496 936 q 439 965 458 957 q 393 974 419 974 q 335 959 357 974 q 308 921 313 944 l 254 921 z "},"#":{"ha":926,"x_min":50,"x_max":875,"o":"m 721 967 l 685 736 l 875 736 l 858 643 l 669 643 l 639 449 l 825 449 l 806 356 l 625 356 l 589 128 l 496 128 l 532 356 l 339 356 l 303 128 l 208 128 l 244 356 l 50 356 l 69 449 l 258 449 l 289 643 l 103 643 l 119 736 l 304 736 l 340 967 l 435 967 l 399 736 l 592 736 l 628 967 l 721 967 m 353 449 l 546 449 l 576 643 l 383 643 l 353 449 z "},"o":{"ha":892,"x_min":50,"x_max":842,"o":"m 446 750 q 615 720 542 750 q 739 638 689 690 q 815 517 789 586 q 842 368 842 447 q 815 219 842 289 q 739 98 789 150 q 615 16 689 46 q 446 -14 542 -14 q 276 16 350 -14 q 153 98 203 46 q 76 219 103 150 q 50 368 50 289 q 76 517 50 447 q 153 638 103 586 q 276 720 203 690 q 446 750 350 750 m 283 368 q 290 265 283 319 q 313 164 296 210 q 363 88 331 118 q 446 57 394 57 q 528 88 496 57 q 578 164 560 118 q 602 265 596 210 q 608 368 608 319 q 602 470 608 415 q 578 571 596 525 q 529 647 561 617 q 446 678 497 678 q 363 647 394 678 q 313 571 331 617 q 290 470 296 525 q 283 368 283 415 z "},"ó":{"ha":892,"x_min":50,"x_max":842,"o":"m 446 750 q 615 720 542 750 q 739 638 689 690 q 815 517 789 586 q 842 368 842 447 q 815 219 842 289 q 739 98 789 150 q 615 16 689 46 q 446 -14 542 -14 q 276 16 350 -14 q 153 98 203 46 q 76 219 103 150 q 50 368 50 289 q 76 517 50 447 q 153 638 103 586 q 276 720 203 690 q 446 750 350 750 m 283 368 q 290 265 283 319 q 313 164 296 210 q 363 88 331 118 q 446 57 394 57 q 528 88 496 57 q 578 164 560 118 q 602 265 596 210 q 608 368 608 319 q 602 470 608 415 q 578 571 596 525 q 529 647 561 617 q 446 678 497 678 q 363 647 394 678 q 313 571 331 617 q 290 470 296 525 q 283 368 283 415 m 374 892 l 431 1101 q 535 1193 456 1193 q 580 1176 563 1193 q 597 1131 597 1158 q 586 1084 597 1110 q 551 1031 575 1058 l 417 876 l 374 892 z "},"ŏ":{"ha":892,"x_min":50,"x_max":842,"o":"m 446 750 q 615 720 542 750 q 739 638 689 690 q 815 517 789 586 q 842 368 842 447 q 815 219 842 289 q 739 98 789 150 q 615 16 689 46 q 446 -14 542 -14 q 276 16 350 -14 q 153 98 203 46 q 76 219 103 150 q 50 368 50 289 q 76 517 50 447 q 153 638 103 586 q 276 720 203 690 q 446 750 350 750 m 283 368 q 290 265 283 319 q 313 164 296 210 q 363 88 331 118 q 446 57 394 57 q 528 88 496 57 q 578 164 560 118 q 602 265 596 210 q 608 368 608 319 q 602 470 608 415 q 578 571 596 525 q 529 647 561 617 q 446 678 497 678 q 363 647 394 678 q 313 571 331 617 q 290 470 296 525 q 283 368 283 415 m 306 1097 q 361 1049 322 1064 q 446 1035 400 1035 q 528 1049 490 1035 q 590 1097 567 1064 l 658 1097 q 613 987 640 1028 q 556 924 586 946 q 494 897 525 903 q 440 890 464 890 q 374 901 408 890 q 312 935 340 911 q 263 999 283 960 q 236 1097 242 1039 l 306 1097 z "},"ô":{"ha":892,"x_min":50,"x_max":842,"o":"m 446 750 q 615 720 542 750 q 739 638 689 690 q 815 517 789 586 q 842 368 842 447 q 815 219 842 289 q 739 98 789 150 q 615 16 689 46 q 446 -14 542 -14 q 276 16 350 -14 q 153 98 203 46 q 76 219 103 150 q 50 368 50 289 q 76 517 50 447 q 153 638 103 586 q 276 720 203 690 q 446 750 350 750 m 283 368 q 290 265 283 319 q 313 164 296 210 q 363 88 331 118 q 446 57 394 57 q 528 88 496 57 q 578 164 560 118 q 602 265 596 210 q 608 368 608 319 q 602 470 608 415 q 578 571 596 525 q 529 647 561 617 q 446 678 497 678 q 363 647 394 678 q 313 571 331 617 q 290 470 296 525 q 283 368 283 415 m 456 1193 q 508 1178 488 1193 q 547 1126 528 1163 l 667 892 l 624 875 l 454 1036 l 285 875 l 242 892 l 358 1126 q 399 1178 376 1163 q 456 1193 422 1193 z "},"ö":{"ha":892,"x_min":50,"x_max":842,"o":"m 446 750 q 615 720 542 750 q 739 638 689 690 q 815 517 789 586 q 842 368 842 447 q 815 219 842 289 q 739 98 789 150 q 615 16 689 46 q 446 -14 542 -14 q 276 16 350 -14 q 153 98 203 46 q 76 219 103 150 q 50 368 50 289 q 76 517 50 447 q 153 638 103 586 q 276 720 203 690 q 446 750 350 750 m 283 368 q 290 265 283 319 q 313 164 296 210 q 363 88 331 118 q 446 57 394 57 q 528 88 496 57 q 578 164 560 118 q 602 265 596 210 q 608 368 608 319 q 602 470 608 415 q 578 571 596 525 q 529 647 561 617 q 446 678 497 678 q 363 647 394 678 q 313 571 331 617 q 290 470 296 525 q 283 368 283 415 m 190 983 q 218 1053 190 1024 q 294 1083 246 1083 q 372 1053 343 1083 q 401 983 401 1024 q 374 916 401 947 q 294 885 347 885 q 217 916 243 885 q 190 983 190 947 m 493 983 q 521 1053 493 1024 q 597 1083 549 1083 q 675 1053 646 1083 q 704 983 704 1024 q 677 916 704 947 q 597 885 650 885 q 519 916 546 885 q 493 983 493 947 z "},"ọ":{"ha":892,"x_min":50,"x_max":842,"o":"m 446 750 q 615 720 542 750 q 739 638 689 690 q 815 517 789 586 q 842 368 842 447 q 815 219 842 289 q 739 98 789 150 q 615 16 689 46 q 446 -14 542 -14 q 276 16 350 -14 q 153 98 203 46 q 76 219 103 150 q 50 368 50 289 q 76 517 50 447 q 153 638 103 586 q 276 720 203 690 q 446 750 350 750 m 283 368 q 290 265 283 319 q 313 164 296 210 q 363 88 331 118 q 446 57 394 57 q 528 88 496 57 q 578 164 560 118 q 602 265 596 210 q 608 368 608 319 q 602 470 608 415 q 578 571 596 525 q 529 647 561 617 q 446 678 497 678 q 363 647 394 678 q 313 571 331 617 q 290 470 296 525 q 283 368 283 415 m 328 -247 q 359 -167 328 -201 q 447 -132 390 -132 q 538 -167 506 -132 q 571 -247 571 -201 q 540 -326 571 -290 q 447 -361 508 -361 q 358 -326 389 -361 q 328 -247 328 -290 z "},"œ":{"ha":1400,"x_min":50,"x_max":1358,"o":"m 1347 403 l 842 403 q 1060 129 843 129 q 1183 152 1121 129 q 1286 221 1246 175 l 1296 232 l 1335 199 l 1328 182 q 1198 37 1289 88 q 993 -14 1107 -14 q 840 11 908 -14 q 722 82 771 36 q 603 12 672 38 q 446 -14 533 -14 q 276 16 350 -14 q 153 98 203 46 q 76 219 103 150 q 50 368 50 289 q 76 517 50 447 q 153 638 103 586 q 276 720 203 690 q 446 750 350 750 q 609 722 538 750 q 731 644 681 693 q 861 722 786 694 q 1028 750 936 750 q 1270 665 1188 750 q 1358 411 1353 579 l 1347 403 m 283 368 q 290 265 283 319 q 313 164 296 210 q 363 88 331 118 q 446 57 394 57 q 528 88 496 57 q 578 164 560 118 q 602 265 596 210 q 608 368 608 319 q 602 470 608 415 q 578 571 596 525 q 529 647 561 617 q 446 678 497 678 q 363 647 394 678 q 313 571 331 617 q 290 470 296 525 q 283 368 283 415 m 1010 679 q 896 625 938 679 q 844 468 854 571 l 1128 479 q 1132 500 1131 486 q 1133 532 1133 514 q 1010 679 1133 679 z "},"˛":{"ha":350,"x_min":14,"x_max":336,"o":"m 336 -281 q 156 -356 260 -356 q 52 -323 90 -356 q 14 -233 14 -290 q 62 -109 14 -175 q 193 15 110 -43 l 274 15 q 171 -172 171 -92 q 238 -251 171 -251 q 274 -244 257 -251 q 315 -222 292 -237 l 336 -281 z "},"ò":{"ha":892,"x_min":50,"x_max":842,"o":"m 446 750 q 615 720 542 750 q 739 638 689 690 q 815 517 789 586 q 842 368 842 447 q 815 219 842 289 q 739 98 789 150 q 615 16 689 46 q 446 -14 542 -14 q 276 16 350 -14 q 153 98 203 46 q 76 219 103 150 q 50 368 50 289 q 76 517 50 447 q 153 638 103 586 q 276 720 203 690 q 446 750 350 750 m 283 368 q 290 265 283 319 q 313 164 296 210 q 363 88 331 118 q 446 57 394 57 q 528 88 496 57 q 578 164 560 118 q 602 265 596 210 q 608 368 608 319 q 602 470 608 415 q 578 571 596 525 q 529 647 561 617 q 446 678 497 678 q 363 647 394 678 q 313 571 331 617 q 290 470 296 525 q 283 368 283 415 m 517 876 l 382 1031 q 347 1084 358 1058 q 336 1131 336 1110 q 353 1176 336 1158 q 399 1193 371 1193 q 503 1101 478 1193 l 560 892 l 517 876 z "},"ő":{"ha":892,"x_min":50,"x_max":842,"o":"m 446 750 q 615 720 542 750 q 739 638 689 690 q 815 517 789 586 q 842 368 842 447 q 815 219 842 289 q 739 98 789 150 q 615 16 689 46 q 446 -14 542 -14 q 276 16 350 -14 q 153 98 203 46 q 76 219 103 150 q 50 368 50 289 q 76 517 50 447 q 153 638 103 586 q 276 720 203 690 q 446 750 350 750 m 283 368 q 290 265 283 319 q 313 164 296 210 q 363 88 331 118 q 446 57 394 57 q 528 88 496 57 q 578 164 560 118 q 602 265 596 210 q 608 368 608 319 q 602 470 608 415 q 578 571 596 525 q 529 647 561 617 q 446 678 497 678 q 363 647 394 678 q 313 571 331 617 q 290 470 296 525 q 283 368 283 415 m 558 892 l 615 1101 q 719 1193 640 1193 q 765 1176 747 1193 q 782 1131 782 1158 q 771 1084 782 1110 q 736 1031 760 1058 l 601 876 l 558 892 m 317 892 l 374 1101 q 478 1193 399 1193 q 523 1176 506 1193 q 540 1131 540 1158 q 529 1084 540 1110 q 494 1031 518 1058 l 360 876 l 317 892 z "},"ō":{"ha":892,"x_min":50,"x_max":842,"o":"m 446 750 q 615 720 542 750 q 739 638 689 690 q 815 517 789 586 q 842 368 842 447 q 815 219 842 289 q 739 98 789 150 q 615 16 689 46 q 446 -14 542 -14 q 276 16 350 -14 q 153 98 203 46 q 76 219 103 150 q 50 368 50 289 q 76 517 50 447 q 153 638 103 586 q 276 720 203 690 q 446 750 350 750 m 283 368 q 290 265 283 319 q 313 164 296 210 q 363 88 331 118 q 446 57 394 57 q 528 88 496 57 q 578 164 560 118 q 602 265 596 210 q 608 368 608 319 q 602 470 608 415 q 578 571 596 525 q 529 647 561 617 q 446 678 497 678 q 363 647 394 678 q 313 571 331 617 q 290 470 296 525 q 283 368 283 415 m 244 964 l 244 1097 l 671 1097 l 671 964 l 244 964 z "},"⅛":{"ha":1482,"x_min":63,"x_max":1433,"o":"m 324 0 l 968 1069 l 1114 1069 l 468 0 l 324 0 m 381 1081 l 381 440 l 515 415 l 515 381 l 64 381 l 64 415 l 193 440 l 193 936 l 63 936 l 63 979 q 201 1015 142 989 q 321 1088 260 1042 l 381 1081 m 1256 401 q 1392 312 1350 358 q 1433 204 1433 265 q 1411 118 1433 157 q 1349 51 1389 79 q 1255 6 1310 22 q 1133 -10 1200 -10 q 918 43 990 -10 q 846 178 846 96 q 1001 339 846 282 q 879 521 879 411 q 950 657 879 607 q 1143 707 1021 707 q 1326 664 1257 707 q 1396 550 1396 621 q 1256 401 1396 450 m 1185 426 q 1246 550 1246 481 q 1217 624 1246 597 q 1135 650 1188 650 q 1060 628 1088 650 q 1033 565 1033 606 q 1068 493 1033 525 q 1185 426 1103 461 m 1064 311 q 1027 264 1040 296 q 1014 189 1014 232 q 1047 85 1014 121 q 1144 49 1081 49 q 1234 76 1200 49 q 1268 150 1268 104 q 1220 235 1268 197 q 1064 311 1172 274 z "},"½":{"ha":1464,"x_min":60,"x_max":1415,"o":"m 321 0 l 965 1069 l 1111 1069 l 465 0 l 321 0 m 378 1081 l 378 440 l 513 415 l 513 381 l 61 381 l 61 415 l 190 440 l 190 936 l 60 936 l 60 979 q 198 1015 139 989 q 318 1088 257 1042 l 378 1081 m 856 0 l 846 60 q 1009 200 942 138 q 1119 314 1076 263 q 1180 408 1161 365 q 1199 492 1199 451 q 1166 583 1199 550 q 1078 617 1133 617 q 981 587 1029 617 q 906 511 933 557 l 853 532 q 968 661 893 615 q 1139 707 1043 707 q 1243 692 1194 707 q 1328 650 1292 676 q 1384 588 1364 624 q 1404 510 1404 551 q 1387 428 1404 468 q 1328 342 1369 388 q 1219 244 1288 297 q 1050 126 1151 192 l 1286 126 q 1322 163 1306 142 q 1358 217 1338 185 l 1415 208 l 1324 -32 l 1285 -32 l 1258 0 l 856 0 z "},"₁":{"ha":551,"x_min":67,"x_max":519,"o":"m 385 485 l 385 -156 l 519 -181 l 519 -215 l 68 -215 l 68 -181 l 197 -156 l 197 340 l 67 340 l 67 383 q 205 419 146 393 q 325 492 264 446 l 385 485 z "},"¼":{"ha":1436,"x_min":63,"x_max":1386,"o":"m 378 0 l 1022 1069 l 1168 1069 l 522 0 l 378 0 m 381 1081 l 381 440 l 515 415 l 515 381 l 64 381 l 64 415 l 193 440 l 193 936 l 63 936 l 63 979 q 201 1015 142 989 q 321 1088 260 1042 l 381 1081 m 1096 171 l 810 171 l 786 231 l 1178 707 l 1286 699 l 1286 263 l 1386 263 l 1386 171 l 1286 171 l 1286 58 l 1382 36 l 1382 0 l 967 0 l 967 36 l 1096 58 l 1096 171 m 1096 494 l 1090 494 l 907 268 l 908 263 l 1096 263 l 1096 494 z "},"¹":{"ha":556,"x_min":68,"x_max":521,"o":"m 386 1282 l 386 642 l 521 617 l 521 582 l 69 582 l 69 617 l 199 642 l 199 1138 l 68 1138 l 68 1181 q 206 1217 147 1190 q 326 1289 265 1243 l 386 1282 z "},"⅓":{"ha":1447,"x_min":63,"x_max":1399,"o":"m 324 0 l 968 1069 l 1114 1069 l 468 0 l 324 0 m 381 1081 l 381 440 l 515 415 l 515 381 l 64 381 l 64 415 l 193 440 l 193 936 l 63 936 l 63 979 q 201 1015 142 989 q 321 1088 260 1042 l 381 1081 m 972 372 q 1111 447 1060 400 q 1163 543 1163 493 q 1140 598 1163 578 q 1075 618 1117 618 q 994 595 1035 618 q 933 536 954 572 l 890 550 q 976 664 910 621 q 1139 707 1043 707 q 1292 668 1235 707 q 1349 564 1349 629 q 1335 512 1349 536 q 1300 468 1322 488 q 1249 435 1278 449 q 1190 418 1221 422 l 1190 413 q 1342 358 1285 406 q 1399 231 1399 310 q 1374 137 1399 181 q 1306 60 1349 93 q 1204 9 1263 28 q 1079 -10 1146 -10 q 990 0 1031 -10 q 917 27 949 10 q 869 67 886 44 q 851 117 851 90 q 874 167 851 147 q 935 186 897 186 q 990 165 974 186 q 1018 119 1006 144 q 1049 74 1031 94 q 1107 53 1067 53 q 1174 85 1151 53 q 1196 176 1196 117 q 1158 292 1196 251 q 1050 333 1121 333 q 1019 333 1036 333 q 993 329 1001 332 l 972 372 z "},"ǫ":{"ha":892,"x_min":50,"x_max":842,"o":"m 593 -283 q 413 -358 517 -358 q 309 -326 347 -358 q 271 -236 271 -293 q 303 -124 271 -183 q 403 -11 336 -65 q 251 27 317 -6 q 141 110 186 60 q 73 227 96 161 q 50 368 50 293 q 76 517 50 447 q 153 638 103 586 q 276 720 203 690 q 446 750 350 750 q 615 720 542 750 q 739 638 689 690 q 815 517 789 586 q 842 368 842 447 q 819 229 842 294 q 752 113 796 164 q 643 28 708 61 q 494 -11 578 -4 q 442 -99 456 -58 q 428 -175 428 -139 q 494 -254 428 -254 q 531 -247 514 -254 q 572 -225 549 -240 l 593 -283 m 283 368 q 290 265 283 319 q 313 164 296 210 q 363 88 331 118 q 446 57 394 57 q 528 88 496 57 q 578 164 560 118 q 602 265 596 210 q 608 368 608 319 q 602 470 608 415 q 578 571 596 525 q 529 647 561 617 q 446 678 497 678 q 363 647 394 678 q 313 571 331 617 q 290 470 296 525 q 283 368 283 415 z "},"ª":{"ha":583,"x_min":71,"x_max":540,"o":"m 190 586 q 106 617 142 586 q 71 697 71 647 q 85 753 71 728 q 128 800 99 779 q 206 838 158 821 q 319 871 253 856 l 319 931 q 305 998 319 975 q 257 1021 290 1021 q 207 1006 229 1021 q 185 965 185 990 q 186 950 185 958 q 188 933 188 942 q 170 892 188 908 q 133 875 153 875 q 92 889 106 875 q 78 925 78 903 q 106 995 78 958 q 182 1056 133 1032 q 244 1077 210 1071 q 311 1083 278 1083 q 390 1070 356 1083 q 436 1035 424 1057 q 442 1018 440 1026 q 445 997 444 1010 q 447 965 446 985 q 447 917 447 946 l 447 724 q 454 664 447 679 q 481 649 461 649 q 518 668 499 649 l 540 647 q 426 586 493 586 q 326 661 342 586 l 321 663 q 264 606 296 625 q 190 586 232 586 m 253 672 q 319 732 301 672 l 319 821 q 227 782 253 804 q 201 728 201 760 q 217 685 201 699 q 253 672 233 672 z "},"º":{"ha":589,"x_min":57,"x_max":532,"o":"m 294 1083 q 389 1065 346 1083 q 464 1013 432 1046 q 514 934 496 979 q 532 835 532 889 q 514 735 532 781 q 464 657 496 690 q 389 605 432 624 q 294 586 346 586 q 200 605 243 586 q 125 657 157 624 q 75 735 93 690 q 57 835 57 781 q 75 934 57 889 q 125 1013 93 979 q 200 1065 157 1046 q 294 1083 243 1083 m 194 835 q 220 697 194 746 q 293 647 246 647 q 368 697 342 647 q 394 836 394 747 q 369 972 394 924 q 294 1021 343 1021 q 220 972 246 1021 q 194 835 194 924 z "},"ø":{"ha":906,"x_min":43,"x_max":865,"o":"m 453 -14 q 315 5 376 -14 q 204 58 253 24 l 147 0 l 43 0 l 149 110 q 81 227 104 161 q 57 368 57 293 q 83 517 57 447 q 160 638 110 586 q 283 720 210 690 q 453 750 357 750 q 591 731 529 750 q 701 676 653 711 l 760 736 l 865 736 l 757 625 q 825 508 801 574 q 849 368 849 443 q 822 219 849 289 q 746 98 796 150 q 622 16 696 46 q 453 -14 549 -14 m 589 561 q 539 644 571 611 q 453 678 507 678 q 369 647 401 678 q 320 571 338 617 q 297 470 303 525 q 290 368 290 415 q 292 316 290 343 q 297 261 293 289 l 589 561 m 453 57 q 535 88 503 57 q 585 164 567 118 q 609 265 603 210 q 615 368 615 319 q 613 418 615 392 q 608 472 611 444 l 317 174 q 366 90 333 124 q 453 57 399 57 z "},"ǿ":{"ha":906,"x_min":43,"x_max":865,"o":"m 453 -14 q 315 5 376 -14 q 204 58 253 24 l 147 0 l 43 0 l 149 110 q 81 227 104 161 q 57 368 57 293 q 83 517 57 447 q 160 638 110 586 q 283 720 210 690 q 453 750 357 750 q 591 731 529 750 q 701 676 653 711 l 760 736 l 865 736 l 757 625 q 825 508 801 574 q 849 368 849 443 q 822 219 849 289 q 746 98 796 150 q 622 16 696 46 q 453 -14 549 -14 m 589 561 q 539 644 571 611 q 453 678 507 678 q 369 647 401 678 q 320 571 338 617 q 297 470 303 525 q 290 368 290 415 q 292 316 290 343 q 297 261 293 289 l 589 561 m 453 57 q 535 88 503 57 q 585 164 567 118 q 609 265 603 210 q 615 368 615 319 q 613 418 615 392 q 608 472 611 444 l 317 174 q 366 90 333 124 q 453 57 399 57 m 413 892 l 469 1101 q 574 1193 494 1193 q 619 1176 601 1193 q 636 1131 636 1158 q 625 1084 636 1110 q 590 1031 614 1058 l 456 876 l 413 892 z "},"õ":{"ha":892,"x_min":50,"x_max":842,"o":"m 446 750 q 615 720 542 750 q 739 638 689 690 q 815 517 789 586 q 842 368 842 447 q 815 219 842 289 q 739 98 789 150 q 615 16 689 46 q 446 -14 542 -14 q 276 16 350 -14 q 153 98 203 46 q 76 219 103 150 q 50 368 50 289 q 76 517 50 447 q 153 638 103 586 q 276 720 203 690 q 446 750 350 750 m 283 368 q 290 265 283 319 q 313 164 296 210 q 363 88 331 118 q 446 57 394 57 q 528 88 496 57 q 578 164 560 118 q 602 265 596 210 q 608 368 608 319 q 602 470 608 415 q 578 571 596 525 q 529 647 561 617 q 446 678 497 678 q 363 647 394 678 q 313 571 331 617 q 290 470 296 525 q 283 368 283 415 m 222 921 q 264 1071 222 1019 q 371 1122 306 1122 q 418 1115 397 1122 q 458 1097 439 1107 q 496 1080 476 1088 q 539 1072 515 1072 q 622 1125 608 1072 l 676 1125 q 641 974 676 1029 q 535 919 606 919 q 485 928 506 919 q 445 947 464 936 q 407 965 426 957 q 361 974 388 974 q 303 959 325 974 q 276 921 281 944 l 222 921 z "},"p":{"ha":940,"x_min":14,"x_max":888,"o":"m 350 -278 l 536 -314 l 536 -347 l 14 -347 l 14 -314 l 135 -278 l 135 613 l 18 650 l 18 683 l 306 750 l 338 750 l 338 647 l 344 647 q 445 723 383 696 q 576 750 507 750 q 701 723 644 750 q 800 647 758 696 q 865 532 842 599 q 888 385 888 465 q 859 221 888 294 q 777 95 831 147 q 649 15 724 43 q 482 -14 574 -14 q 413 -9 444 -14 q 350 7 382 -4 l 350 -278 m 485 61 q 553 83 522 61 q 606 144 585 104 q 640 239 628 183 q 653 361 653 294 q 608 567 653 492 q 489 642 564 642 q 406 619 446 642 q 350 560 367 596 l 350 214 q 360 154 350 182 q 390 106 371 126 q 433 73 408 85 q 485 61 457 61 z "},"¶":{"ha":882,"x_min":40,"x_max":817,"o":"m 406 -150 l 406 472 l 328 472 q 208 496 261 472 q 118 560 156 519 q 60 655 81 601 q 40 769 40 708 q 63 893 40 838 q 126 988 85 949 q 228 1048 168 1026 q 363 1069 288 1069 l 817 1069 l 817 1014 l 708 990 l 708 -150 l 604 -150 l 604 993 l 508 993 l 508 -150 l 406 -150 z "},"(":{"ha":439,"x_min":51,"x_max":394,"o":"m 335 -278 q 239 -165 289 -231 q 147 -13 189 -100 q 78 182 106 74 q 51 424 51 290 q 81 656 51 543 q 154 866 110 769 q 253 1037 199 963 q 358 1153 308 1111 l 394 1125 q 346 1012 374 1085 q 293 844 318 939 q 251 641 268 750 q 235 422 235 532 q 250 187 235 293 q 287 -3 265 81 q 333 -147 308 -86 q 378 -246 358 -207 l 335 -278 z "},")":{"ha":439,"x_min":44,"x_max":388,"o":"m 61 -246 q 106 -147 81 -207 q 152 -3 131 -86 q 189 187 174 81 q 204 422 204 293 q 188 641 204 532 q 146 844 171 750 q 93 1012 121 939 q 44 1125 65 1085 l 81 1153 q 185 1037 131 1111 q 285 866 240 963 q 358 656 329 769 q 388 424 388 543 q 360 182 388 290 q 292 -13 333 74 q 200 -165 250 -100 q 104 -278 150 -231 l 61 -246 z "}}}
